<?xml version="1.0" encoding="UTF-8" standalone="no"?>
<svg
   xmlns:dc="http://purl.org/dc/elements/1.1/"
   xmlns:cc="http://creativecommons.org/ns#"
   xmlns:rdf="http://www.w3.org/1999/02/22-rdf-syntax-ns#"
   xmlns:svg="http://www.w3.org/2000/svg"
   xmlns="http://www.w3.org/2000/svg"
   xmlns:sodipodi="http://sodipodi.sourceforge.net/DTD/sodipodi-0.dtd"
   xmlns:inkscape="http://www.inkscape.org/namespaces/inkscape"
   version="1.1"
   viewBox="0 0 1120 499.99999"
   stroke-miterlimit="10"
   id="svg151"
   sodipodi:docname="Pinout_Puente_H.svg"
   inkscape:version="0.92.1 r15371"
   width="1120"
   height="500"
   style="fill:none;stroke:none;stroke-linecap:square;stroke-miterlimit:10">
  <metadata
     id="metadata157">
    <rdf:RDF>
      <cc:Work
         rdf:about="">
        <dc:format>image/svg+xml</dc:format>
        <dc:type
           rdf:resource="http://purl.org/dc/dcmitype/StillImage" />
        <dc:title></dc:title>
      </cc:Work>
    </rdf:RDF>
  </metadata>
  <defs
     id="defs155" />
  <sodipodi:namedview
     pagecolor="#ffffff"
     bordercolor="#666666"
     borderopacity="1"
     objecttolerance="10"
     gridtolerance="10"
     guidetolerance="10"
     inkscape:pageopacity="0"
     inkscape:pageshadow="2"
     inkscape:window-width="1366"
     inkscape:window-height="731"
     id="namedview153"
     showgrid="false"
     inkscape:zoom="0.68214286"
     inkscape:cx="560"
     inkscape:cy="241.71166"
     inkscape:window-x="0"
     inkscape:window-y="0"
     inkscape:window-maximized="1"
     inkscape:current-layer="svg151" />
  <clipPath
     id="p_1.0">
    <path
       d="M 0,0 H 1122.5197 V 793.7008 H 0 Z"
       id="path2"
       inkscape:connector-curvature="0"
       style="clip-rule:nonzero" />
  </clipPath>
  <g
     clip-path="url(#p_1.0)"
     id="g149"
     transform="translate(-1.4659687,-146.30813)">
    <path
       d="M 0,0 H 1122.5197 V 793.7008 H 0 Z"
       id="path5"
       inkscape:connector-curvature="0"
       style="fill:#000000;fill-opacity:0;fill-rule:evenodd" />
    <path
       d="M 14.016122,209.21967 H 1108.9975 V 584.48034 H 14.016122 Z"
       id="path7"
       inkscape:connector-curvature="0"
       style="fill:#000000;fill-opacity:0;fill-rule:evenodd;stroke-width:1.59324169" />
    <path
       d="m 292.33718,225.15064 h 96.80728 v 53.10301 h -96.80728 z"
       id="path9"
       inkscape:connector-curvature="0"
       style="fill:#ffffff;fill-rule:evenodd;stroke-width:1.59324169" />
    <path
       d="M 308.14512,249.87772 V 236.1858 h 4.72993 q 1.59325,0 2.43966,0.19915 1.17003,0.27384 1.99155,0.97088 1.09535,0.9211 1.61813,2.36497 0.54768,1.41898 0.54768,3.23627 0,1.56835 -0.37342,2.76328 -0.34852,1.19493 -0.92109,1.99155 -0.57257,0.79663 -1.26961,1.24472 -0.67215,0.4481 -1.61814,0.69705 -0.94599,0.22405 -2.19071,0.22405 z m 1.81729,-1.61814 h 2.91264 q 1.3692,0 2.14092,-0.24894 0.77173,-0.24895 1.21983,-0.72194 0.64725,-0.62236 0.99577,-1.71771 0.37342,-1.09536 0.37342,-2.63881 0,-2.14092 -0.72194,-3.28606 -0.69704,-1.17004 -1.69282,-1.56835 -0.74683,-0.27384 -2.34007,-0.27384 h -2.88775 z m 11.44209,-5.05356 q 0,-3.41053 1.81729,-5.3274 1.84219,-1.94177 4.72994,-1.94177 1.91686,0 3.43542,0.9211 1.51856,0.89619 2.31518,2.51433 0.79662,1.61814 0.79662,3.68437 0,2.06624 -0.84641,3.70927 -0.84641,1.64303 -2.38986,2.48944 -1.51856,0.84641 -3.31095,0.84641 -1.94177,0 -3.46033,-0.9211 -1.51855,-0.94598 -2.31518,-2.53922 -0.77172,-1.61814 -0.77172,-3.43543 z m 1.86708,0.0249 q 0,2.48944 1.3194,3.90842 1.3443,1.41898 3.36075,1.41898 2.04134,0 3.36074,-1.41898 1.3194,-1.44387 1.3194,-4.10757 0,-1.66793 -0.57257,-2.91265 -0.54767,-1.24472 -1.64303,-1.91687 -1.09535,-0.69704 -2.43965,-0.69704 -1.91687,0 -3.31096,1.3194 -1.39408,1.31941 -1.39408,4.40631 z m 12.87974,3.06201 1.7675,-0.14936 q 0.19916,1.29451 0.8962,1.94176 0.72194,0.64726 1.74261,0.64726 1.19493,0 2.04134,-0.9211 0.84641,-0.92109 0.84641,-2.41475 0,-1.44388 -0.82152,-2.26539 -0.79662,-0.84641 -2.11602,-0.84641 -0.79662,0 -1.46877,0.37341 -0.64726,0.37342 -1.02067,0.94599 l -1.56835,-0.19916 1.3194,-7.02022 h 6.82107 v 1.59324 h -5.47677 l -0.72194,3.68438 q 1.21983,-0.87131 2.56413,-0.87131 1.79239,0 3.01222,1.24472 1.24472,1.24472 1.24472,3.21138 0,1.84218 -1.07046,3.21138 -1.3194,1.64303 -3.58479,1.64303 -1.86708,0 -3.06201,-1.04557 -1.17004,-1.04556 -1.3443,-2.76328 z"
       id="path11"
       inkscape:connector-curvature="0"
       style="fill:#000000;fill-rule:nonzero;stroke-width:1.59324169" />
    <path
       d="m 287.15107,311.8857 h 96.80727 v 53.10306 h -96.80727 z"
       id="path13"
       inkscape:connector-curvature="0"
       style="fill:#ffffff;fill-rule:evenodd;stroke-width:1.59324169" />
    <path
       d="m 302.95901,336.61277 v -13.69192 h 4.72993 q 1.59324,0 2.43965,0.19916 1.17004,0.27384 1.99155,0.97088 1.09536,0.92109 1.61814,2.36497 0.54768,1.41898 0.54768,3.23627 0,1.56835 -0.37342,2.76328 -0.34852,1.19493 -0.92109,1.99155 -0.57257,0.79662 -1.26962,1.24472 -0.67214,0.4481 -1.61813,0.69704 -0.94599,0.22405 -2.19071,0.22405 z m 1.81729,-1.61813 h 2.91264 q 1.36919,0 2.14092,-0.24895 0.77173,-0.24894 1.21983,-0.72193 0.64725,-0.62236 0.99577,-1.71772 0.37342,-1.09535 0.37342,-2.6388 0,-2.14092 -0.72194,-3.28606 -0.69704,-1.17004 -1.69282,-1.56835 -0.74683,-0.27384 -2.34007,-0.27384 h -2.88775 z m 11.44209,-5.05357 q 0,-3.41053 1.81729,-5.3274 1.84218,-1.94176 4.72993,-1.94176 1.91687,0 3.43543,0.92109 1.51856,0.8962 2.31518,2.51434 0.79662,1.61813 0.79662,3.68437 0,2.06623 -0.84641,3.70926 -0.84641,1.64303 -2.38986,2.48944 -1.51856,0.84641 -3.31096,0.84641 -1.94176,0 -3.46032,-0.92109 -1.51856,-0.94599 -2.31518,-2.53923 -0.77172,-1.61813 -0.77172,-3.43543 z m 1.86708,0.0249 q 0,2.48944 1.3194,3.90842 1.3443,1.41898 3.36074,1.41898 2.04134,0 3.36075,-1.41898 1.3194,-1.44388 1.3194,-4.10758 0,-1.66792 -0.57257,-2.91264 -0.54768,-1.24472 -1.64303,-1.91687 -1.09536,-0.69704 -2.43965,-0.69704 -1.91687,0 -3.31096,1.3194 -1.39408,1.3194 -1.39408,4.40631 z m 12.97931,-5.25272 v -1.61814 h 8.86241 v 1.31941 q -1.29451,1.39408 -2.58902,3.70926 -1.26961,2.29029 -1.96666,4.72994 -0.52278,1.71771 -0.64725,3.75905 h -1.74261 q 0.0249,-1.61813 0.62236,-3.90842 0.62236,-2.29028 1.74261,-4.40631 1.14514,-2.11602 2.43965,-3.58479 z"
       id="path15"
       inkscape:connector-curvature="0"
       style="fill:#000000;fill-rule:nonzero;stroke-width:1.59324169" />
    <path
       d="M 14.016122,209.21967 H 228.33201 V 584.39273 H 14.016122 Z"
       id="path17"
       inkscape:connector-curvature="0"
       style="fill:#ffffff;fill-rule:evenodd;stroke-width:1.59324169" />
    <path
       d="M 14.016122,209.21967 H 228.33201 V 584.39273 H 14.016122 Z"
       id="path19"
       inkscape:connector-curvature="0"
       style="fill-rule:evenodd;stroke:#f79646;stroke-width:4.24864435;stroke-linecap:butt;stroke-linejoin:round" />
    <path
       d="m 84.679114,387.37425 v -16.70414 h 6.323178 q 1.667925,0 2.539229,0.14936 1.219826,0.19916 2.041341,0.77173 0.846409,0.57257 1.344297,1.61814 0.522783,1.04556 0.522783,2.29028 0,2.11602 -1.369192,3.60969 -1.344298,1.46877 -4.904197,1.46877 h -4.281837 v 6.79617 z m 2.215602,-8.76283 h 4.331626 q 2.140918,0 3.037116,-0.79662 0.896199,-0.79662 0.896199,-2.2405 0,-1.07046 -0.522782,-1.81729 -0.522783,-0.74683 -1.394087,-0.97088 -0.572571,-0.14937 -2.066235,-0.14937 h -4.281837 z m 13.284614,8.76283 v -16.70414 h 2.2156 v 14.73748 h 8.21515 v 1.96666 z m 11.2441,0 6.39786,-16.70414 h 2.38986 l 6.84596,16.70414 h -2.51433 l -1.96666,-5.05356 h -6.97043 l -1.84219,5.05356 z m 4.80462,-6.87085 h 5.67592 l -1.7426,-4.63036 q -0.79662,-2.09113 -1.19494,-3.46033 -0.32362,1.61814 -0.89619,3.18649 z m 24.51199,1.02067 2.2156,0.54767 q -0.69704,2.71349 -2.51433,4.15737 -1.7924,1.41898 -4.40631,1.41898 -2.6886,0 -4.38142,-1.09536 -1.69282,-1.09535 -2.58901,-3.18648 -0.87131,-2.09113 -0.87131,-4.48099 0,-2.61391 0.99578,-4.55568 0.99577,-1.94176 2.83796,-2.93754 1.84219,-1.02067 4.05779,-1.02067 2.48944,0 4.20715,1.29451 1.71771,1.26962 2.38986,3.5848 l -2.1907,0.49788 q -0.57258,-1.81729 -1.69282,-2.6388 -1.09536,-0.84641 -2.76328,-0.84641 -1.94177,0 -3.23627,0.92109 -1.29451,0.92109 -1.8173,2.48944 -0.52278,1.54345 -0.52278,3.21138 0,2.11602 0.62236,3.70926 0.62236,1.59325 1.94177,2.38987 1.3194,0.77172 2.83796,0.77172 1.86708,0 3.13669,-1.07046 1.29451,-1.07045 1.74261,-3.16158 z m 3.12157,5.85018 6.39786,-16.70414 h 2.38987 l 6.84596,16.70414 h -2.51434 l -1.96666,-5.05356 h -6.97043 l -1.84218,5.05356 z m 4.80462,-6.87085 h 5.67593 l -1.74261,-4.63036 q -0.79662,-2.09113 -1.19493,-3.46033 -0.32363,1.61814 -0.8962,3.18649 z"
       id="path21"
       inkscape:connector-curvature="0"
       style="fill:#000000;fill-rule:nonzero;stroke-width:1.59324169" />
    <path
       d="m 67.309721,419.23905 6.397861,-16.70414 h 2.389863 l 6.84596,16.70414 H 80.42907 l -1.966657,-5.05356 H 71.49198 l -1.842185,5.05356 z m 4.804619,-6.87085 h 5.675924 l -1.742608,-4.63036 q -0.796621,-2.09113 -1.194932,-3.46032 -0.323627,1.61813 -0.896198,3.18648 z m 12.637361,6.87085 v -16.70414 h 7.393637 q 2.240496,0 3.410533,0.4481 1.170037,0.4481 1.86708,1.59324 0.697043,1.12025 0.697043,2.51433 0,1.76751 -1.170037,2.98733 -1.145142,1.21983 -3.559899,1.56835 0.896199,0.39831 1.344298,0.82151 0.970881,0.8962 1.842185,2.21561 l 2.887751,4.55567 h -2.763279 l -2.215601,-3.48521 q -0.970882,-1.49367 -1.593242,-2.29029 -0.62236,-0.79662 -1.120248,-1.12025 -0.497888,-0.32363 -1.02067,-0.4481 -0.373416,-0.0747 -1.219826,-0.0747 h -2.564123 v 7.41853 z m 2.215602,-9.3354 h 4.75483 q 1.493664,0 2.340074,-0.29873 0.871304,-0.32363 1.319403,-1.02067 0.448099,-0.69705 0.448099,-1.49367 0,-1.19493 -0.871304,-1.94176 -0.846409,-0.77173 -2.713489,-0.77173 h -5.277613 z m 14.597937,9.3354 v -16.70414 h 5.7755 q 1.94177,0 2.96244,0.22405 1.44387,0.32363 2.46454,1.19493 1.31941,1.12025 1.96666,2.86286 0.64726,1.7426 0.64726,3.9831 0,1.89197 -0.4481,3.36074 -0.42321,1.46877 -1.12025,2.43965 -0.69704,0.97089 -1.54345,1.51856 -0.82152,0.54768 -1.99156,0.84641 -1.14514,0.27384 -2.6637,0.27384 z m 2.21561,-1.96666 h 3.58479 q 1.64303,0 2.58902,-0.29873 0.94598,-0.32363 1.49366,-0.8713 0.79662,-0.79662 1.21983,-2.11603 0.4481,-1.3443 0.4481,-3.23627 0,-2.61391 -0.87131,-4.008 -0.84641,-1.41898 -2.09113,-1.89197 -0.8713,-0.34852 -2.86285,-0.34852 h -3.51011 z m 25.62611,-14.73748 h 2.2156 v 9.63413 q 0,2.53923 -0.57257,4.03289 -0.57257,1.46877 -2.06624,2.38987 -1.49366,0.92109 -3.90842,0.92109 -2.34007,0 -3.83374,-0.79662 -1.49366,-0.82152 -2.14091,-2.34007 -0.62236,-1.54346 -0.62236,-4.20716 v -9.63413 h 2.2156 v 9.63413 q 0,2.19071 0.39831,3.21138 0.39831,1.02067 1.36919,1.59324 0.99578,0.54768 2.43965,0.54768 2.43965,0 3.46032,-1.09536 1.04557,-1.12024 1.04557,-4.25694 z m 6.25831,16.70414 v -16.70414 h 2.21561 v 16.70414 z m 6.08931,0 v -16.70414 h 2.29028 l 8.76283,13.11935 v -13.11935 h 2.11603 v 16.70414 h -2.26539 l -8.76283,-13.14424 v 13.14424 z m 16.21608,-8.14047 q 0,-4.15736 2.24049,-6.49744 2.2405,-2.36496 5.7755,-2.36496 2.31518,0 4.15737,1.12024 1.86708,1.09536 2.83796,3.06201 0.97088,1.96666 0.97088,4.481 0,2.53923 -1.02067,4.55567 -1.02067,2.01645 -2.91264,3.03712 -1.86708,1.02067 -4.05779,1.02067 -2.34007,0 -4.20715,-1.12025 -1.86708,-1.14514 -2.83797,-3.1118 -0.94598,-1.99155 -0.94598,-4.18226 z m 2.29028,0.0249 q 0,3.03711 1.61814,4.77972 1.61813,1.71772 4.08268,1.71772 2.48944,0 4.10758,-1.74261 1.61813,-1.76751 1.61813,-4.97888 0,-2.04134 -0.69704,-3.5599 -0.69704,-1.54346 -2.01645,-2.36497 -1.3194,-0.84641 -2.98733,-0.84641 -2.34007,0 -4.03289,1.61814 -1.69282,1.61813 -1.69282,5.37719 z"
       id="path23"
       inkscape:connector-curvature="0"
       style="fill:#000000;fill-rule:nonzero;stroke-width:1.59324169" />
    <path
       d="M 434.09086,223.38045 H 648.40681 V 584.48122 H 434.09086 Z"
       id="path25"
       inkscape:connector-curvature="0"
       style="fill:#ffffff;fill-rule:evenodd;stroke-width:1.59324169" />
    <path
       d="M 434.09086,223.38045 H 648.40681 V 584.48122 H 434.09086 Z"
       id="path27"
       inkscape:connector-curvature="0"
       style="fill-rule:evenodd;stroke:#f79646;stroke-width:4.24864435;stroke-linecap:butt;stroke-linejoin:round" />
    <path
       d="M 484.0083,410.43124 V 393.7271 h 6.32317 q 1.66793,0 2.53923,0.14937 1.21983,0.19915 2.04134,0.77172 0.84641,0.57258 1.3443,1.61814 0.52278,1.04557 0.52278,2.29029 0,2.11602 -1.36919,3.60968 -1.3443,1.46877 -4.9042,1.46877 h -4.28183 v 6.79617 z m 2.2156,-8.76282 h 4.33162 q 2.14092,0 3.03712,-0.79663 0.8962,-0.79662 0.8962,-2.24049 0,-1.07046 -0.52278,-1.81729 -0.52279,-0.74683 -1.39409,-0.97088 -0.57257,-0.14937 -2.06624,-0.14937 h -4.28183 z m 24.33768,-7.94132 h 2.2156 v 9.63414 q 0,2.53922 -0.57257,4.03289 -0.57257,1.46877 -2.06624,2.38986 -1.49366,0.92109 -3.90842,0.92109 -2.34007,0 -3.83374,-0.79662 -1.49366,-0.82151 -2.14091,-2.34007 -0.62236,-1.54345 -0.62236,-4.20715 v -9.63414 h 2.2156 v 9.63414 q 0,2.1907 0.39831,3.21137 0.39831,1.02067 1.36919,1.59324 0.99578,0.54768 2.43965,0.54768 2.43965,0 3.46032,-1.09535 1.04557,-1.12025 1.04557,-4.25694 z m 5.93469,16.70414 V 393.7271 h 12.09868 v 1.96666 h -9.88308 v 5.10335 h 9.23582 v 1.96666 h -9.23582 v 5.70082 h 10.25649 v 1.96665 z m 15.50017,0 V 393.7271 h 2.29028 l 8.76283,13.11935 V 393.7271 h 2.11602 v 16.70414 h -2.26539 L 534.13735,397.287 v 13.14424 z m 21.14516,0 v -14.73748 h -5.50166 v -1.96666 h 13.24382 v 1.96666 h -5.52655 v 14.73748 z m 10.05656,0 V 393.7271 h 12.09868 v 1.96666 h -9.88307 v 5.10335 h 9.23582 v 1.96666 h -9.23582 v 5.70082 h 10.25649 v 1.96665 z m 22.08746,0 V 393.7271 h 2.21561 v 6.84596 h 8.68814 v -6.84596 h 2.2156 v 16.70414 h -2.2156 v -7.86663 h -8.68814 v 7.86663 z"
       id="path29"
       inkscape:connector-curvature="0"
       style="fill:#000000;fill-rule:nonzero;stroke-width:1.59324169" />
    <path
       d="m 228.37509,267.63306 205.75885,1.72583"
       id="path31"
       inkscape:connector-curvature="0"
       style="fill:#000000;fill-opacity:0;fill-rule:evenodd;stroke-width:1.59324169" />
    <path
       d="m 228.37514,267.63306 200.29884,1.68003"
       id="path33"
       inkscape:connector-curvature="0"
       style="fill-rule:evenodd;stroke:#000000;stroke-width:1.59324169;stroke-linecap:butt;stroke-linejoin:round" />
    <path
       d="m 428.67398,269.3131 -1.80669,1.77664 4.9376,-1.75039 -4.90756,-1.83294 z"
       id="path35"
       inkscape:connector-curvature="0"
       style="fill:#000000;fill-rule:evenodd;stroke:#000000;stroke-width:1.59324169;stroke-linecap:butt" />
    <path
       d="m 228.37509,352.59796 205.75885,1.72583"
       id="path37"
       inkscape:connector-curvature="0"
       style="fill:#000000;fill-opacity:0;fill-rule:evenodd;stroke-width:1.59324169" />
    <path
       d="m 228.37514,352.59793 200.29884,1.68008"
       id="path39"
       inkscape:connector-curvature="0"
       style="fill-rule:evenodd;stroke:#000000;stroke-width:1.59324169;stroke-linecap:butt;stroke-linejoin:round" />
    <path
       d="m 428.67398,354.278 -1.80669,1.77664 4.9376,-1.75038 -4.90756,-1.83295 z"
       id="path41"
       inkscape:connector-curvature="0"
       style="fill:#000000;fill-rule:evenodd;stroke:#000000;stroke-width:1.59324169;stroke-linecap:butt" />
    <path
       d="m 292.33718,382.68959 h 96.80728 v 53.10307 h -96.80728 z"
       id="path43"
       inkscape:connector-curvature="0"
       style="fill:#ffffff;fill-rule:evenodd;stroke-width:1.59324169" />
    <path
       d="m 308.14512,407.41675 v -13.69192 h 4.72993 q 1.59325,0 2.43966,0.19916 1.17003,0.27384 1.99155,0.97088 1.09535,0.92109 1.61813,2.36497 0.54768,1.41898 0.54768,3.23627 0,1.56835 -0.37342,2.76328 -0.34852,1.19493 -0.92109,1.99155 -0.57257,0.79662 -1.26961,1.24472 -0.67215,0.4481 -1.61814,0.69704 -0.94599,0.22405 -2.19071,0.22405 z m 1.81729,-1.61813 h 2.91264 q 1.3692,0 2.14092,-0.24895 0.77173,-0.24894 1.21983,-0.72194 0.64725,-0.62236 0.99577,-1.71771 0.37342,-1.09535 0.37342,-2.63881 0,-2.14091 -0.72194,-3.28606 -0.69704,-1.17003 -1.69282,-1.56834 -0.74683,-0.27384 -2.34007,-0.27384 h -2.88775 z m 11.44209,-5.05357 q 0,-3.41053 1.81729,-5.3274 1.84219,-1.94176 4.72994,-1.94176 1.91686,0 3.43542,0.92109 1.51856,0.8962 2.31518,2.51433 0.79662,1.61814 0.79662,3.68438 0,2.06623 -0.84641,3.70926 -0.84641,1.64303 -2.38986,2.48944 -1.51856,0.84641 -3.31095,0.84641 -1.94177,0 -3.46033,-0.92109 -1.51855,-0.94599 -2.31518,-2.53923 -0.77172,-1.61814 -0.77172,-3.43543 z m 1.86708,0.0249 q 0,2.48944 1.3194,3.90842 1.3443,1.41898 3.36075,1.41898 2.04134,0 3.36074,-1.41898 1.3194,-1.44388 1.3194,-4.10758 0,-1.66792 -0.57257,-2.91264 -0.54767,-1.24472 -1.64303,-1.91687 -1.09535,-0.69705 -2.43965,-0.69705 -1.91687,0 -3.31096,1.31941 -1.39408,1.3194 -1.39408,4.40631 z m 21.59278,-3.68437 -1.66793,0.12447 q -0.22405,-0.99578 -0.62236,-1.44388 -0.69704,-0.72194 -1.69282,-0.72194 -0.79662,0 -1.41898,0.4481 -0.77172,0.59747 -1.24472,1.71772 -0.4481,1.09535 -0.47299,3.13669 0.59747,-0.92109 1.46877,-1.36919 0.8962,-0.4481 1.86708,-0.4481 1.66792,0 2.83796,1.24472 1.19493,1.24472 1.19493,3.18648 0,1.29451 -0.57257,2.41476 -0.54768,1.09535 -1.51856,1.69282 -0.97088,0.57257 -2.1907,0.57257 -2.11603,0 -3.43543,-1.54345 -1.3194,-1.54345 -1.3194,-5.07846 0,-3.9831 1.46877,-5.7755 1.26961,-1.56835 3.43542,-1.56835 1.61814,0 2.63881,0.9211 1.04556,0.89619 1.24472,2.48944 z m -6.84596,5.89997 q 0,0.8713 0.34852,1.66792 0.37342,0.77173 1.02067,1.19493 0.67215,0.42321 1.41898,0.42321 1.04557,0 1.81729,-0.84641 0.77173,-0.8713 0.77173,-2.34007 0,-1.41898 -0.77173,-2.2405 -0.74683,-0.82152 -1.89197,-0.82152 -1.14514,0 -1.94176,0.82152 -0.77173,0.82152 -0.77173,2.14092 z"
       id="path45"
       inkscape:connector-curvature="0"
       style="fill:#000000;fill-rule:nonzero;stroke-width:1.59324169" />
    <path
       d="m 233.56122,423.4021 205.75885,1.72583"
       id="path47"
       inkscape:connector-curvature="0"
       style="fill:#000000;fill-opacity:0;fill-rule:evenodd;stroke-width:1.59324169" />
    <path
       d="m 233.56122,423.4021 200.29884,1.68003"
       id="path49"
       inkscape:connector-curvature="0"
       style="fill-rule:evenodd;stroke:#000000;stroke-width:1.59324169;stroke-linecap:butt;stroke-linejoin:round" />
    <path
       d="m 433.86006,425.08214 -1.80669,1.77664 4.9376,-1.75039 -4.90755,-1.83294 z"
       id="path51"
       inkscape:connector-curvature="0"
       style="fill:#000000;fill-rule:evenodd;stroke:#000000;stroke-width:1.59324169;stroke-linecap:butt" />
    <path
       d="m 292.33718,472.96482 h 96.80728 v 53.10306 h -96.80728 z"
       id="path53"
       inkscape:connector-curvature="0"
       style="fill:#ffffff;fill-rule:evenodd;stroke-width:1.59324169" />
    <path
       d="m 308.14512,497.6919 v -13.69192 h 4.72993 q 1.59325,0 2.43966,0.19915 1.17003,0.27384 1.99155,0.97088 1.09535,0.92109 1.61813,2.36497 0.54768,1.41898 0.54768,3.23627 0,1.56835 -0.37342,2.76328 -0.34852,1.19493 -0.92109,1.99155 -0.57257,0.79662 -1.26961,1.24472 -0.67215,0.4481 -1.61814,0.69705 -0.94599,0.22405 -2.19071,0.22405 z m 1.81729,-1.61814 h 2.91264 q 1.3692,0 2.14092,-0.24894 0.77173,-0.24895 1.21983,-0.72194 0.64725,-0.62236 0.99577,-1.71772 0.37342,-1.09535 0.37342,-2.6388 0,-2.14092 -0.72194,-3.28606 -0.69704,-1.17004 -1.69282,-1.56835 -0.74683,-0.27384 -2.34007,-0.27384 h -2.88775 z m 11.44209,-5.05356 q 0,-3.41054 1.81729,-5.32741 1.84219,-1.94176 4.72994,-1.94176 1.91686,0 3.43542,0.92109 1.51856,0.8962 2.31518,2.51434 0.79662,1.61813 0.79662,3.68437 0,2.06624 -0.84641,3.70927 -0.84641,1.64303 -2.38986,2.48944 -1.51856,0.84641 -3.31095,0.84641 -1.94177,0 -3.46033,-0.9211 -1.51855,-0.94598 -2.31518,-2.53923 -0.77172,-1.61813 -0.77172,-3.43542 z m 1.86708,0.0249 q 0,2.48944 1.3194,3.90842 1.3443,1.41898 3.36075,1.41898 2.04134,0 3.36074,-1.41898 1.3194,-1.44387 1.3194,-4.10757 0,-1.66793 -0.57257,-2.91265 -0.54767,-1.24472 -1.64303,-1.91687 -1.09535,-0.69704 -2.43965,-0.69704 -1.91687,0 -3.31096,1.3194 -1.39408,1.3194 -1.39408,4.40631 z m 15.46876,-0.77173 q -1.04557,-0.39831 -1.56835,-1.09535 -0.49789,-0.72194 -0.49789,-1.69282 0,-1.49366 1.07046,-2.51433 1.09535,-1.02067 2.86286,-1.02067 1.79239,0 2.88775,1.04556 1.09535,1.04557 1.09535,2.53923 0,0.94599 -0.49789,1.64303 -0.49789,0.69704 -1.51856,1.09535 1.26962,0.39831 1.91687,1.31941 0.64726,0.92109 0.64726,2.1907 0,1.74261 -1.24472,2.93754 -1.21983,1.19494 -3.26117,1.19494 -2.01645,0 -3.26117,-1.19494 -1.24472,-1.19493 -1.24472,-2.98732 0,-1.3443 0.67215,-2.2405 0.69705,-0.8962 1.94177,-1.21983 z m -0.34853,-2.86285 q 0,0.97088 0.62236,1.59324 0.64726,0.62236 1.64304,0.62236 0.97088,0 1.59324,-0.59747 0.62236,-0.62236 0.62236,-1.51855 0,-0.9211 -0.64726,-1.54346 -0.64725,-0.64725 -1.59324,-0.64725 -0.97088,0 -1.61814,0.62236 -0.62236,0.62236 -0.62236,1.46877 z m -0.52278,6.32318 q 0,0.72193 0.32363,1.39408 0.34852,0.67215 1.02067,1.04557 0.67215,0.37341 1.44388,0.37341 1.19493,0 1.96665,-0.77172 0.79662,-0.77173 0.79662,-1.96666 0,-1.21983 -0.79662,-2.01645 -0.79662,-0.79662 -2.01644,-0.79662 -1.19493,0 -1.96666,0.79662 -0.77173,0.77173 -0.77173,1.94177 z"
       id="path55"
       inkscape:connector-curvature="0"
       style="fill:#000000;fill-rule:nonzero;stroke-width:1.59324169" />
    <path
       d="m 233.56122,513.67727 205.75885,1.72588"
       id="path57"
       inkscape:connector-curvature="0"
       style="fill:#000000;fill-opacity:0;fill-rule:evenodd;stroke-width:1.59324169" />
    <path
       d="m 233.56122,513.67732 200.29884,1.67998"
       id="path59"
       inkscape:connector-curvature="0"
       style="fill-rule:evenodd;stroke:#000000;stroke-width:1.59324169;stroke-linecap:butt;stroke-linejoin:round" />
    <path
       d="m 433.86006,515.35728 -1.80669,1.77664 4.9376,-1.75038 -4.90755,-1.83295 z"
       id="path61"
       inkscape:connector-curvature="0"
       style="fill:#000000;fill-rule:evenodd;stroke:#000000;stroke-width:1.59324169;stroke-linecap:butt" />
    <path
       d="m 712.41185,234.00103 h 96.80732 v 53.10307 h -96.80732 z"
       id="path63"
       inkscape:connector-curvature="0"
       style="fill:#ffffff;fill-rule:evenodd;stroke-width:1.59324169" />
    <path
       d="m 728.17003,258.72818 v -13.69193 h 2.73838 l 3.23628,9.68393 q 0.4481,1.36919 0.64725,2.04134 0.22405,-0.74683 0.72194,-2.19071 l 3.28606,-9.53456 h 2.43965 v 13.69193 h -1.74261 v -11.45143 l -3.9831,11.45143 h -1.64303 l -3.95821,-11.65058 v 11.65058 z m 21.62701,0 h -1.66792 v -10.7046 q -0.62236,0.57257 -1.61814,1.17004 -0.97088,0.57257 -1.74261,0.84641 v -1.61814 q 1.39409,-0.67215 2.43965,-1.59324 1.07046,-0.94599 1.51856,-1.84218 h 1.07046 z m 8.29295,-2.21561 v -3.75905 h -3.70927 v -1.56835 h 3.70927 v -3.70926 h 1.59324 v 3.70926 h 3.73416 v 1.56835 h -3.73416 v 3.75905 z"
       id="path65"
       inkscape:connector-curvature="0"
       style="fill:#000000;fill-rule:nonzero;stroke-width:1.59324169" />
    <path
       d="m 707.22575,320.73612 h 96.80733 v 53.10302 h -96.80733 z"
       id="path67"
       inkscape:connector-curvature="0"
       style="fill:#ffffff;fill-rule:evenodd;stroke-width:1.59324169" />
    <path
       d="m 722.98387,345.46323 v -13.69192 h 2.73838 l 3.23628,9.68392 q 0.4481,1.36919 0.64725,2.04134 0.22405,-0.74683 0.72194,-2.1907 l 3.28606,-9.53456 h 2.43965 v 13.69192 h -1.74261 v -11.45142 l -3.9831,11.45142 h -1.64303 l -3.95821,-11.65058 v 11.65058 z m 21.62701,0 h -1.66792 v -10.70459 q -0.62236,0.57257 -1.61814,1.17004 -0.97088,0.57257 -1.74261,0.84641 v -1.61814 q 1.39409,-0.67215 2.43965,-1.59324 1.07046,-0.94599 1.51856,-1.84219 h 1.07046 z m 4.11069,-4.10757 v -1.69282 h 5.17803 v 1.69282 z"
       id="path69"
       inkscape:connector-curvature="0"
       style="fill:#000000;fill-rule:nonzero;stroke-width:1.59324169" />
    <path
       d="m 648.44987,278.25364 205.75885,1.72588"
       id="path71"
       inkscape:connector-curvature="0"
       style="fill:#000000;fill-opacity:0;fill-rule:evenodd;stroke-width:1.59324169" />
    <path
       d="m 648.44987,278.25364 200.29879,1.68008"
       id="path73"
       inkscape:connector-curvature="0"
       style="fill-rule:evenodd;stroke:#000000;stroke-width:1.59324169;stroke-linecap:butt;stroke-linejoin:round" />
    <path
       d="m 848.74863,279.93373 -1.80669,1.77664 4.93765,-1.75039 -4.9076,-1.83294 z"
       id="path75"
       inkscape:connector-curvature="0"
       style="fill:#000000;fill-rule:evenodd;stroke:#000000;stroke-width:1.59324169;stroke-linecap:butt" />
    <path
       d="m 648.44987,361.44838 205.75885,1.72584"
       id="path77"
       inkscape:connector-curvature="0"
       style="fill:#000000;fill-opacity:0;fill-rule:evenodd;stroke-width:1.59324169" />
    <path
       d="m 648.44987,361.44835 200.29879,1.68008"
       id="path79"
       inkscape:connector-curvature="0"
       style="fill-rule:evenodd;stroke:#000000;stroke-width:1.59324169;stroke-linecap:butt;stroke-linejoin:round" />
    <path
       d="m 848.74863,363.12843 -1.80669,1.77664 4.93765,-1.75034 -4.9076,-1.833 z"
       id="path81"
       inkscape:connector-curvature="0"
       style="fill:#000000;fill-rule:evenodd;stroke:#000000;stroke-width:1.59324169;stroke-linecap:butt" />
    <path
       d="m 712.41185,393.31022 h 96.80732 v 53.10307 h -96.80732 z"
       id="path83"
       inkscape:connector-curvature="0"
       style="fill:#ffffff;fill-rule:evenodd;stroke-width:1.59324169" />
    <path
       d="m 728.17003,418.0373 v -13.69192 h 2.73838 l 3.23628,9.68392 q 0.4481,1.36919 0.64725,2.04134 0.22405,-0.74683 0.72194,-2.1907 l 3.28606,-9.53456 h 2.43965 v 13.69192 h -1.74261 v -11.45142 l -3.9831,11.45142 h -1.64303 l -3.95821,-11.65058 v 11.65058 z m 24.14135,-1.61814 v 1.61814 h -9.06157 q 0,-0.59746 0.19916,-1.17004 0.34852,-0.92109 1.09535,-1.81729 0.77173,-0.8962 2.21561,-2.06623 2.24049,-1.84219 3.01222,-2.91265 0.79662,-1.07046 0.79662,-2.01644 0,-0.99578 -0.72194,-1.66793 -0.72194,-0.69704 -1.86708,-0.69704 -1.21982,0 -1.94176,0.72194 -0.72194,0.72193 -0.74683,2.01644 l -1.71772,-0.17426 q 0.17426,-1.94176 1.31941,-2.93754 1.17003,-1.02067 3.13669,-1.02067 1.96666,0 3.1118,1.09536 1.14514,1.09535 1.14514,2.71348 0,0.82152 -0.34852,1.61814 -0.32363,0.77173 -1.12025,1.66793 -0.77172,0.8713 -2.56412,2.38986 -1.51856,1.26961 -1.96666,1.74261 -0.4232,0.4481 -0.69704,0.89619 z m 5.77861,-0.59746 v -3.75906 h -3.70927 v -1.56834 h 3.70927 v -3.70927 h 1.59324 v 3.70927 h 3.73416 v 1.56834 h -3.73416 v 3.75906 z"
       id="path85"
       inkscape:connector-curvature="0"
       style="fill:#000000;fill-rule:nonzero;stroke-width:1.59324169" />
    <path
       d="m 653.63596,434.02268 205.75884,1.72588"
       id="path87"
       inkscape:connector-curvature="0"
       style="fill:#000000;fill-opacity:0;fill-rule:evenodd;stroke-width:1.59324169" />
    <path
       d="m 653.63596,434.02268 200.29878,1.68008"
       id="path89"
       inkscape:connector-curvature="0"
       style="fill-rule:evenodd;stroke:#000000;stroke-width:1.59324169;stroke-linecap:butt;stroke-linejoin:round" />
    <path
       d="m 853.93487,435.70277 -1.80669,1.77664 4.93755,-1.75039 -4.9075,-1.83295 z"
       id="path91"
       inkscape:connector-curvature="0"
       style="fill:#000000;fill-rule:evenodd;stroke:#000000;stroke-width:1.59324169;stroke-linecap:butt" />
    <path
       d="m 712.41185,483.58543 h 96.80732 v 53.10306 h -96.80732 z"
       id="path93"
       inkscape:connector-curvature="0"
       style="fill:#ffffff;fill-rule:evenodd;stroke-width:1.59324169" />
    <path
       d="M 728.17003,508.31252 V 494.6206 h 2.73838 l 3.23628,9.68393 q 0.4481,1.36919 0.64725,2.04134 0.22405,-0.74684 0.72194,-2.19071 l 3.28606,-9.53456 h 2.43965 v 13.69192 h -1.74261 V 496.8611 l -3.9831,11.45142 h -1.64303 l -3.95821,-11.65058 v 11.65058 z m 24.14135,-1.61813 v 1.61813 h -9.06157 q 0,-0.59746 0.19916,-1.17003 0.34852,-0.9211 1.09535,-1.81729 0.77173,-0.8962 2.21561,-2.06624 2.24049,-1.84218 3.01222,-2.91264 0.79662,-1.07046 0.79662,-2.01645 0,-0.99578 -0.72194,-1.66793 -0.72194,-0.69704 -1.86708,-0.69704 -1.21982,0 -1.94176,0.72194 -0.72194,0.72194 -0.74683,2.01645 l -1.71772,-0.17427 q 0.17426,-1.94176 1.31941,-2.93753 1.17003,-1.02068 3.13669,-1.02068 1.96666,0 3.1118,1.09536 1.14514,1.09535 1.14514,2.71349 0,0.82151 -0.34852,1.61813 -0.32363,0.77173 -1.12025,1.66793 -0.77172,0.8713 -2.56412,2.38986 -1.51856,1.26962 -1.96666,1.74261 -0.4232,0.4481 -0.69704,0.8962 z m 1.59635,-2.48944 v -1.69282 h 5.17804 v 1.69282 z"
       id="path95"
       inkscape:connector-curvature="0"
       style="fill:#000000;fill-rule:nonzero;stroke-width:1.59324169" />
    <path
       d="m 653.63596,524.29792 205.75884,1.72583"
       id="path97"
       inkscape:connector-curvature="0"
       style="fill:#000000;fill-opacity:0;fill-rule:evenodd;stroke-width:1.59324169" />
    <path
       d="m 653.63596,524.29785 200.29878,1.68008"
       id="path99"
       inkscape:connector-curvature="0"
       style="fill-rule:evenodd;stroke:#000000;stroke-width:1.59324169;stroke-linecap:butt;stroke-linejoin:round" />
    <path
       d="m 853.93487,525.97799 -1.80669,1.77664 4.93755,-1.75038 -4.9075,-1.833 z"
       id="path101"
       inkscape:connector-curvature="0"
       style="fill:#000000;fill-rule:evenodd;stroke:#000000;stroke-width:1.59324169;stroke-linecap:butt" />
    <path
       d="m 494.59539,246.39183 h 96.72087 v 127.44732 h -96.72087 z"
       id="path103"
       inkscape:connector-curvature="0"
       style="fill:#ffffff;fill-rule:evenodd;stroke-width:1.59324169" />
    <path
       d="m 494.59539,246.39183 h 96.72087 v 127.44732 h -96.72087 z"
       id="path105"
       inkscape:connector-curvature="0"
       style="fill-rule:evenodd;stroke:#f79646;stroke-width:4.24864435;stroke-linecap:butt;stroke-linejoin:round;stroke-dasharray:16.99457771, 12.74593328" />
    <path
       d="m 545.1507,316.61592 h -2.04134 v -13.06956 q -0.74684,0.69704 -1.94177,1.41898 -1.19493,0.69704 -2.16581,1.04556 v -1.99155 q 1.71771,-0.79662 3.01222,-1.94176 1.29451,-1.17004 1.81729,-2.2405 h 1.31941 z"
       id="path107"
       inkscape:connector-curvature="0"
       style="fill:#000000;fill-rule:nonzero;stroke-width:1.59324169" />
    <path
       d="m 434.09086,269.40324 h 60.50453"
       id="path109"
       inkscape:connector-curvature="0"
       style="fill:#000000;fill-opacity:0;fill-rule:evenodd;stroke-width:1.59324169" />
    <path
       d="m 434.09086,269.40324 h 60.50453"
       id="path111"
       inkscape:connector-curvature="0"
       style="fill-rule:evenodd;stroke:#4a7dba;stroke-width:1.59324169;stroke-linecap:butt;stroke-linejoin:round;stroke-dasharray:1.59324166, 4.77972498" />
    <path
       d="m 434.09086,354.36813 h 60.41817"
       id="path113"
       inkscape:connector-curvature="0"
       style="fill:#000000;fill-opacity:0;fill-rule:evenodd;stroke-width:1.59324169" />
    <path
       d="m 434.09086,354.36813 h 60.41817"
       id="path115"
       inkscape:connector-curvature="0"
       style="fill-rule:evenodd;stroke:#4a7dba;stroke-width:1.59324169;stroke-linecap:butt;stroke-linejoin:round;stroke-dasharray:1.59324166, 4.77972498" />
    <path
       d="m 593.13141,278.25364 h 60.41822"
       id="path117"
       inkscape:connector-curvature="0"
       style="fill:#000000;fill-opacity:0;fill-rule:evenodd;stroke-width:1.59324169" />
    <path
       d="m 593.13141,278.25364 h 60.41822"
       id="path119"
       inkscape:connector-curvature="0"
       style="fill-rule:evenodd;stroke:#4a7dba;stroke-width:1.59324169;stroke-linecap:butt;stroke-linejoin:round;stroke-dasharray:1.59324166, 4.77972498" />
    <path
       d="m 593.13141,364.98873 h 60.41822"
       id="path121"
       inkscape:connector-curvature="0"
       style="fill:#000000;fill-opacity:0;fill-rule:evenodd;stroke-width:1.59324169" />
    <path
       d="m 593.13141,364.98873 h 60.41822"
       id="path123"
       inkscape:connector-curvature="0"
       style="fill-rule:evenodd;stroke:#4a7dba;stroke-width:1.59324169;stroke-linecap:butt;stroke-linejoin:round;stroke-dasharray:1.59324166, 4.77972498" />
    <path
       d="M 825.78906,220.98524 H 1107.582 V 269.1366 H 825.78906 Z"
       id="path125"
       inkscape:connector-curvature="0"
       style="fill:#ffffff;fill-rule:evenodd;stroke-width:1.59324169" />
    <path
       stroke-miterlimit="800.0"
       d="M 825.78906,220.98524 H 1107.582 V 269.1366 H 825.78906 Z"
       id="path127"
       inkscape:connector-curvature="0"
       style="fill-rule:evenodd;stroke:#000000;stroke-width:1.59324169;stroke-linecap:butt;stroke-miterlimit:800" />
    <path
       d="m 841.92063,249.79108 v -16.70415 h 6.32318 q 1.66793,0 2.53923,0.14937 1.21983,0.19916 2.04134,0.77173 0.84641,0.57257 1.3443,1.61813 0.52278,1.04557 0.52278,2.29029 0,2.11602 -1.36919,3.60969 -1.3443,1.46877 -4.9042,1.46877 h -4.28183 v 6.79617 z m 2.21561,-8.76283 h 4.33162 q 2.14092,0 3.03712,-0.79662 0.8962,-0.79662 0.8962,-2.2405 0,-1.07046 -0.52279,-1.81729 -0.52278,-0.74683 -1.39408,-0.97088 -0.57257,-0.14937 -2.06624,-0.14937 h -4.28183 z m 13.1104,-5.60124 v -2.34008 h 2.06623 v 2.34008 z m 0,14.36407 V 237.6924 h 2.06623 v 12.09868 z m 5.18776,0 V 237.6924 h 1.84218 v 1.71771 q 1.3443,-1.99155 3.85864,-1.99155 1.09535,0 2.01644,0.39831 0.9211,0.37342 1.3692,1.02067 0.44809,0.64726 0.64725,1.51856 0.0996,0.57257 0.0996,1.99155 v 7.44343 h -2.04134 v -7.36875 q 0,-1.24472 -0.24895,-1.86708 -0.24894,-0.62236 -0.8713,-0.99577 -0.59747,-0.37342 -1.41898,-0.37342 -1.29451,0 -2.26539,0.84641 -0.94599,0.82152 -0.94599,3.1367 v 6.62191 z m 25.47388,0 v -4.008 H 880.664 V 243.916 l 7.61769,-10.82907 h 1.69282 V 243.916 h 2.2405 v 1.86708 h -2.2405 v 4.008 z m 0,-5.87508 v -7.543 l -5.22783,7.543 z m 11.88153,0.64725 v -1.64303 h 12.99488 v 1.64303 z m 20.56968,-0.14936 2.09113,-0.17426 q 0.14936,1.24472 0.67215,2.06623 0.54767,0.79662 1.69282,1.29451 1.14514,0.49789 2.56412,0.49789 1.26961,0 2.2405,-0.37342 0.97088,-0.37341 1.44387,-1.02067 0.47299,-0.67215 0.47299,-1.44387 0,-0.79662 -0.47299,-1.3692 -0.4481,-0.59746 -1.49366,-0.99577 -0.67215,-0.27384 -2.98733,-0.82152 -2.29029,-0.54767 -3.21138,-1.04556 -1.19493,-0.62236 -1.7924,-1.54345 -0.57257,-0.94599 -0.57257,-2.09113 0,-1.26962 0.69705,-2.36497 0.72193,-1.09536 2.09113,-1.66793 1.39408,-0.57257 3.0869,-0.57257 1.86708,0 3.28606,0.59747 1.41898,0.59746 2.16582,1.7675 0.77172,1.17004 0.82151,2.63881 l -2.11602,0.14936 q -0.17426,-1.59324 -1.17004,-2.38986 -0.97088,-0.82152 -2.88775,-0.82152 -2.01645,0 -2.93754,0.74684 -0.92109,0.74683 -0.92109,1.7675 0,0.8962 0.67215,1.49366 0.62236,0.57257 3.31095,1.19493 2.71349,0.59747 3.70927,1.04557 1.46877,0.67215 2.16581,1.71771 0.69704,1.02067 0.69704,2.36497 0,1.3443 -0.77172,2.53923 -0.77173,1.17004 -2.2156,1.81729 -1.41899,0.64726 -3.21138,0.64726 -2.26539,0 -3.80885,-0.64726 -1.51855,-0.67215 -2.38986,-1.99155 -0.8713,-1.3194 -0.92109,-3.01222 z m 23.21753,5.37719 h -2.04134 v -13.06956 q -0.74683,0.69704 -1.94177,1.41898 -1.19493,0.69704 -2.16581,1.04556 v -1.99155 q 1.71772,-0.79662 3.01222,-1.94176 1.29451,-1.17004 1.8173,-2.2405 h 1.3194 z m 6.3648,-9.7835 v -2.31518 h 2.34007 v 2.31518 z m 0,9.7835 V 247.451 h 2.34007 v 2.34008 q 0,1.29451 -0.4481,2.06623 -0.4481,0.79662 -1.44387,1.24472 l -0.57258,-0.8713 q 0.64726,-0.29873 0.94599,-0.84641 0.32363,-0.54768 0.34852,-1.59324 z m 11.95456,-5.37719 2.09113,-0.17426 q 0.14937,1.24472 0.67215,2.06623 0.54768,0.79662 1.69282,1.29451 1.14514,0.49789 2.56412,0.49789 1.26962,0 2.2405,-0.37342 0.97088,-0.37341 1.44387,-1.02067 0.473,-0.67215 0.473,-1.44387 0,-0.79662 -0.473,-1.3692 -0.4481,-0.59746 -1.49366,-0.99577 -0.67215,-0.27384 -2.98733,-0.82152 -2.29028,-0.54767 -3.21138,-1.04556 -1.19493,-0.62236 -1.79239,-1.54345 -0.57258,-0.94599 -0.57258,-2.09113 0,-1.26962 0.69705,-2.36497 0.72194,-1.09536 2.09113,-1.66793 1.39408,-0.57257 3.0869,-0.57257 1.86708,0 3.28606,0.59747 1.41899,0.59746 2.16582,1.7675 0.77172,1.17004 0.82151,2.63881 l -2.11602,0.14936 q -0.17426,-1.59324 -1.17004,-2.38986 -0.97088,-0.82152 -2.88775,-0.82152 -2.01645,0 -2.93754,0.74684 -0.92109,0.74683 -0.92109,1.7675 0,0.8962 0.67215,1.49366 0.62236,0.57257 3.31095,1.19493 2.71349,0.59747 3.70927,1.04557 1.46877,0.67215 2.16581,1.71771 0.69705,1.02067 0.69705,2.36497 0,1.3443 -0.77173,2.53923 -0.77173,1.17004 -2.2156,1.81729 -1.41898,0.64726 -3.21138,0.64726 -2.26539,0 -3.80884,-0.64726 -1.51856,-0.67215 -2.38987,-1.99155 -0.8713,-1.3194 -0.92109,-3.01222 z m 26.27954,3.41053 v 1.96666 h -11.05311 q -0.0249,-0.74683 0.24894,-1.41898 0.42321,-1.14515 1.3443,-2.2405 0.94599,-1.09535 2.68859,-2.51433 2.73839,-2.2405 3.68438,-3.53501 0.97088,-1.3194 0.97088,-2.48944 0,-1.21982 -0.8962,-2.04134 -0.8713,-0.84641 -2.26539,-0.84641 -1.46877,0 -2.36497,0.8962 -0.8962,0.8962 -0.8962,2.46454 l -2.11602,-0.22405 q 0.22405,-2.36496 1.61813,-3.58479 1.41899,-1.24472 3.80885,-1.24472 2.41475,0 3.80884,1.3443 1.39409,1.3194 1.39409,3.28606 0,1.02067 -0.42321,1.99155 -0.39831,0.94599 -1.34429,2.01645 -0.94599,1.07046 -3.16159,2.96243 -1.84219,1.54345 -2.36497,2.09113 -0.52278,0.54768 -0.87131,1.12025 z m 3.30269,-7.81684 v -2.31518 h 2.34008 v 2.31518 z m 0,9.7835 V 247.451 h 2.34008 v 2.34008 q 0,1.29451 -0.4481,2.06623 -0.4481,0.79662 -1.44388,1.24472 l -0.57257,-0.8713 q 0.64725,-0.29873 0.94599,-0.84641 0.32362,-0.54768 0.34852,-1.59324 z m 12.75129,0 v -16.70415 h 12.0987 v 1.96666 h -9.8831 v 5.10335 h 9.2358 v 1.96666 h -9.2358 v 5.70082 h 10.2565 v 1.96666 z m 22.4208,0 h -2.0413 v -13.06956 q -0.7469,0.69704 -1.9418,1.41898 -1.1949,0.69704 -2.1658,1.04556 v -1.99155 q 1.7177,-0.79662 3.0122,-1.94176 1.2945,-1.17004 1.8173,-2.2405 h 1.3194 z m 12.2301,4.65525 -0.2241,-1.91687 q 0.6722,0.17426 1.17,0.17426 0.6971,0 1.0954,-0.22405 0.4232,-0.22405 0.6722,-0.64725 0.1991,-0.29873 0.6223,-1.51856 0.075,-0.17426 0.1992,-0.49789 l -4.6055,-12.12357 h 2.2156 l 2.5143,6.99532 q 0.4979,1.3443 0.8713,2.81307 0.3735,-1.41898 0.8465,-2.76328 l 2.589,-7.04511 h 2.0662 l -4.6055,12.29783 q -0.7468,1.99155 -1.17,2.76328 -0.5477,0.99578 -1.2447,1.46877 -0.6971,0.47299 -1.6928,0.47299 -0.5975,0 -1.3194,-0.24894 z m 18.5615,-4.65525 v -16.70415 h 12.0986 v 1.96666 h -9.883 v 5.10335 h 9.2358 v 1.96666 h -9.2358 v 5.70082 h 10.2565 v 1.96666 z m 25.4828,-1.96666 v 1.96666 h -11.0531 q -0.025,-0.74683 0.2489,-1.41898 0.4232,-1.14515 1.3443,-2.2405 0.946,-1.09535 2.6886,-2.51433 2.7384,-2.2405 3.6844,-3.53501 0.9709,-1.3194 0.9709,-2.48944 0,-1.21982 -0.8962,-2.04134 -0.8713,-0.84641 -2.2654,-0.84641 -1.4688,0 -2.365,0.8962 -0.8962,0.8962 -0.8962,2.46454 l -2.116,-0.22405 q 0.224,-2.36496 1.6181,-3.58479 1.419,-1.24472 3.8089,-1.24472 2.4147,0 3.8088,1.3443 1.3941,1.3194 1.3941,3.28606 0,1.02067 -0.4232,1.99155 -0.3983,0.94599 -1.3443,2.01645 -0.946,1.07046 -3.1616,2.96243 -1.8422,1.54345 -2.365,2.09113 -0.5228,0.54768 -0.8713,1.12025 z"
       id="path129"
       inkscape:connector-curvature="0"
       style="fill:#000000;fill-rule:nonzero;stroke-width:1.59324169" />
    <path
       d="M 825.78906,308.2459 H 1107.582 v 48.15117 H 825.78906 Z"
       id="path131"
       inkscape:connector-curvature="0"
       style="fill:#ffffff;fill-rule:evenodd;stroke-width:1.59324169" />
    <path
       stroke-miterlimit="800.0"
       d="M 825.78906,308.2459 H 1107.582 v 48.15117 H 825.78906 Z"
       id="path133"
       inkscape:connector-curvature="0"
       style="fill-rule:evenodd;stroke:#000000;stroke-width:1.59324169;stroke-linecap:butt;stroke-miterlimit:800" />
    <path
       d="m 841.92063,337.05171 v -16.70414 h 6.32318 q 1.66793,0 2.53923,0.14937 1.21983,0.19915 2.04134,0.77172 0.84641,0.57257 1.3443,1.61814 0.52278,1.04556 0.52278,2.29028 0,2.11603 -1.36919,3.60969 -1.3443,1.46877 -4.9042,1.46877 h -4.28183 v 6.79617 z m 2.21561,-8.76283 h 4.33162 q 2.14092,0 3.03712,-0.79662 0.8962,-0.79662 0.8962,-2.24049 0,-1.07046 -0.52279,-1.8173 -0.52278,-0.74683 -1.39408,-0.97088 -0.57257,-0.14936 -2.06624,-0.14936 h -4.28183 z m 13.1104,-5.60124 v -2.34007 h 2.06623 v 2.34007 z m 0,14.36407 v -12.09868 h 2.06623 v 12.09868 z m 5.18776,0 v -12.09868 h 1.84218 v 1.71772 q 1.3443,-1.99156 3.85864,-1.99156 1.09535,0 2.01644,0.39832 0.9211,0.37341 1.3692,1.02067 0.44809,0.64725 0.64725,1.51855 0.0996,0.57258 0.0996,1.99156 v 7.44342 h -2.04134 v -7.36874 q 0,-1.24472 -0.24895,-1.86708 -0.24894,-0.62236 -0.8713,-0.99578 -0.59747,-0.37341 -1.41898,-0.37341 -1.29451,0 -2.26539,0.84641 -0.94599,0.82151 -0.94599,3.13669 v 6.62191 z m 29.55656,-12.62146 -2.04134,0.14937 q -0.27384,-1.19493 -0.77173,-1.74261 -0.84641,-0.8713 -2.06624,-0.8713 -0.97088,0 -1.71771,0.54767 -0.97088,0.69705 -1.54345,2.06624 -0.54768,1.34429 -0.57257,3.85863 0.74683,-1.14514 1.81729,-1.69282 1.07046,-0.54768 2.24049,-0.54768 2.06624,0 3.51011,1.51856 1.44388,1.51856 1.44388,3.90842 0,1.56835 -0.69704,2.93754 -0.67215,1.3443 -1.86708,2.06624 -1.17004,0.69704 -2.6886,0.69704 -2.56412,0 -4.18226,-1.86708 -1.61813,-1.89197 -1.61813,-6.2236 0,-4.85441 1.79239,-7.04512 1.56835,-1.91686 4.20716,-1.91686 1.96665,0 3.23627,1.12024 1.26961,1.09536 1.51856,3.03712 z m -8.38942,7.19448 q 0,1.07046 0.4481,2.04134 0.4481,0.97089 1.24472,1.49367 0.82152,0.49789 1.71772,0.49789 1.29451,0 2.2156,-1.04557 0.94599,-1.07046 0.94599,-2.86286 0,-1.7426 -0.9211,-2.73838 -0.92109,-0.99578 -2.31518,-0.99578 -1.39408,0 -2.36496,0.99578 -0.97089,0.99578 -0.97089,2.61391 z m 16.18827,0.19916 v -1.64303 h 12.99488 v 1.64303 z m 20.56968,-0.14937 2.09113,-0.17426 q 0.14936,1.24472 0.67215,2.06624 0.54767,0.79662 1.69282,1.2945 1.14514,0.49789 2.56412,0.49789 1.26961,0 2.2405,-0.37341 0.97088,-0.37342 1.44387,-1.02067 0.47299,-0.67215 0.47299,-1.44388 0,-0.79662 -0.47299,-1.36919 -0.4481,-0.59747 -1.49366,-0.99578 -0.67215,-0.27384 -2.98733,-0.82151 -2.29029,-0.54768 -3.21138,-1.04557 -1.19493,-0.62236 -1.7924,-1.54345 -0.57257,-0.94599 -0.57257,-2.09113 0,-1.26961 0.69705,-2.36497 0.72193,-1.09535 2.09113,-1.66792 1.39408,-0.57257 3.0869,-0.57257 1.86708,0 3.28606,0.59746 1.41898,0.59747 2.16581,1.7675 0.77173,1.17004 0.82152,2.63881 l -2.11602,0.14937 q -0.17426,-1.59324 -1.17004,-2.38987 -0.97088,-0.82151 -2.88775,-0.82151 -2.01645,0 -2.93754,0.74683 -0.92109,0.74683 -0.92109,1.7675 0,0.8962 0.67215,1.49367 0.62236,0.57257 3.31095,1.19493 2.71349,0.59746 3.70927,1.04556 1.46877,0.67215 2.16581,1.71772 0.69704,1.02067 0.69704,2.36497 0,1.34429 -0.77172,2.53922 -0.77173,1.17004 -2.21561,1.8173 -1.41898,0.64725 -3.21137,0.64725 -2.26539,0 -3.80885,-0.64725 -1.51856,-0.67215 -2.38986,-1.99156 -0.8713,-1.3194 -0.92109,-3.01222 z m 23.21753,5.37719 h -2.04134 v -13.06956 q -0.74684,0.69704 -1.94177,1.41898 -1.19493,0.69705 -2.16581,1.04557 v -1.99155 q 1.71771,-0.79663 3.01222,-1.94177 1.29451,-1.17003 1.81729,-2.24049 h 1.31941 z m 6.3648,-9.7835 v -2.31518 h 2.34007 v 2.31518 z m 0,9.7835 v -2.34007 h 2.34007 v 2.34007 q 0,1.29451 -0.4481,2.06624 -0.4481,0.79662 -1.44387,1.24472 l -0.57258,-0.87131 q 0.64726,-0.29873 0.94599,-0.84641 0.32363,-0.54767 0.34852,-1.59324 z m 11.95456,-5.37719 2.09113,-0.17426 q 0.14937,1.24472 0.67215,2.06624 0.54768,0.79662 1.69282,1.2945 1.14514,0.49789 2.56412,0.49789 1.26962,0 2.2405,-0.37341 0.97088,-0.37342 1.44387,-1.02067 0.473,-0.67215 0.473,-1.44388 0,-0.79662 -0.473,-1.36919 -0.4481,-0.59747 -1.49366,-0.99578 -0.67215,-0.27384 -2.98733,-0.82151 -2.29028,-0.54768 -3.21138,-1.04557 -1.19493,-0.62236 -1.79239,-1.54345 -0.57258,-0.94599 -0.57258,-2.09113 0,-1.26961 0.69705,-2.36497 0.72194,-1.09535 2.09113,-1.66792 1.39408,-0.57257 3.0869,-0.57257 1.86708,0 3.28606,0.59746 1.41898,0.59747 2.16582,1.7675 0.77172,1.17004 0.82151,2.63881 l -2.11602,0.14937 q -0.17426,-1.59324 -1.17004,-2.38987 -0.97088,-0.82151 -2.88775,-0.82151 -2.01645,0 -2.93754,0.74683 -0.92109,0.74683 -0.92109,1.7675 0,0.8962 0.67215,1.49367 0.62236,0.57257 3.31095,1.19493 2.71349,0.59746 3.70927,1.04556 1.46877,0.67215 2.16581,1.71772 0.69704,1.02067 0.69704,2.36497 0,1.34429 -0.77172,2.53922 -0.77173,1.17004 -2.2156,1.8173 -1.41898,0.64725 -3.21138,0.64725 -2.26539,0 -3.80884,-0.64725 -1.51856,-0.67215 -2.38987,-1.99156 -0.8713,-1.3194 -0.92109,-3.01222 z m 26.27954,3.41053 v 1.96666 h -11.05311 q -0.0249,-0.74683 0.24894,-1.41898 0.42321,-1.14514 1.3443,-2.24049 0.94599,-1.09536 2.68859,-2.51434 2.73839,-2.2405 3.68438,-3.535 0.97088,-1.31941 0.97088,-2.48944 0,-1.21983 -0.8962,-2.04135 -0.87131,-0.8464 -2.26539,-0.8464 -1.46877,0 -2.36497,0.89619 -0.8962,0.8962 -0.8962,2.46455 l -2.11602,-0.22405 q 0.22405,-2.36497 1.61813,-3.58479 1.41898,-1.24472 3.80885,-1.24472 2.41475,0 3.80884,1.34429 1.39409,1.31941 1.39409,3.28606 0,1.02067 -0.42321,1.99156 -0.39831,0.94598 -1.3443,2.01644 -0.94598,1.07046 -3.16158,2.96244 -1.84219,1.54345 -2.36497,2.09113 -0.52279,0.54767 -0.87131,1.12024 z m 3.30269,-7.81684 v -2.31518 h 2.34007 v 2.31518 z m 0,9.7835 v -2.34007 h 2.34007 v 2.34007 q 0,1.29451 -0.44809,2.06624 -0.4481,0.79662 -1.44388,1.24472 l -0.57257,-0.87131 q 0.64725,-0.29873 0.94599,-0.84641 0.32362,-0.54767 0.34852,-1.59324 z m 12.75129,0 v -16.70414 h 12.0987 v 1.96666 h -9.8831 v 5.10335 h 9.2358 v 1.96666 h -9.2358 v 5.70081 h 10.2565 v 1.96666 z m 22.4208,0 h -2.0413 v -13.06956 q -0.7469,0.69704 -1.9418,1.41898 -1.1949,0.69705 -2.1658,1.04557 v -1.99155 q 1.7177,-0.79663 3.0122,-1.94177 1.2945,-1.17003 1.8173,-2.24049 h 1.3194 z m 12.2301,4.65526 -0.2241,-1.91687 q 0.6722,0.17426 1.17,0.17426 0.6971,0 1.0954,-0.22405 0.4232,-0.22405 0.6721,-0.64726 0.1992,-0.29873 0.6224,-1.51856 0.075,-0.17426 0.1992,-0.49788 l -4.6055,-12.12358 h 2.2156 l 2.5143,6.99533 q 0.4979,1.3443 0.8713,2.81307 0.3735,-1.41898 0.8465,-2.76328 l 2.589,-7.04512 h 2.0662 l -4.6055,12.29784 q -0.7468,1.99155 -1.17,2.76328 -0.5477,0.99577 -1.2447,1.46877 -0.6971,0.47299 -1.6928,0.47299 -0.5975,0 -1.3194,-0.24894 z m 18.5615,-4.65526 v -16.70414 h 12.0986 v 1.96666 h -9.883 v 5.10335 h 9.2358 v 1.96666 h -9.2358 v 5.70081 h 10.2565 v 1.96666 z m 25.4828,-1.96666 v 1.96666 h -11.0531 q -0.025,-0.74683 0.2489,-1.41898 0.4232,-1.14514 1.3443,-2.24049 0.946,-1.09536 2.6886,-2.51434 2.7384,-2.2405 3.6844,-3.535 0.9709,-1.31941 0.9709,-2.48944 0,-1.21983 -0.8962,-2.04135 -0.8713,-0.8464 -2.2654,-0.8464 -1.4688,0 -2.365,0.89619 -0.8962,0.8962 -0.8962,2.46455 l -2.116,-0.22405 q 0.224,-2.36497 1.6181,-3.58479 1.419,-1.24472 3.8089,-1.24472 2.4147,0 3.8088,1.34429 1.3941,1.31941 1.3941,3.28606 0,1.02067 -0.4232,1.99156 -0.3983,0.94598 -1.3443,2.01644 -0.946,1.07046 -3.1616,2.96244 -1.8422,1.54345 -2.365,2.09113 -0.5228,0.54767 -0.8713,1.12024 z"
       id="path135"
       inkscape:connector-curvature="0"
       style="fill:#000000;fill-rule:nonzero;stroke-width:1.59324169" />
    <path
       d="M 825.78906,377.85823 H 1108.9981 V 426.0096 H 825.78906 Z"
       id="path137"
       inkscape:connector-curvature="0"
       style="fill:#ffffff;fill-rule:evenodd;stroke-width:1.59324169" />
    <path
       stroke-miterlimit="800.0"
       d="M 825.78906,377.85823 H 1108.9981 V 426.0096 H 825.78906 Z"
       id="path139"
       inkscape:connector-curvature="0"
       style="fill-rule:evenodd;stroke:#000000;stroke-width:1.59324169;stroke-linecap:butt;stroke-miterlimit:800" />
    <path
       d="m 841.92063,406.66407 v -16.70414 h 6.32318 q 1.66793,0 2.53923,0.14937 1.21983,0.19915 2.04134,0.77172 0.84641,0.57257 1.3443,1.61814 0.52278,1.04556 0.52278,2.29028 0,2.11603 -1.36919,3.60969 -1.3443,1.46877 -4.9042,1.46877 h -4.28183 v 6.79617 z m 2.21561,-8.76283 h 4.33162 q 2.14092,0 3.03712,-0.79662 0.8962,-0.79662 0.8962,-2.24049 0,-1.07046 -0.52279,-1.81729 -0.52278,-0.74684 -1.39408,-0.97089 -0.57257,-0.14936 -2.06624,-0.14936 h -4.28183 z M 857.24664,392.3 v -2.34007 h 2.06623 V 392.3 Z m 0,14.36407 v -12.09868 h 2.06623 v 12.09868 z m 5.18776,0 v -12.09868 h 1.84218 v 1.71772 q 1.3443,-1.99155 3.85864,-1.99155 1.09535,0 2.01644,0.39831 0.9211,0.37341 1.3692,1.02067 0.44809,0.64725 0.64725,1.51855 0.0996,0.57258 0.0996,1.99156 v 7.44342 h -2.04134 v -7.36874 q 0,-1.24472 -0.24895,-1.86708 -0.24894,-0.62236 -0.8713,-0.99578 -0.59747,-0.37341 -1.41898,-0.37341 -1.29451,0 -2.26539,0.84641 -0.94599,0.82151 -0.94599,3.13669 v 6.62191 z m 25.47388,0 v -4.008 H 880.664 v -1.86708 l 7.61769,-10.82906 h 1.69282 v 10.82906 h 2.2405 v 1.86708 h -2.2405 v 4.008 z m 0,-5.87508 v -7.543 l -5.22783,7.543 z m 11.88153,0.64726 v -1.64303 h 12.99488 v 1.64303 z m 20.56968,-0.14937 2.09113,-0.17426 q 0.14936,1.24472 0.67215,2.06624 0.54767,0.79662 1.69282,1.29451 1.14514,0.49788 2.56412,0.49788 1.26961,0 2.2405,-0.37341 0.97088,-0.37342 1.44387,-1.02067 0.47299,-0.67215 0.47299,-1.44388 0,-0.79662 -0.47299,-1.36919 -0.4481,-0.59747 -1.49366,-0.99578 -0.67215,-0.27383 -2.98733,-0.82151 -2.29029,-0.54768 -3.21138,-1.04557 -1.19493,-0.62236 -1.7924,-1.54345 -0.57257,-0.94599 -0.57257,-2.09113 0,-1.26961 0.69705,-2.36497 0.72193,-1.09535 2.09113,-1.66792 1.39408,-0.57257 3.0869,-0.57257 1.86708,0 3.28606,0.59746 1.41898,0.59747 2.16582,1.76751 0.77172,1.17003 0.82151,2.6388 l -2.11602,0.14937 q -0.17426,-1.59324 -1.17004,-2.38986 -0.97088,-0.82152 -2.88775,-0.82152 -2.01645,0 -2.93754,0.74683 -0.92109,0.74683 -0.92109,1.7675 0,0.8962 0.67215,1.49367 0.62236,0.57257 3.31095,1.19493 2.71349,0.59747 3.70927,1.04556 1.46877,0.67215 2.16581,1.71772 0.69704,1.02067 0.69704,2.36497 0,1.34429 -0.77172,2.53923 -0.77173,1.17003 -2.2156,1.81729 -1.41899,0.64725 -3.21138,0.64725 -2.26539,0 -3.80885,-0.64725 -1.51855,-0.67215 -2.38986,-1.99156 -0.8713,-1.3194 -0.92109,-3.01222 z m 15.50026,0.97088 2.06624,-0.27383 q 0.34852,1.7426 1.19493,2.51433 0.84641,0.77173 2.06624,0.77173 1.44387,0 2.43965,-0.99578 1.02067,-1.02067 1.02067,-2.48944 0,-1.41898 -0.94599,-2.34007 -0.92109,-0.9211 -2.34007,-0.9211 -0.57257,0 -1.44388,0.22405 l 0.22405,-1.79239 q 0.19916,0.0249 0.32363,0.0249 1.3194,0 2.36497,-0.67215 1.04556,-0.69704 1.04556,-2.14092 0,-1.12024 -0.77172,-1.84218 -0.74684,-0.74683 -1.96666,-0.74683 -1.19493,0 -1.99155,0.74683 -0.79663,0.74683 -1.02068,2.26539 l -2.04134,-0.37342 q 0.37342,-2.06623 1.69282,-3.18648 1.3443,-1.14514 3.33585,-1.14514 1.3692,0 2.51434,0.59746 1.14514,0.57257 1.74261,1.59324 0.62236,1.02067 0.62236,2.14092 0,1.09536 -0.59747,1.99155 -0.57257,0.87131 -1.69282,1.39409 1.46877,0.34852 2.29029,1.44388 0.82151,1.07046 0.82151,2.68859 0,2.19071 -1.59324,3.70927 -1.59324,1.51856 -4.03289,1.51856 -2.21561,0 -3.65948,-1.29451 -1.44388,-1.31941 -1.66793,-3.41054 z m 14.08207,-5.37719 v -2.31518 h 2.34007 v 2.31518 z m 0,9.7835 V 404.324 h 2.34007 v 2.34007 q 0,1.29451 -0.4481,2.06624 -0.4481,0.79662 -1.44387,1.24472 l -0.57258,-0.87131 q 0.64726,-0.29873 0.94599,-0.84641 0.32363,-0.54767 0.34852,-1.59324 z m 11.95456,-5.37719 2.09113,-0.17426 q 0.14937,1.24472 0.67215,2.06624 0.54768,0.79662 1.69282,1.29451 1.14514,0.49788 2.56412,0.49788 1.26962,0 2.2405,-0.37341 0.97088,-0.37342 1.44387,-1.02067 0.473,-0.67215 0.473,-1.44388 0,-0.79662 -0.473,-1.36919 -0.4481,-0.59747 -1.49366,-0.99578 -0.67215,-0.27383 -2.98733,-0.82151 -2.29028,-0.54768 -3.21138,-1.04557 -1.19493,-0.62236 -1.79239,-1.54345 -0.57258,-0.94599 -0.57258,-2.09113 0,-1.26961 0.69705,-2.36497 0.72194,-1.09535 2.09113,-1.66792 1.39408,-0.57257 3.0869,-0.57257 1.86708,0 3.28606,0.59746 1.41899,0.59747 2.16582,1.76751 0.77172,1.17003 0.82151,2.6388 l -2.11602,0.14937 q -0.17426,-1.59324 -1.17004,-2.38986 -0.97088,-0.82152 -2.88775,-0.82152 -2.01645,0 -2.93754,0.74683 -0.92109,0.74683 -0.92109,1.7675 0,0.8962 0.67215,1.49367 0.62236,0.57257 3.31095,1.19493 2.71349,0.59747 3.70927,1.04556 1.46877,0.67215 2.16581,1.71772 0.69705,1.02067 0.69705,2.36497 0,1.34429 -0.77173,2.53923 -0.77173,1.17003 -2.2156,1.81729 -1.41898,0.64725 -3.21138,0.64725 -2.26539,0 -3.80884,-0.64725 -1.51856,-0.67215 -2.38987,-1.99156 -0.8713,-1.3194 -0.92109,-3.01222 z m 22.07239,5.37719 v -4.008 h -7.24427 v -1.86708 l 7.61768,-10.82906 h 1.69282 v 10.82906 h 2.2405 v 1.86708 h -2.2405 v 4.008 z m 0,-5.87508 v -7.543 l -5.22783,7.543 z m 7.50984,-3.90842 v -2.31518 h 2.34008 v 2.31518 z m 0,9.7835 V 404.324 h 2.34008 v 2.34007 q 0,1.29451 -0.4481,2.06624 -0.4481,0.79662 -1.44388,1.24472 l -0.57257,-0.87131 q 0.64725,-0.29873 0.94599,-0.84641 0.32362,-0.54767 0.34852,-1.59324 z m 12.75129,0 v -16.70414 h 12.0987 v 1.96666 h -9.8831 v 5.10335 h 9.2358 v 1.96666 h -9.2358 v 5.70082 h 10.2565 v 1.96665 z m 14.7035,-4.40631 2.0663,-0.27383 q 0.3485,1.7426 1.1949,2.51433 0.8464,0.77173 2.0662,0.77173 1.4439,0 2.4397,-0.99578 1.0207,-1.02067 1.0207,-2.48944 0,-1.41898 -0.946,-2.34007 -0.9211,-0.9211 -2.3401,-0.9211 -0.5726,0 -1.4439,0.22405 l 0.2241,-1.79239 q 0.1991,0.0249 0.3236,0.0249 1.3194,0 2.365,-0.67215 1.0455,-0.69704 1.0455,-2.14092 0,-1.12024 -0.7717,-1.84218 -0.7468,-0.74683 -1.9666,-0.74683 -1.195,0 -1.9916,0.74683 -0.7966,0.74683 -1.0207,2.26539 l -2.0413,-0.37342 q 0.3734,-2.06623 1.6928,-3.18648 1.3443,-1.14514 3.3359,-1.14514 1.3692,0 2.5143,0.59746 1.1451,0.57257 1.7426,1.59324 0.6224,1.02067 0.6224,2.14092 0,1.09536 -0.5975,1.99155 -0.5726,0.87131 -1.6928,1.39409 1.4687,0.34852 2.2903,1.44388 0.8215,1.07046 0.8215,2.68859 0,2.19071 -1.5933,3.70927 -1.5932,1.51856 -4.0329,1.51856 -2.2156,0 -3.6594,-1.29451 -1.4439,-1.31941 -1.668,-3.41054 z m 19.9474,9.06157 -0.2241,-1.91687 q 0.6722,0.17426 1.17,0.17426 0.6971,0 1.0954,-0.22405 0.4232,-0.22405 0.6722,-0.64726 0.1991,-0.29873 0.6223,-1.51855 0.075,-0.17427 0.1992,-0.49789 l -4.6055,-12.12358 h 2.2156 l 2.5143,6.99533 q 0.4979,1.3443 0.8713,2.81307 0.3735,-1.41898 0.8465,-2.76328 l 2.589,-7.04512 h 2.0662 l -4.6055,12.29784 q -0.7468,1.99155 -1.17,2.76328 -0.5477,0.99577 -1.2447,1.46877 -0.6971,0.47299 -1.6928,0.47299 -0.5975,0 -1.3194,-0.24894 z m 18.5615,-4.65526 v -16.70414 h 12.0986 v 1.96666 h -9.883 v 5.10335 h 9.2358 v 1.96666 h -9.2358 v 5.70082 h 10.2565 v 1.96665 z m 21.2756,0 v -4.008 h -7.2442 v -1.86708 l 7.6176,-10.82906 h 1.6929 v 10.82906 h 2.2405 v 1.86708 h -2.2405 v 4.008 z m 0,-5.87508 v -7.543 l -5.2278,7.543 z"
       id="path141"
       inkscape:connector-curvature="0"
       style="fill:#000000;fill-rule:nonzero;stroke-width:1.59324169" />
    <path
       d="m 825.78906,465.1189 h 283.20904 v 48.15117 H 825.78906 Z"
       id="path143"
       inkscape:connector-curvature="0"
       style="fill:#ffffff;fill-rule:evenodd;stroke-width:1.59324169" />
    <path
       stroke-miterlimit="800.0"
       d="m 825.78906,465.1189 h 283.20904 v 48.15117 H 825.78906 Z"
       id="path145"
       inkscape:connector-curvature="0"
       style="fill-rule:evenodd;stroke:#000000;stroke-width:1.59324169;stroke-linecap:butt;stroke-miterlimit:800" />
    <path
       d="m 841.92063,493.92468 v -16.70415 h 6.32318 q 1.66793,0 2.53923,0.14937 1.21983,0.19915 2.04134,0.77173 0.84641,0.57257 1.3443,1.61813 0.52278,1.04557 0.52278,2.29029 0,2.11602 -1.36919,3.60968 -1.3443,1.46877 -4.9042,1.46877 h -4.28183 v 6.79618 z m 2.21561,-8.76283 h 4.33162 q 2.14092,0 3.03712,-0.79662 0.8962,-0.79663 0.8962,-2.2405 0,-1.07046 -0.52279,-1.81729 -0.52278,-0.74683 -1.39408,-0.97088 -0.57257,-0.14937 -2.06624,-0.14937 h -4.28183 z m 13.1104,-5.60124 v -2.34008 h 2.06623 v 2.34008 z m 0,14.36407 V 481.826 h 2.06623 v 12.09868 z m 5.18776,0 V 481.826 h 1.84218 v 1.71771 q 1.3443,-1.99155 3.85864,-1.99155 1.09535,0 2.01644,0.39831 0.9211,0.37341 1.3692,1.02067 0.44809,0.64725 0.64725,1.51856 0.0996,0.57257 0.0996,1.99155 v 7.44343 h -2.04134 v -7.36875 q 0,-1.24472 -0.24895,-1.86708 -0.24894,-0.62236 -0.8713,-0.99577 -0.59747,-0.37342 -1.41898,-0.37342 -1.29451,0 -2.26539,0.84641 -0.94599,0.82152 -0.94599,3.1367 v 6.62191 z m 29.55656,-12.62147 -2.04134,0.14937 q -0.27384,-1.19493 -0.77173,-1.74261 -0.84641,-0.8713 -2.06624,-0.8713 -0.97088,0 -1.71771,0.54768 -0.97088,0.69704 -1.54345,2.06623 -0.54768,1.3443 -0.57257,3.85863 0.74683,-1.14514 1.81729,-1.69282 1.07046,-0.54767 2.24049,-0.54767 2.06624,0 3.51011,1.51856 1.44388,1.51855 1.44388,3.90842 0,1.56834 -0.69704,2.93754 -0.67215,1.34429 -1.86708,2.06623 -1.17004,0.69704 -2.6886,0.69704 -2.56412,0 -4.18226,-1.86708 -1.61813,-1.89197 -1.61813,-6.2236 0,-4.8544 1.79239,-7.04511 1.56835,-1.91687 4.20716,-1.91687 1.96665,0 3.23627,1.12025 1.26961,1.09535 1.51856,3.03711 z m -8.38942,7.19449 q 0,1.07046 0.4481,2.04134 0.4481,0.97088 1.24472,1.49366 0.82152,0.49789 1.71772,0.49789 1.29451,0 2.2156,-1.04557 0.94599,-1.07045 0.94599,-2.86285 0,-1.74261 -0.9211,-2.73839 -0.92109,-0.99577 -2.31518,-0.99577 -1.39408,0 -2.36496,0.99577 -0.97089,0.99578 -0.97089,2.61392 z m 16.18827,0.19915 v -1.64303 h 12.99488 v 1.64303 z m 20.56968,-0.14936 2.09113,-0.17427 q 0.14936,1.24472 0.67215,2.06624 0.54767,0.79662 1.69282,1.29451 1.14514,0.49789 2.56412,0.49789 1.26961,0 2.2405,-0.37342 0.97088,-0.37342 1.44387,-1.02067 0.47299,-0.67215 0.47299,-1.44388 0,-0.79662 -0.47299,-1.36919 -0.4481,-0.59746 -1.49366,-0.99577 -0.67215,-0.27384 -2.98733,-0.82152 -2.29029,-0.54768 -3.21138,-1.04556 -1.19493,-0.62236 -1.7924,-1.54346 -0.57257,-0.94598 -0.57257,-2.09113 0,-1.26961 0.69705,-2.36496 0.72193,-1.09536 2.09113,-1.66793 1.39408,-0.57257 3.0869,-0.57257 1.86708,0 3.28606,0.59747 1.41898,0.59746 2.16581,1.7675 0.77173,1.17003 0.82152,2.6388 l -2.11602,0.14937 q -0.17426,-1.59324 -1.17004,-2.38986 -0.97088,-0.82152 -2.88775,-0.82152 -2.01645,0 -2.93754,0.74684 -0.92109,0.74683 -0.92109,1.7675 0,0.8962 0.67215,1.49366 0.62236,0.57257 3.31095,1.19493 2.71349,0.59747 3.70927,1.04557 1.46877,0.67215 2.16581,1.71771 0.69704,1.02067 0.69704,2.36497 0,1.3443 -0.77172,2.53923 -0.77173,1.17004 -2.21561,1.81729 -1.41898,0.64725 -3.21137,0.64725 -2.26539,0 -3.80885,-0.64725 -1.51856,-0.67215 -2.38986,-1.99155 -0.8713,-1.31941 -0.92109,-3.01222 z m 15.50026,0.97088 2.06624,-0.27384 q 0.34852,1.74261 1.19493,2.51433 0.84641,0.77173 2.06624,0.77173 1.44387,0 2.43965,-0.99578 1.02067,-1.02067 1.02067,-2.48944 0,-1.41898 -0.94599,-2.34007 -0.92109,-0.92109 -2.34007,-0.92109 -0.57258,0 -1.44388,0.22405 l 0.22405,-1.7924 q 0.19916,0.0249 0.32363,0.0249 1.3194,0 2.36497,-0.67215 1.04556,-0.69704 1.04556,-2.14091 0,-1.12025 -0.77173,-1.84219 -0.74683,-0.74683 -1.96665,-0.74683 -1.19493,0 -1.99156,0.74683 -0.79662,0.74683 -1.02067,2.26539 l -2.04134,-0.37341 q 0.37342,-2.06624 1.69282,-3.18649 1.3443,-1.14514 3.33585,-1.14514 1.36919,0 2.51434,0.59747 1.14514,0.57257 1.7426,1.59324 0.62236,1.02067 0.62236,2.14092 0,1.09535 -0.59746,1.99155 -0.57257,0.8713 -1.69282,1.39408 1.46877,0.34853 2.29028,1.44388 0.82152,1.07046 0.82152,2.68859 0,2.19071 -1.59324,3.70927 -1.59324,1.51856 -4.03289,1.51856 -2.21561,0 -3.65948,-1.29451 -1.44388,-1.3194 -1.66793,-3.41053 z m 14.08207,-5.37719 V 481.826 h 2.34007 v 2.31518 z m 0,9.7835 v -2.34008 h 2.34007 v 2.34008 q 0,1.2945 -0.4481,2.06623 -0.4481,0.79662 -1.44387,1.24472 l -0.57258,-0.8713 q 0.64726,-0.29874 0.94599,-0.84641 0.32363,-0.54768 0.34852,-1.59324 z m 11.95456,-5.37719 2.09113,-0.17427 q 0.14937,1.24472 0.67215,2.06624 0.54768,0.79662 1.69282,1.29451 1.14514,0.49789 2.56412,0.49789 1.26962,0 2.2405,-0.37342 0.97088,-0.37342 1.44387,-1.02067 0.473,-0.67215 0.473,-1.44388 0,-0.79662 -0.473,-1.36919 -0.4481,-0.59746 -1.49366,-0.99577 -0.67215,-0.27384 -2.98733,-0.82152 -2.29028,-0.54768 -3.21138,-1.04556 -1.19493,-0.62236 -1.79239,-1.54346 -0.57258,-0.94598 -0.57258,-2.09113 0,-1.26961 0.69705,-2.36496 0.72194,-1.09536 2.09113,-1.66793 1.39408,-0.57257 3.0869,-0.57257 1.86708,0 3.28606,0.59747 1.41898,0.59746 2.16582,1.7675 0.77172,1.17003 0.82151,2.6388 l -2.11602,0.14937 q -0.17426,-1.59324 -1.17004,-2.38986 -0.97088,-0.82152 -2.88775,-0.82152 -2.01645,0 -2.93754,0.74684 -0.92109,0.74683 -0.92109,1.7675 0,0.8962 0.67215,1.49366 0.62236,0.57257 3.31095,1.19493 2.71349,0.59747 3.70927,1.04557 1.46877,0.67215 2.16581,1.71771 0.69704,1.02067 0.69704,2.36497 0,1.3443 -0.77172,2.53923 -0.77173,1.17004 -2.2156,1.81729 -1.41898,0.64725 -3.21138,0.64725 -2.26539,0 -3.80884,-0.64725 -1.51856,-0.67215 -2.38987,-1.99155 -0.8713,-1.31941 -0.92109,-3.01222 z m 22.07239,5.37719 v -4.008 h -7.24427 v -1.86708 l 7.61768,-10.82907 h 1.69282 v 10.82907 h 2.2405 v 1.86708 h -2.2405 v 4.008 z m 0,-5.87508 v -7.54301 l -5.22783,7.54301 z m 7.50984,-3.90842 V 481.826 h 2.34007 v 2.31518 z m 0,9.7835 v -2.34008 h 2.34007 v 2.34008 q 0,1.2945 -0.44809,2.06623 -0.4481,0.79662 -1.44388,1.24472 l -0.57257,-0.8713 q 0.64725,-0.29874 0.94599,-0.84641 0.32362,-0.54768 0.34852,-1.59324 z m 12.75129,0 v -16.70415 h 12.0987 v 1.96666 h -9.8831 v 5.10335 h 9.2358 v 1.96666 h -9.2358 v 5.70082 h 10.2565 v 1.96666 z m 14.7035,-4.40631 2.0663,-0.27384 q 0.3485,1.74261 1.1949,2.51433 0.8464,0.77173 2.0662,0.77173 1.4439,0 2.4397,-0.99578 1.0207,-1.02067 1.0207,-2.48944 0,-1.41898 -0.946,-2.34007 -0.9211,-0.92109 -2.3401,-0.92109 -0.5726,0 -1.4439,0.22405 l 0.2241,-1.7924 q 0.1991,0.0249 0.3236,0.0249 1.3194,0 2.365,-0.67215 1.0455,-0.69704 1.0455,-2.14091 0,-1.12025 -0.7717,-1.84219 -0.7468,-0.74683 -1.9666,-0.74683 -1.195,0 -1.9916,0.74683 -0.7966,0.74683 -1.0207,2.26539 l -2.0413,-0.37341 q 0.3734,-2.06624 1.6928,-3.18649 1.3443,-1.14514 3.3359,-1.14514 1.3692,0 2.5143,0.59747 1.1451,0.57257 1.7426,1.59324 0.6224,1.02067 0.6224,2.14092 0,1.09535 -0.5975,1.99155 -0.5726,0.8713 -1.6928,1.39408 1.4687,0.34853 2.2903,1.44388 0.8215,1.07046 0.8215,2.68859 0,2.19071 -1.5933,3.70927 -1.5932,1.51856 -4.0329,1.51856 -2.2156,0 -3.6594,-1.29451 -1.4439,-1.3194 -1.668,-3.41053 z m 19.9474,9.06156 -0.2241,-1.91687 q 0.6722,0.17426 1.17,0.17426 0.6971,0 1.0954,-0.22405 0.4232,-0.22405 0.6721,-0.64725 0.1992,-0.29874 0.6224,-1.51856 0.075,-0.17426 0.1992,-0.49789 l -4.6055,-12.12357 h 2.2156 l 2.5143,6.99532 q 0.4979,1.3443 0.8713,2.81307 0.3735,-1.41898 0.8465,-2.76328 l 2.589,-7.04511 h 2.0662 l -4.6055,12.29783 q -0.7468,1.99155 -1.17,2.76328 -0.5477,0.99578 -1.2447,1.46877 -0.6971,0.47299 -1.6928,0.47299 -0.5975,0 -1.3194,-0.24894 z m 18.5615,-4.65525 v -16.70415 h 12.0986 v 1.96666 h -9.883 v 5.10335 h 9.2358 v 1.96666 h -9.2358 v 5.70082 h 10.2565 v 1.96666 z m 21.2756,0 v -4.008 h -7.2442 v -1.86708 l 7.6176,-10.82907 h 1.6929 v 10.82907 h 2.2405 v 1.86708 h -2.2405 v 4.008 z m 0,-5.87508 v -7.54301 l -5.2278,7.54301 z"
       id="path147"
       inkscape:connector-curvature="0"
       style="fill:#000000;fill-rule:nonzero;stroke-width:1.59324169" />
  </g>
</svg>
