<?xml version="1.0" standalone="yes"?>

<svg version="1.1" viewBox="0.0 0.0 1122.5196850393702 793.7007874015748" fill="none" stroke="none" stroke-linecap="square" stroke-miterlimit="10" xmlns="http://www.w3.org/2000/svg" xmlns:xlink="http://www.w3.org/1999/xlink"><clipPath id="p_1.0"><path d="m0 0l1122.5197 0l0 793.7008l-1122.5197 0l0 -793.7008z" clip-rule="nonzero"></path></clipPath><g clip-path="url(#p_1.0)"><path fill="#000000" fill-opacity="0.0" d="m0 0l1122.5197 0l0 793.7008l-1122.5197 0z" fill-rule="evenodd"></path><path fill="#000000" fill-opacity="0.0" d="m217.62656 279.08377l687.26636 0l0 235.5328l-687.26636 0z" fill-rule="evenodd"></path><path fill="#ffffff" d="m392.3151 289.08286l60.7612 0l0 33.33017l-60.7612 0z" fill-rule="evenodd"></path><path fill="#000000" d="m402.23697 304.60284l0 -8.59375l2.96875 0q1.0 0 1.53125 0.125q0.734375 0.171875 1.25 0.609375q0.6875 0.578125 1.015625 1.484375q0.34375 0.890625 0.34375 2.03125q0 0.984375 -0.234375 1.734375q-0.21875 0.75 -0.578125 1.25q-0.359375 0.5 -0.796875 0.78125q-0.421875 0.28125 -1.015625 0.4375q-0.59375 0.140625 -1.375 0.140625l-3.109375 0zm1.140625 -1.015625l1.828125 0q0.859375 0 1.34375 -0.15625q0.484375 -0.15625 0.765625 -0.453125q0.40625 -0.390625 0.625 -1.078125q0.234375 -0.6875 0.234375 -1.65625q0 -1.34375 -0.453125 -2.0625q-0.4375 -0.734375 -1.0625 -0.984375q-0.46875 -0.171875 -1.46875 -0.171875l-1.8125 0l0 6.5625zm7.1816406 -3.171875q0 -2.140625 1.140625 -3.34375q1.15625 -1.21875 2.96875 -1.21875q1.203125 0 2.15625 0.578125q0.953125 0.5625 1.453125 1.578125q0.5 1.015625 0.5 2.3125q0 1.296875 -0.53125 2.328125q-0.53125 1.03125 -1.5 1.5625q-0.953125 0.53125 -2.078125 0.53125q-1.21875 0 -2.171875 -0.578125q-0.953125 -0.59375 -1.453125 -1.59375q-0.484375 -1.015625 -0.484375 -2.15625zm1.171875 0.015625q0 1.5625 0.828125 2.453125q0.84375 0.890625 2.109375 0.890625q1.28125 0 2.109375 -0.890625q0.828125 -0.90625 0.828125 -2.578125q0 -1.046875 -0.359375 -1.828125q-0.34375 -0.78125 -1.03125 -1.203125q-0.6875 -0.4375 -1.53125 -0.4375q-1.203125 0 -2.078125 0.828125q-0.875 0.828125 -0.875 2.765625zm8.083984 1.921875l1.109375 -0.09375q0.125 0.8125 0.5625 1.21875q0.453125 0.40625 1.09375 0.40625q0.75 0 1.28125 -0.578125q0.53125 -0.578125 0.53125 -1.515625q0 -0.90625 -0.515625 -1.421875q-0.5 -0.53125 -1.328125 -0.53125q-0.5 0 -0.921875 0.234375q-0.40625 0.234375 -0.640625 0.59375l-0.984375 -0.125l0.828125 -4.40625l4.28125 0l0 1.0l-3.4375 0l-0.453125 2.3125q0.765625 -0.546875 1.609375 -0.546875q1.125 0 1.890625 0.78125q0.78125 0.78125 0.78125 2.015625q0 1.15625 -0.671875 2.015625q-0.828125 1.03125 -2.25 1.03125q-1.171875 0 -1.921875 -0.65625q-0.734375 -0.65625 -0.84375 -1.734375z" fill-rule="nonzero"></path><path fill="#ffffff" d="m389.06003 343.52222l60.7612 0l0 33.3302l-60.7612 0z" fill-rule="evenodd"></path><path fill="#000000" d="m398.9819 359.0422l0 -8.59375l2.96875 0q1.0 0 1.53125 0.125q0.734375 0.171875 1.25 0.609375q0.6875 0.578125 1.015625 1.484375q0.34375 0.890625 0.34375 2.03125q0 0.984375 -0.234375 1.734375q-0.21875 0.75 -0.578125 1.25q-0.359375 0.5 -0.796875 0.78125q-0.421875 0.28125 -1.015625 0.4375q-0.59375 0.140625 -1.375 0.140625l-3.109375 0zm1.140625 -1.015625l1.828125 0q0.859375 0 1.34375 -0.15625q0.484375 -0.15625 0.765625 -0.453125q0.40625 -0.390625 0.625 -1.078125q0.234375 -0.6875 0.234375 -1.65625q0 -1.34375 -0.453125 -2.0625q-0.4375 -0.734375 -1.0625 -0.984375q-0.46875 -0.171875 -1.46875 -0.171875l-1.8125 0l0 6.5625zm7.1816406 -3.171875q0 -2.140625 1.140625 -3.34375q1.15625 -1.21875 2.96875 -1.21875q1.203125 0 2.15625 0.578125q0.953125 0.5625 1.453125 1.578125q0.5 1.015625 0.5 2.3125q0 1.296875 -0.53125 2.328125q-0.53125 1.03125 -1.5 1.5625q-0.953125 0.53125 -2.078125 0.53125q-1.21875 0 -2.171875 -0.578125q-0.953125 -0.59375 -1.453125 -1.59375q-0.484375 -1.015625 -0.484375 -2.15625zm1.171875 0.015625q0 1.5625 0.828125 2.453125q0.84375 0.890625 2.109375 0.890625q1.28125 0 2.109375 -0.890625q0.828125 -0.90625 0.828125 -2.578125q0 -1.046875 -0.359375 -1.828125q-0.34375 -0.78125 -1.03125 -1.203125q-0.6875 -0.4375 -1.53125 -0.4375q-1.203125 0 -2.078125 0.828125q-0.875 0.828125 -0.875 2.765625zm8.146484 -3.296875l0 -1.015625l5.5625 0l0 0.828125q-0.8125 0.875 -1.625 2.328125q-0.796875 1.4375 -1.234375 2.96875q-0.328125 1.078125 -0.40625 2.359375l-1.09375 0q0.015625 -1.015625 0.390625 -2.453125q0.390625 -1.4375 1.09375 -2.765625q0.71875 -1.328125 1.53125 -2.25l-4.21875 0z" fill-rule="nonzero"></path><path fill="#ffffff" d="m217.62656 279.08377l134.51562 0l0 235.47781l-134.51562 0z" fill-rule="evenodd"></path><path stroke="#f79646" stroke-width="2.6666666666666665" stroke-linejoin="round" stroke-linecap="butt" d="m217.62656 279.08377l134.51562 0l0 235.47781l-134.51562 0z" fill-rule="evenodd"></path><path fill="#000000" d="m261.97827 390.9027l0 -10.484375l3.96875 0q1.046875 0 1.59375 0.09375q0.765625 0.125 1.28125 0.484375q0.53125 0.359375 0.84375 1.015625q0.328125 0.65625 0.328125 1.4375q0 1.328125 -0.859375 2.265625q-0.84375 0.921875 -3.078125 0.921875l-2.6875 0l0 4.265625l-1.390625 0zm1.390625 -5.5l2.71875 0q1.34375 0 1.90625 -0.5q0.5625 -0.5 0.5625 -1.40625q0 -0.671875 -0.328125 -1.140625q-0.328125 -0.46875 -0.875 -0.609375q-0.359375 -0.09375 -1.296875 -0.09375l-2.6875 0l0 3.75zm8.338104 5.5l0 -10.484375l1.390625 0l0 9.25l5.15625 0l0 1.234375l-6.546875 0zm7.057373 0l4.015625 -10.484375l1.5 0l4.296875 10.484375l-1.578125 0l-1.234375 -3.171875l-4.375 0l-1.15625 3.171875l-1.46875 0zm3.015625 -4.3125l3.5625 0l-1.09375 -2.90625q-0.5 -1.3125 -0.75 -2.171875q-0.203125 1.015625 -0.5625 2.0l-1.15625 3.078125zm15.384979 0.640625l1.390625 0.34375q-0.4375 1.703125 -1.578125 2.609375q-1.125 0.890625 -2.765625 0.890625q-1.6875 0 -2.75 -0.6875q-1.0625 -0.6875 -1.625 -2.0q-0.546875 -1.3125 -0.546875 -2.8125q0 -1.640625 0.625 -2.859375q0.625 -1.21875 1.78125 -1.84375q1.15625 -0.640625 2.546875 -0.640625q1.5625 0 2.640625 0.8125q1.078125 0.796875 1.5 2.25l-1.375 0.3125q-0.359375 -1.140625 -1.0625 -1.65625q-0.6875 -0.53125 -1.734375 -0.53125q-1.21875 0 -2.03125 0.578125q-0.8125 0.578125 -1.140625 1.5625q-0.328125 0.96875 -0.328125 2.015625q0 1.328125 0.390625 2.328125q0.390625 1.0 1.21875 1.5q0.828125 0.484375 1.78125 0.484375q1.171875 0 1.96875 -0.671875q0.8125 -0.671875 1.09375 -1.984375zm1.959259 3.671875l4.015625 -10.484375l1.5 0l4.296875 10.484375l-1.578125 0l-1.234375 -3.171875l-4.375 0l-1.15625 3.171875l-1.46875 0zm3.015625 -4.3125l3.5625 0l-1.09375 -2.90625q-0.5 -1.3125 -0.75 -2.171875q-0.203125 1.015625 -0.5625 2.0l-1.15625 3.078125z" fill-rule="nonzero"></path><path fill="#000000" d="m251.07635 410.90268l4.015625 -10.484375l1.5 0l4.296875 10.484375l-1.578125 0l-1.234375 -3.171875l-4.375 0l-1.15625 3.171875l-1.46875 0zm3.015625 -4.3125l3.5625 0l-1.09375 -2.90625q-0.5 -1.3125 -0.75 -2.171875q-0.203125 1.015625 -0.5625 2.0l-1.15625 3.078125zm7.9318542 4.3125l0 -10.484375l4.640625 0q1.40625 0 2.140625 0.28125q0.734375 0.28125 1.171875 1.0q0.4375 0.703125 0.4375 1.578125q0 1.109375 -0.734375 1.875q-0.71875 0.765625 -2.234375 0.984375q0.5625 0.25 0.84375 0.515625q0.609375 0.5625 1.15625 1.390625l1.8125 2.859375l-1.734375 0l-1.390625 -2.1875q-0.609375 -0.9375 -1.0 -1.4375q-0.390625 -0.5 -0.703125 -0.703125q-0.3125 -0.203125 -0.640625 -0.28125q-0.234375 -0.046875 -0.765625 -0.046875l-1.609375 0l0 4.65625l-1.390625 0zm1.390625 -5.859375l2.984375 0q0.9375 0 1.46875 -0.1875q0.546875 -0.203125 0.828125 -0.640625q0.28125 -0.4375 0.28125 -0.9375q0 -0.75 -0.546875 -1.21875q-0.53125 -0.484375 -1.703125 -0.484375l-3.3125 0l0 3.46875zm9.162415 5.859375l0 -10.484375l3.625 0q1.21875 0 1.859375 0.140625q0.90625 0.203125 1.546875 0.75q0.828125 0.703125 1.234375 1.796875q0.40625 1.09375 0.40625 2.5q0 1.1875 -0.28125 2.109375q-0.265625 0.921875 -0.703125 1.53125q-0.4375 0.609375 -0.96875 0.953125q-0.515625 0.34375 -1.25 0.53125q-0.71875 0.171875 -1.671875 0.171875l-3.796875 0zm1.390625 -1.234375l2.25 0q1.03125 0 1.625 -0.1875q0.59375 -0.203125 0.9375 -0.546875q0.5 -0.5 0.765625 -1.328125q0.28125 -0.84375 0.28125 -2.03125q0 -1.640625 -0.546875 -2.515625q-0.53125 -0.890625 -1.3125 -1.1875q-0.546875 -0.21875 -1.796875 -0.21875l-2.203125 0l0 8.015625zm16.084259 -9.25l1.390625 0l0 6.046875q0 1.59375 -0.359375 2.53125q-0.359375 0.921875 -1.296875 1.5q-0.9375 0.578125 -2.453125 0.578125q-1.46875 0 -2.40625 -0.5q-0.9375 -0.515625 -1.34375 -1.46875q-0.390625 -0.96875 -0.390625 -2.640625l0 -6.046875l1.390625 0l0 6.046875q0 1.375 0.25 2.015625q0.25 0.640625 0.859375 1.0q0.625 0.34375 1.53125 0.34375q1.53125 0 2.171875 -0.6875q0.65625 -0.703125 0.65625 -2.671875l0 -6.046875zm3.9280396 10.484375l0 -10.484375l1.390625 0l0 10.484375l-1.390625 0zm3.8219604 0l0 -10.484375l1.4375 0l5.5 8.234375l0 -8.234375l1.328125 0l0 10.484375l-1.421875 0l-5.5 -8.25l0 8.25l-1.34375 0zm10.17804 -5.109375q0 -2.609375 1.40625 -4.078125q1.40625 -1.484375 3.625 -1.484375q1.453125 0 2.609375 0.703125q1.171875 0.6875 1.78125 1.921875q0.609375 1.234375 0.609375 2.8125q0 1.59375 -0.640625 2.859375q-0.640625 1.265625 -1.828125 1.90625q-1.171875 0.640625 -2.546875 0.640625q-1.46875 0 -2.640625 -0.703125q-1.171875 -0.71875 -1.78125 -1.953125q-0.59375 -1.25 -0.59375 -2.625zm1.4375 0.015625q0 1.90625 1.015625 3.0q1.015625 1.078125 2.5625 1.078125q1.5625 0 2.578125 -1.09375q1.015625 -1.109375 1.015625 -3.125q0 -1.28125 -0.4375 -2.234375q-0.4375 -0.96875 -1.265625 -1.484375q-0.828125 -0.53125 -1.875 -0.53125q-1.46875 0 -2.53125 1.015625q-1.0625 1.015625 -1.0625 3.375z" fill-rule="nonzero"></path><path fill="#ffffff" d="m481.28696 287.9718l134.51566 0l0 226.64532l-134.51566 0z" fill-rule="evenodd"></path><path stroke="#f79646" stroke-width="2.6666666666666665" stroke-linejoin="round" stroke-linecap="butt" d="m481.28696 287.9718l134.51566 0l0 226.64532l-134.51566 0z" fill-rule="evenodd"></path><path fill="#000000" d="m512.6177 405.37445l0 -10.484375l3.96875 0q1.046875 0 1.59375 0.09375q0.765625 0.125 1.28125 0.484375q0.53125 0.359375 0.84375 1.015625q0.328125 0.65625 0.328125 1.4375q0 1.328125 -0.859375 2.265625q-0.84375 0.921875 -3.078125 0.921875l-2.6875 0l0 4.265625l-1.390625 0zm1.390625 -5.5l2.71875 0q1.34375 0 1.90625 -0.5q0.5625 -0.5 0.5625 -1.40625q0 -0.671875 -0.328125 -1.140625q-0.328125 -0.46875 -0.875 -0.609375q-0.359375 -0.09375 -1.296875 -0.09375l-2.6875 0l0 3.75zm15.275574 -4.984375l1.390625 0l0 6.046875q0 1.59375 -0.359375 2.53125q-0.359375 0.921875 -1.296875 1.5q-0.9375 0.578125 -2.453125 0.578125q-1.46875 0 -2.40625 -0.5q-0.9375 -0.515625 -1.34375 -1.46875q-0.390625 -0.96875 -0.390625 -2.640625l0 -6.046875l1.390625 0l0 6.046875q0 1.375 0.25 2.015625q0.25 0.640625 0.859375 1.0q0.625 0.34375 1.53125 0.34375q1.53125 0 2.171875 -0.6875q0.65625 -0.703125 0.65625 -2.671875l0 -6.046875zm3.7249146 10.484375l0 -10.484375l7.59375 0l0 1.234375l-6.203125 0l0 3.203125l5.796875 0l0 1.234375l-5.796875 0l0 3.578125l6.4375 0l0 1.234375l-7.828125 0zm9.728699 0l0 -10.484375l1.4375 0l5.5 8.234375l0 -8.234375l1.328125 0l0 10.484375l-1.421875 0l-5.5 -8.25l0 8.25l-1.34375 0zm13.27179 0l0 -9.25l-3.453125 0l0 -1.234375l8.3125 0l0 1.234375l-3.46875 0l0 9.25l-1.390625 0zm6.3120117 0l0 -10.484375l7.59375 0l0 1.234375l-6.203125 0l0 3.203125l5.796875 0l0 1.234375l-5.796875 0l0 3.578125l6.4375 0l0 1.234375l-7.828125 0zm13.86322 0l0 -10.484375l1.390625 0l0 4.296875l5.453125 0l0 -4.296875l1.390625 0l0 10.484375l-1.390625 0l0 -4.9375l-5.453125 0l0 4.9375l-1.390625 0z" fill-rule="nonzero"></path><path fill="#000000" fill-opacity="0.0" d="m352.16922 315.747l129.14478 1.0832214" fill-rule="evenodd"></path><path stroke="#000000" stroke-width="1.0" stroke-linejoin="round" stroke-linecap="butt" d="m352.16925 315.747l125.717804 1.0544739" fill-rule="evenodd"></path><path fill="#000000" stroke="#000000" stroke-width="1.0" stroke-linecap="butt" d="m477.88705 316.80148l-1.1339722 1.1151123l3.0990906 -1.0986328l-3.0802307 -1.1504517z" fill-rule="evenodd"></path><path fill="#000000" fill-opacity="0.0" d="m352.16922 369.07532l129.14478 1.0832214" fill-rule="evenodd"></path><path stroke="#000000" stroke-width="1.0" stroke-linejoin="round" stroke-linecap="butt" d="m352.16925 369.0753l125.717804 1.0545044" fill-rule="evenodd"></path><path fill="#000000" stroke="#000000" stroke-width="1.0" stroke-linecap="butt" d="m477.88705 370.1298l-1.1339722 1.1151123l3.0990906 -1.0986328l-3.0802307 -1.1504517z" fill-rule="evenodd"></path><path fill="#ffffff" d="m392.3151 387.96237l60.7612 0l0 33.3302l-60.7612 0z" fill-rule="evenodd"></path><path fill="#000000" d="m402.23697 403.4824l0 -8.59375l2.96875 0q1.0 0 1.53125 0.125q0.734375 0.171875 1.25 0.609375q0.6875 0.578125 1.015625 1.484375q0.34375 0.890625 0.34375 2.03125q0 0.984375 -0.234375 1.734375q-0.21875 0.75 -0.578125 1.25q-0.359375 0.5 -0.796875 0.78125q-0.421875 0.28125 -1.015625 0.4375q-0.59375 0.140625 -1.375 0.140625l-3.109375 0zm1.140625 -1.015625l1.828125 0q0.859375 0 1.34375 -0.15625q0.484375 -0.15625 0.765625 -0.453125q0.40625 -0.390625 0.625 -1.078125q0.234375 -0.6875 0.234375 -1.65625q0 -1.34375 -0.453125 -2.0625q-0.4375 -0.734375 -1.0625 -0.984375q-0.46875 -0.171875 -1.46875 -0.171875l-1.8125 0l0 6.5625zm7.1816406 -3.171875q0 -2.140625 1.140625 -3.34375q1.15625 -1.21875 2.96875 -1.21875q1.203125 0 2.15625 0.578125q0.953125 0.5625 1.453125 1.578125q0.5 1.015625 0.5 2.3125q0 1.296875 -0.53125 2.328125q-0.53125 1.03125 -1.5 1.5625q-0.953125 0.53125 -2.078125 0.53125q-1.21875 0 -2.171875 -0.578125q-0.953125 -0.59375 -1.453125 -1.59375q-0.484375 -1.015625 -0.484375 -2.15625zm1.171875 0.015625q0 1.5625 0.828125 2.453125q0.84375 0.890625 2.109375 0.890625q1.28125 0 2.109375 -0.890625q0.828125 -0.90625 0.828125 -2.578125q0 -1.046875 -0.359375 -1.828125q-0.34375 -0.78125 -1.03125 -1.203125q-0.6875 -0.4375 -1.53125 -0.4375q-1.203125 0 -2.078125 0.828125q-0.875 0.828125 -0.875 2.765625zm13.552734 -2.3125l-1.046875 0.078125q-0.140625 -0.625 -0.390625 -0.90625q-0.4375 -0.453125 -1.0625 -0.453125q-0.5 0 -0.890625 0.28125q-0.484375 0.375 -0.78125 1.078125q-0.28125 0.6875 -0.296875 1.96875q0.375 -0.578125 0.921875 -0.859375q0.5625 -0.28125 1.171875 -0.28125q1.046875 0 1.78125 0.78125q0.75 0.78125 0.75 2.0q0 0.8125 -0.359375 1.515625q-0.34375 0.6875 -0.953125 1.0625q-0.609375 0.359375 -1.375 0.359375q-1.328125 0 -2.15625 -0.96875q-0.828125 -0.96875 -0.828125 -3.1875q0 -2.5 0.921875 -3.625q0.796875 -0.984375 2.15625 -0.984375q1.015625 0 1.65625 0.578125q0.65625 0.5625 0.78125 1.5625zm-4.296875 3.703125q0 0.546875 0.21875 1.046875q0.234375 0.484375 0.640625 0.75q0.421875 0.265625 0.890625 0.265625q0.65625 0 1.140625 -0.53125q0.484375 -0.546875 0.484375 -1.46875q0 -0.890625 -0.484375 -1.40625q-0.46875 -0.515625 -1.1875 -0.515625q-0.71875 0 -1.21875 0.515625q-0.484375 0.515625 -0.484375 1.34375z" fill-rule="nonzero"></path><path fill="#000000" fill-opacity="0.0" d="m355.4243 413.51562l129.14478 1.0832214" fill-rule="evenodd"></path><path stroke="#000000" stroke-width="1.0" stroke-linejoin="round" stroke-linecap="butt" d="m355.4243 413.51562l125.717804 1.0544739" fill-rule="evenodd"></path><path fill="#000000" stroke="#000000" stroke-width="1.0" stroke-linecap="butt" d="m481.1421 414.5701l-1.1339722 1.1151123l3.0990906 -1.0986328l-3.0802307 -1.1504517z" fill-rule="evenodd"></path><path fill="#ffffff" d="m392.3151 444.62372l60.7612 0l0 33.3302l-60.7612 0z" fill-rule="evenodd"></path><path fill="#000000" d="m402.23697 460.1437l0 -8.59375l2.96875 0q1.0 0 1.53125 0.125q0.734375 0.171875 1.25 0.609375q0.6875 0.578125 1.015625 1.484375q0.34375 0.890625 0.34375 2.03125q0 0.984375 -0.234375 1.734375q-0.21875 0.75 -0.578125 1.25q-0.359375 0.5 -0.796875 0.78125q-0.421875 0.28125 -1.015625 0.4375q-0.59375 0.140625 -1.375 0.140625l-3.109375 0zm1.140625 -1.015625l1.828125 0q0.859375 0 1.34375 -0.15625q0.484375 -0.15625 0.765625 -0.453125q0.40625 -0.390625 0.625 -1.078125q0.234375 -0.6875 0.234375 -1.65625q0 -1.34375 -0.453125 -2.0625q-0.4375 -0.734375 -1.0625 -0.984375q-0.46875 -0.171875 -1.46875 -0.171875l-1.8125 0l0 6.5625zm7.1816406 -3.171875q0 -2.140625 1.140625 -3.34375q1.15625 -1.21875 2.96875 -1.21875q1.203125 0 2.15625 0.578125q0.953125 0.5625 1.453125 1.578125q0.5 1.015625 0.5 2.3125q0 1.296875 -0.53125 2.328125q-0.53125 1.03125 -1.5 1.5625q-0.953125 0.53125 -2.078125 0.53125q-1.21875 0 -2.171875 -0.578125q-0.953125 -0.59375 -1.453125 -1.59375q-0.484375 -1.015625 -0.484375 -2.15625zm1.171875 0.015625q0 1.5625 0.828125 2.453125q0.84375 0.890625 2.109375 0.890625q1.28125 0 2.109375 -0.890625q0.828125 -0.90625 0.828125 -2.578125q0 -1.046875 -0.359375 -1.828125q-0.34375 -0.78125 -1.03125 -1.203125q-0.6875 -0.4375 -1.53125 -0.4375q-1.203125 0 -2.078125 0.828125q-0.875 0.828125 -0.875 2.765625zm9.708984 -0.484375q-0.65625 -0.25 -0.984375 -0.6875q-0.3125 -0.453125 -0.3125 -1.0625q0 -0.9375 0.671875 -1.578125q0.6875 -0.640625 1.796875 -0.640625q1.125 0 1.8125 0.65625q0.6875 0.65625 0.6875 1.59375q0 0.59375 -0.3125 1.03125q-0.3125 0.4375 -0.953125 0.6875q0.796875 0.25 1.203125 0.828125q0.40625 0.578125 0.40625 1.375q0 1.09375 -0.78125 1.84375q-0.765625 0.75 -2.046875 0.75q-1.265625 0 -2.046875 -0.75q-0.78125 -0.75 -0.78125 -1.875q0 -0.84375 0.421875 -1.40625q0.4375 -0.5625 1.21875 -0.765625zm-0.21875 -1.796875q0 0.609375 0.390625 1.0q0.40625 0.390625 1.03125 0.390625q0.609375 0 1.0 -0.375q0.390625 -0.390625 0.390625 -0.953125q0 -0.578125 -0.40625 -0.96875q-0.40625 -0.40625 -1.0 -0.40625q-0.609375 0 -1.015625 0.390625q-0.390625 0.390625 -0.390625 0.921875zm-0.328125 3.96875q0 0.453125 0.203125 0.875q0.21875 0.421875 0.640625 0.65625q0.421875 0.234375 0.90625 0.234375q0.75 0 1.234375 -0.484375q0.5 -0.484375 0.5 -1.234375q0 -0.765625 -0.5 -1.265625q-0.5 -0.5 -1.265625 -0.5q-0.75 0 -1.234375 0.5q-0.484375 0.484375 -0.484375 1.21875z" fill-rule="nonzero"></path><path fill="#000000" fill-opacity="0.0" d="m355.4243 470.17694l129.14478 1.083252" fill-rule="evenodd"></path><path stroke="#000000" stroke-width="1.0" stroke-linejoin="round" stroke-linecap="butt" d="m355.4243 470.17697l125.717804 1.0544434" fill-rule="evenodd"></path><path fill="#000000" stroke="#000000" stroke-width="1.0" stroke-linecap="butt" d="m481.1421 471.2314l-1.1339722 1.1151123l3.0990906 -1.0986328l-3.0802307 -1.1504517z" fill-rule="evenodd"></path><path fill="#ffffff" d="m655.97546 294.63782l60.76123 0l0 33.3302l-60.76123 0z" fill-rule="evenodd"></path><path fill="#000000" d="m665.8661 310.15784l0 -8.59375l1.71875 0l2.03125 6.078125q0.28125 0.859375 0.40625 1.28125q0.140625 -0.46875 0.453125 -1.375l2.0625 -5.984375l1.53125 0l0 8.59375l-1.09375 0l0 -7.1875l-2.5 7.1875l-1.03125 0l-2.484375 -7.3125l0 7.3125l-1.09375 0zm13.574219 0l-1.046875 0l0 -6.71875q-0.390625 0.359375 -1.015625 0.734375q-0.609375 0.359375 -1.09375 0.53125l0 -1.015625q0.875 -0.421875 1.53125 -1.0q0.671875 -0.59375 0.953125 -1.15625l0.671875 0l0 8.625zm5.205078 -1.390625l0 -2.359375l-2.328125 0l0 -0.984375l2.328125 0l0 -2.328125l1.0 0l0 2.328125l2.34375 0l0 0.984375l-2.34375 0l0 2.359375l-1.0 0z" fill-rule="nonzero"></path><path fill="#ffffff" d="m652.7204 349.0772l60.76123 0l0 33.33017l-60.76123 0z" fill-rule="evenodd"></path><path fill="#000000" d="m662.611 364.5972l0 -8.59375l1.71875 0l2.03125 6.078125q0.28125 0.859375 0.40625 1.28125q0.140625 -0.46875 0.453125 -1.375l2.0625 -5.984375l1.53125 0l0 8.59375l-1.09375 0l0 -7.1875l-2.5 7.1875l-1.03125 0l-2.484375 -7.3125l0 7.3125l-1.09375 0zm13.574219 0l-1.046875 0l0 -6.71875q-0.390625 0.359375 -1.015625 0.734375q-0.609375 0.359375 -1.09375 0.53125l0 -1.015625q0.875 -0.421875 1.53125 -1.0q0.671875 -0.59375 0.953125 -1.15625l0.671875 0l0 8.625zm2.5800781 -2.578125l0 -1.0625l3.25 0l0 1.0625l-3.25 0z" fill-rule="nonzero"></path><path fill="#000000" fill-opacity="0.0" d="m615.82965 322.41302l129.14478 1.083252" fill-rule="evenodd"></path><path stroke="#000000" stroke-width="1.0" stroke-linejoin="round" stroke-linecap="butt" d="m615.82965 322.41302l125.71777 1.0545044" fill-rule="evenodd"></path><path fill="#000000" stroke="#000000" stroke-width="1.0" stroke-linecap="butt" d="m741.5474 323.46753l-1.1339722 1.1151123l3.099121 -1.0986328l-3.0802612 -1.1504517z" fill-rule="evenodd"></path><path fill="#000000" fill-opacity="0.0" d="m615.82965 374.6303l129.14478 1.0832214" fill-rule="evenodd"></path><path stroke="#000000" stroke-width="1.0" stroke-linejoin="round" stroke-linecap="butt" d="m615.82965 374.63028l125.71777 1.0545044" fill-rule="evenodd"></path><path fill="#000000" stroke="#000000" stroke-width="1.0" stroke-linecap="butt" d="m741.5474 375.68478l-1.1339722 1.1151123l3.099121 -1.0986023l-3.0802612 -1.1504822z" fill-rule="evenodd"></path><path fill="#ffffff" d="m655.97546 394.62842l60.76123 0l0 33.3302l-60.76123 0z" fill-rule="evenodd"></path><path fill="#000000" d="m665.8661 410.1484l0 -8.59375l1.71875 0l2.03125 6.078125q0.28125 0.859375 0.40625 1.28125q0.140625 -0.46875 0.453125 -1.375l2.0625 -5.984375l1.53125 0l0 8.59375l-1.09375 0l0 -7.1875l-2.5 7.1875l-1.03125 0l-2.484375 -7.3125l0 7.3125l-1.09375 0zm15.152344 -1.015625l0 1.015625l-5.6875 0q0 -0.375 0.125 -0.734375q0.21875 -0.578125 0.6875 -1.140625q0.484375 -0.5625 1.390625 -1.296875q1.40625 -1.15625 1.890625 -1.828125q0.5 -0.671875 0.5 -1.265625q0 -0.625 -0.453125 -1.046875q-0.453125 -0.4375 -1.171875 -0.4375q-0.765625 0 -1.21875 0.453125q-0.453125 0.453125 -0.46875 1.265625l-1.078125 -0.109375q0.109375 -1.21875 0.828125 -1.84375q0.734375 -0.640625 1.96875 -0.640625q1.234375 0 1.953125 0.6875q0.71875 0.6875 0.71875 1.703125q0 0.515625 -0.21875 1.015625q-0.203125 0.484375 -0.703125 1.046875q-0.484375 0.546875 -1.609375 1.5q-0.953125 0.796875 -1.234375 1.09375q-0.265625 0.28125 -0.4375 0.5625l4.21875 0zm3.6269531 -0.375l0 -2.359375l-2.328125 0l0 -0.984375l2.328125 0l0 -2.328125l1.0 0l0 2.328125l2.34375 0l0 0.984375l-2.34375 0l0 2.359375l-1.0 0z" fill-rule="nonzero"></path><path fill="#000000" fill-opacity="0.0" d="m619.0847 420.18164l129.14478 1.083252" fill-rule="evenodd"></path><path stroke="#000000" stroke-width="1.0" stroke-linejoin="round" stroke-linecap="butt" d="m619.0847 420.18164l125.71777 1.0545044" fill-rule="evenodd"></path><path fill="#000000" stroke="#000000" stroke-width="1.0" stroke-linecap="butt" d="m744.80255 421.23615l-1.1339722 1.1151123l3.09906 -1.0986328l-3.0802002 -1.1504517z" fill-rule="evenodd"></path><path fill="#ffffff" d="m655.97546 451.28976l60.76123 0l0 33.3302l-60.76123 0z" fill-rule="evenodd"></path><path fill="#000000" d="m665.8661 466.80975l0 -8.59375l1.71875 0l2.03125 6.078125q0.28125 0.859375 0.40625 1.28125q0.140625 -0.46875 0.453125 -1.375l2.0625 -5.984375l1.53125 0l0 8.59375l-1.09375 0l0 -7.1875l-2.5 7.1875l-1.03125 0l-2.484375 -7.3125l0 7.3125l-1.09375 0zm15.152344 -1.015625l0 1.015625l-5.6875 0q0 -0.375 0.125 -0.734375q0.21875 -0.578125 0.6875 -1.140625q0.484375 -0.5625 1.390625 -1.296875q1.40625 -1.15625 1.890625 -1.828125q0.5 -0.671875 0.5 -1.265625q0 -0.625 -0.453125 -1.046875q-0.453125 -0.4375 -1.171875 -0.4375q-0.765625 0 -1.21875 0.453125q-0.453125 0.453125 -0.46875 1.265625l-1.078125 -0.109375q0.109375 -1.21875 0.828125 -1.84375q0.734375 -0.640625 1.96875 -0.640625q1.234375 0 1.953125 0.6875q0.71875 0.6875 0.71875 1.703125q0 0.515625 -0.21875 1.015625q-0.203125 0.484375 -0.703125 1.046875q-0.484375 0.546875 -1.609375 1.5q-0.953125 0.796875 -1.234375 1.09375q-0.265625 0.28125 -0.4375 0.5625l4.21875 0zm1.0019531 -1.5625l0 -1.0625l3.25 0l0 1.0625l-3.25 0z" fill-rule="nonzero"></path><path fill="#000000" fill-opacity="0.0" d="m619.0847 476.843l129.14478 1.0832214" fill-rule="evenodd"></path><path stroke="#000000" stroke-width="1.0" stroke-linejoin="round" stroke-linecap="butt" d="m619.0847 476.84296l125.71777 1.0545044" fill-rule="evenodd"></path><path fill="#000000" stroke="#000000" stroke-width="1.0" stroke-linecap="butt" d="m744.80255 477.8975l-1.1339722 1.1151123l3.09906 -1.0986328l-3.0802002 -1.1504822z" fill-rule="evenodd"></path><path fill="#ffffff" d="m519.2627 302.41492l60.70697 0l0 79.99246l-60.70697 0z" fill-rule="evenodd"></path><path stroke="#f79646" stroke-width="2.6666666666666665" stroke-linejoin="round" stroke-linecap="butt" stroke-dasharray="10.666666666666666,8.0" d="m519.2627 302.41492l60.70697 0l0 79.99246l-60.70697 0z" fill-rule="evenodd"></path><path fill="#000000" d="m550.9938 346.49115l-1.28125 0l0 -8.203125q-0.46875 0.4375 -1.21875 0.890625q-0.75 0.4375 -1.359375 0.65625l0 -1.25q1.078125 -0.5 1.890625 -1.21875q0.8125 -0.734375 1.140625 -1.40625l0.828125 0l0 10.53125z" fill-rule="nonzero"></path><path fill="#000000" fill-opacity="0.0" d="m481.28696 316.85806l37.97574 0" fill-rule="evenodd"></path><path stroke="#4a7dba" stroke-width="1.0" stroke-linejoin="round" stroke-linecap="butt" stroke-dasharray="1.0,3.0" d="m481.28696 316.85806l37.97574 0" fill-rule="evenodd"></path><path fill="#000000" fill-opacity="0.0" d="m481.28696 370.18637l37.92154 0" fill-rule="evenodd"></path><path stroke="#4a7dba" stroke-width="1.0" stroke-linejoin="round" stroke-linecap="butt" stroke-dasharray="1.0,3.0" d="m481.28696 370.18637l37.92154 0" fill-rule="evenodd"></path><path fill="#000000" fill-opacity="0.0" d="m581.10895 322.41302l37.92157 0" fill-rule="evenodd"></path><path stroke="#4a7dba" stroke-width="1.0" stroke-linejoin="round" stroke-linecap="butt" stroke-dasharray="1.0,3.0" d="m581.10895 322.41302l37.92157 0" fill-rule="evenodd"></path><path fill="#000000" fill-opacity="0.0" d="m581.10895 376.8524l37.92157 0" fill-rule="evenodd"></path><path stroke="#4a7dba" stroke-width="1.0" stroke-linejoin="round" stroke-linecap="butt" stroke-dasharray="1.0,3.0" d="m581.10895 376.8524l37.92157 0" fill-rule="evenodd"></path><path fill="#ffffff" d="m727.1368 286.46844l176.86768 0l0 30.22226l-176.86768 0z" fill-rule="evenodd"></path><path stroke="#000000" stroke-width="1.0" stroke-miterlimit="800.0" stroke-linecap="butt" d="m727.1368 286.46844l176.86768 0l0 30.22226l-176.86768 0z" fill-rule="evenodd"></path><path fill="#000000" d="m737.2618 304.54846l0 -10.484375l3.96875 0q1.046875 0 1.59375 0.09375q0.765625 0.125 1.28125 0.484375q0.53125 0.359375 0.84375 1.015625q0.328125 0.65625 0.328125 1.4375q0 1.328125 -0.859375 2.265625q-0.84375 0.921875 -3.078125 0.921875l-2.6875 0l0 4.265625l-1.390625 0zm1.390625 -5.5l2.71875 0q1.34375 0 1.90625 -0.5q0.5625 -0.5 0.5625 -1.40625q0 -0.671875 -0.328125 -1.140625q-0.328125 -0.46875 -0.875 -0.609375q-0.359375 -0.09375 -1.296875 -0.09375l-2.6875 0l0 3.75zm8.22876 -3.515625l0 -1.46875l1.296875 0l0 1.46875l-1.296875 0zm0 9.015625l0 -7.59375l1.296875 0l0 7.59375l-1.296875 0zm3.2561035 0l0 -7.59375l1.15625 0l0 1.078125q0.84375 -1.25 2.421875 -1.25q0.6875 0 1.265625 0.25q0.578125 0.234375 0.859375 0.640625q0.28125 0.40625 0.40625 0.953125q0.0625 0.359375 0.0625 1.25l0 4.671875l-1.28125 0l0 -4.625q0 -0.78125 -0.15625 -1.171875q-0.15625 -0.390625 -0.546875 -0.625q-0.375 -0.234375 -0.890625 -0.234375q-0.8125 0 -1.421875 0.53125q-0.59375 0.515625 -0.59375 1.96875l0 4.15625l-1.28125 0zm15.9887085 0l0 -2.515625l-4.546875 0l0 -1.171875l4.78125 -6.796875l1.0625 0l0 6.796875l1.40625 0l0 1.171875l-1.40625 0l0 2.515625l-1.296875 0zm0 -3.6875l0 -4.734375l-3.28125 4.734375l3.28125 0zm7.4574585 0.40625l0 -1.03125l8.15625 0l0 1.03125l-8.15625 0zm12.9105835 -0.09375l1.3125 -0.109375q0.09375 0.78125 0.421875 1.296875q0.34375 0.5 1.0625 0.8125q0.71875 0.3125 1.609375 0.3125q0.796875 0 1.40625 -0.234375q0.609375 -0.234375 0.90625 -0.640625q0.296875 -0.421875 0.296875 -0.90625q0 -0.5 -0.296875 -0.859375q-0.28125 -0.375 -0.9375 -0.625q-0.421875 -0.171875 -1.875 -0.515625q-1.4375 -0.34375 -2.015625 -0.65625q-0.75 -0.390625 -1.125 -0.96875q-0.359375 -0.59375 -0.359375 -1.3125q0 -0.796875 0.4375 -1.484375q0.453125 -0.6875 1.3125 -1.046875q0.875 -0.359375 1.9375 -0.359375q1.171875 0 2.0625 0.375q0.890625 0.375 1.359375 1.109375q0.484375 0.734375 0.515625 1.65625l-1.328125 0.09375q-0.109375 -1.0 -0.734375 -1.5q-0.609375 -0.515625 -1.8125 -0.515625q-1.265625 0 -1.84375 0.46875q-0.578125 0.46875 -0.578125 1.109375q0 0.5625 0.421875 0.9375q0.390625 0.359375 2.078125 0.75q1.703125 0.375 2.328125 0.65625q0.921875 0.421875 1.359375 1.078125q0.4375 0.640625 0.4375 1.484375q0 0.84375 -0.484375 1.59375q-0.484375 0.734375 -1.390625 1.140625q-0.890625 0.40625 -2.015625 0.40625q-1.421875 0 -2.390625 -0.40625q-0.953125 -0.421875 -1.5 -1.25q-0.546875 -0.828125 -0.578125 -1.890625zm14.57251 3.375l-1.28125 0l0 -8.203125q-0.46875 0.4375 -1.21875 0.890625q-0.75 0.4375 -1.359375 0.65625l0 -1.25q1.078125 -0.5 1.890625 -1.21875q0.8125 -0.734375 1.140625 -1.40625l0.828125 0l0 10.53125zm3.994873 -6.140625l0 -1.453125l1.46875 0l0 1.453125l-1.46875 0zm0 6.140625l0 -1.46875l1.46875 0l0 1.46875q0 0.8125 -0.28125 1.296875q-0.28125 0.5 -0.90625 0.78125l-0.359375 -0.546875q0.40625 -0.1875 0.59375 -0.53125q0.203125 -0.34375 0.21875 -1.0l-0.734375 0zm7.503296 -3.375l1.3125 -0.109375q0.09375 0.78125 0.421875 1.296875q0.34375 0.5 1.0625 0.8125q0.71875 0.3125 1.609375 0.3125q0.796875 0 1.40625 -0.234375q0.609375 -0.234375 0.90625 -0.640625q0.296875 -0.421875 0.296875 -0.90625q0 -0.5 -0.296875 -0.859375q-0.28125 -0.375 -0.9375 -0.625q-0.421875 -0.171875 -1.875 -0.515625q-1.4375 -0.34375 -2.015625 -0.65625q-0.75 -0.390625 -1.125 -0.96875q-0.359375 -0.59375 -0.359375 -1.3125q0 -0.796875 0.4375 -1.484375q0.453125 -0.6875 1.3125 -1.046875q0.875 -0.359375 1.9375 -0.359375q1.171875 0 2.0625 0.375q0.890625 0.375 1.359375 1.109375q0.484375 0.734375 0.515625 1.65625l-1.328125 0.09375q-0.109375 -1.0 -0.734375 -1.5q-0.609375 -0.515625 -1.8125 -0.515625q-1.265625 0 -1.84375 0.46875q-0.578125 0.46875 -0.578125 1.109375q0 0.5625 0.421875 0.9375q0.390625 0.359375 2.078125 0.75q1.703125 0.375 2.328125 0.65625q0.921875 0.421875 1.359375 1.078125q0.4375 0.640625 0.4375 1.484375q0 0.84375 -0.484375 1.59375q-0.484375 0.734375 -1.390625 1.140625q-0.890625 0.40625 -2.015625 0.40625q-1.421875 0 -2.390625 -0.40625q-0.953125 -0.421875 -1.5 -1.25q-0.546875 -0.828125 -0.578125 -1.890625zm16.494385 2.140625l0 1.234375l-6.9375 0q-0.015625 -0.46875 0.15625 -0.890625q0.265625 -0.71875 0.84375 -1.40625q0.59375 -0.6875 1.6875 -1.578125q1.71875 -1.40625 2.3125 -2.21875q0.609375 -0.828125 0.609375 -1.5625q0 -0.765625 -0.5625 -1.28125q-0.546875 -0.53125 -1.421875 -0.53125q-0.921875 0 -1.484375 0.5625q-0.5625 0.5625 -0.5625 1.546875l-1.328125 -0.140625q0.140625 -1.484375 1.015625 -2.25q0.890625 -0.78125 2.390625 -0.78125q1.515625 0 2.390625 0.84375q0.875 0.828125 0.875 2.0625q0 0.640625 -0.265625 1.25q-0.25 0.59375 -0.84375 1.265625q-0.59375 0.671875 -1.984375 1.859375q-1.15625 0.96875 -1.484375 1.3125q-0.328125 0.34375 -0.546875 0.703125l5.140625 0zm2.072937 -4.90625l0 -1.453125l1.46875 0l0 1.453125l-1.46875 0zm0 6.140625l0 -1.46875l1.46875 0l0 1.46875q0 0.8125 -0.28125 1.296875q-0.28125 0.5 -0.90625 0.78125l-0.359375 -0.546875q0.40625 -0.1875 0.59375 -0.53125q0.203125 -0.34375 0.21875 -1.0l-0.734375 0zm8.003357 0l0 -10.484375l7.59375 0l0 1.234375l-6.203125 0l0 3.203125l5.796875 0l0 1.234375l-5.796875 0l0 3.578125l6.4375 0l0 1.234375l-7.828125 0zm14.072449 0l-1.28125 0l0 -8.203125q-0.46875 0.4375 -1.21875 0.890625q-0.75 0.4375 -1.359375 0.65625l0 -1.25q1.078125 -0.5 1.890625 -1.21875q0.8125 -0.734375 1.140625 -1.40625l0.828125 0l0 10.53125zm7.6762085 2.921875l-0.140625 -1.203125q0.421875 0.109375 0.734375 0.109375q0.4375 0 0.6875 -0.140625q0.265625 -0.140625 0.421875 -0.40625q0.125 -0.1875 0.390625 -0.953125q0.046875 -0.109375 0.125 -0.3125l-2.890625 -7.609375l1.390625 0l1.578125 4.390625q0.3125 0.84375 0.546875 1.765625q0.234375 -0.890625 0.53125 -1.734375l1.625 -4.421875l1.296875 0l-2.890625 7.71875q-0.46875 1.25 -0.734375 1.734375q-0.34375 0.625 -0.78125 0.921875q-0.4375 0.296875 -1.0625 0.296875q-0.375 0 -0.828125 -0.15625zm11.6501465 -2.921875l0 -10.484375l7.59375 0l0 1.234375l-6.203125 0l0 3.203125l5.796875 0l0 1.234375l-5.796875 0l0 3.578125l6.4375 0l0 1.234375l-7.828125 0zm15.994324 -1.234375l0 1.234375l-6.9375 0q-0.015625 -0.46875 0.15625 -0.890625q0.265625 -0.71875 0.84375 -1.40625q0.59375 -0.6875 1.6875 -1.578125q1.71875 -1.40625 2.3125 -2.21875q0.609375 -0.828125 0.609375 -1.5625q0 -0.765625 -0.5625 -1.28125q-0.546875 -0.53125 -1.421875 -0.53125q-0.921875 0 -1.484375 0.5625q-0.5625 0.5625 -0.5625 1.546875l-1.328125 -0.140625q0.140625 -1.484375 1.015625 -2.25q0.890625 -0.78125 2.390625 -0.78125q1.515625 0 2.390625 0.84375q0.875 0.828125 0.875 2.0625q0 0.640625 -0.265625 1.25q-0.25 0.59375 -0.84375 1.265625q-0.59375 0.671875 -1.984375 1.859375q-1.15625 0.96875 -1.484375 1.3125q-0.328125 0.34375 -0.546875 0.703125l5.140625 0z" fill-rule="nonzero"></path><path fill="#ffffff" d="m727.1368 341.2377l176.86768 0l0 30.222137l-176.86768 0z" fill-rule="evenodd"></path><path stroke="#000000" stroke-width="1.0" stroke-miterlimit="800.0" stroke-linecap="butt" d="m727.1368 341.2377l176.86768 0l0 30.222137l-176.86768 0z" fill-rule="evenodd"></path><path fill="#000000" d="m737.2618 359.3177l0 -10.484375l3.96875 0q1.046875 0 1.59375 0.09375q0.765625 0.125 1.28125 0.484375q0.53125 0.359375 0.84375 1.015625q0.328125 0.65625 0.328125 1.4375q0 1.328125 -0.859375 2.265625q-0.84375 0.921875 -3.078125 0.921875l-2.6875 0l0 4.265625l-1.390625 0zm1.390625 -5.5l2.71875 0q1.34375 0 1.90625 -0.5q0.5625 -0.5 0.5625 -1.40625q0 -0.671875 -0.328125 -1.140625q-0.328125 -0.46875 -0.875 -0.609375q-0.359375 -0.09375 -1.296875 -0.09375l-2.6875 0l0 3.75zm8.22876 -3.515625l0 -1.46875l1.296875 0l0 1.46875l-1.296875 0zm0 9.015625l0 -7.59375l1.296875 0l0 7.59375l-1.296875 0zm3.2561035 0l0 -7.59375l1.15625 0l0 1.078125q0.84375 -1.25 2.421875 -1.25q0.6875 0 1.265625 0.25q0.578125 0.234375 0.859375 0.640625q0.28125 0.40625 0.40625 0.953125q0.0625 0.359375 0.0625 1.25l0 4.671875l-1.28125 0l0 -4.625q0 -0.78125 -0.15625 -1.171875q-0.15625 -0.390625 -0.546875 -0.625q-0.375 -0.234375 -0.890625 -0.234375q-0.8125 0 -1.421875 0.53125q-0.59375 0.515625 -0.59375 1.96875l0 4.15625l-1.28125 0zm18.551208 -7.921875l-1.28125 0.09375q-0.171875 -0.75 -0.484375 -1.09375q-0.53125 -0.546875 -1.296875 -0.546875q-0.609375 0 -1.078125 0.34375q-0.609375 0.4375 -0.96875 1.296875q-0.34375 0.84375 -0.359375 2.421875q0.46875 -0.71875 1.140625 -1.0625q0.671875 -0.34375 1.40625 -0.34375q1.296875 0 2.203125 0.953125q0.90625 0.953125 0.90625 2.453125q0 0.984375 -0.4375 1.84375q-0.421875 0.84375 -1.171875 1.296875q-0.734375 0.4375 -1.6875 0.4375q-1.609375 0 -2.625 -1.171875q-1.015625 -1.1875 -1.015625 -3.90625q0 -3.046875 1.125 -4.421875q0.984375 -1.203125 2.640625 -1.203125q1.234375 0 2.03125 0.703125q0.796875 0.6875 0.953125 1.90625zm-5.265625 4.515625q0 0.671875 0.28125 1.28125q0.28125 0.609375 0.78125 0.9375q0.515625 0.3125 1.078125 0.3125q0.8125 0 1.390625 -0.65625q0.59375 -0.671875 0.59375 -1.796875q0 -1.09375 -0.578125 -1.71875q-0.578125 -0.625 -1.453125 -0.625q-0.875 0 -1.484375 0.625q-0.609375 0.625 -0.609375 1.640625zm10.1605835 0.125l0 -1.03125l8.15625 0l0 1.03125l-8.15625 0zm12.9105835 -0.09375l1.3125 -0.109375q0.09375 0.78125 0.421875 1.296875q0.34375 0.5 1.0625 0.8125q0.71875 0.3125 1.609375 0.3125q0.796875 0 1.40625 -0.234375q0.609375 -0.234375 0.90625 -0.640625q0.296875 -0.421875 0.296875 -0.90625q0 -0.5 -0.296875 -0.859375q-0.28125 -0.375 -0.9375 -0.625q-0.421875 -0.171875 -1.875 -0.515625q-1.4375 -0.34375 -2.015625 -0.65625q-0.75 -0.390625 -1.125 -0.96875q-0.359375 -0.59375 -0.359375 -1.3125q0 -0.796875 0.4375 -1.484375q0.453125 -0.6875 1.3125 -1.046875q0.875 -0.359375 1.9375 -0.359375q1.171875 0 2.0625 0.375q0.890625 0.375 1.359375 1.109375q0.484375 0.734375 0.515625 1.65625l-1.328125 0.09375q-0.109375 -1.0 -0.734375 -1.5q-0.609375 -0.515625 -1.8125 -0.515625q-1.265625 0 -1.84375 0.46875q-0.578125 0.46875 -0.578125 1.109375q0 0.5625 0.421875 0.9375q0.390625 0.359375 2.078125 0.75q1.703125 0.375 2.328125 0.65625q0.921875 0.421875 1.359375 1.078125q0.4375 0.640625 0.4375 1.484375q0 0.84375 -0.484375 1.59375q-0.484375 0.734375 -1.390625 1.140625q-0.890625 0.40625 -2.015625 0.40625q-1.421875 0 -2.390625 -0.40625q-0.953125 -0.421875 -1.5 -1.25q-0.546875 -0.828125 -0.578125 -1.890625zm14.57251 3.375l-1.28125 0l0 -8.203125q-0.46875 0.4375 -1.21875 0.890625q-0.75 0.4375 -1.359375 0.65625l0 -1.25q1.078125 -0.5 1.890625 -1.21875q0.8125 -0.734375 1.140625 -1.40625l0.828125 0l0 10.53125zm3.994873 -6.140625l0 -1.453125l1.46875 0l0 1.453125l-1.46875 0zm0 6.140625l0 -1.46875l1.46875 0l0 1.46875q0 0.8125 -0.28125 1.296875q-0.28125 0.5 -0.90625 0.78125l-0.359375 -0.546875q0.40625 -0.1875 0.59375 -0.53125q0.203125 -0.34375 0.21875 -1.0l-0.734375 0zm7.503296 -3.375l1.3125 -0.109375q0.09375 0.78125 0.421875 1.296875q0.34375 0.5 1.0625 0.8125q0.71875 0.3125 1.609375 0.3125q0.796875 0 1.40625 -0.234375q0.609375 -0.234375 0.90625 -0.640625q0.296875 -0.421875 0.296875 -0.90625q0 -0.5 -0.296875 -0.859375q-0.28125 -0.375 -0.9375 -0.625q-0.421875 -0.171875 -1.875 -0.515625q-1.4375 -0.34375 -2.015625 -0.65625q-0.75 -0.390625 -1.125 -0.96875q-0.359375 -0.59375 -0.359375 -1.3125q0 -0.796875 0.4375 -1.484375q0.453125 -0.6875 1.3125 -1.046875q0.875 -0.359375 1.9375 -0.359375q1.171875 0 2.0625 0.375q0.890625 0.375 1.359375 1.109375q0.484375 0.734375 0.515625 1.65625l-1.328125 0.09375q-0.109375 -1.0 -0.734375 -1.5q-0.609375 -0.515625 -1.8125 -0.515625q-1.265625 0 -1.84375 0.46875q-0.578125 0.46875 -0.578125 1.109375q0 0.5625 0.421875 0.9375q0.390625 0.359375 2.078125 0.75q1.703125 0.375 2.328125 0.65625q0.921875 0.421875 1.359375 1.078125q0.4375 0.640625 0.4375 1.484375q0 0.84375 -0.484375 1.59375q-0.484375 0.734375 -1.390625 1.140625q-0.890625 0.40625 -2.015625 0.40625q-1.421875 0 -2.390625 -0.40625q-0.953125 -0.421875 -1.5 -1.25q-0.546875 -0.828125 -0.578125 -1.890625zm16.494385 2.140625l0 1.234375l-6.9375 0q-0.015625 -0.46875 0.15625 -0.890625q0.265625 -0.71875 0.84375 -1.40625q0.59375 -0.6875 1.6875 -1.578125q1.71875 -1.40625 2.3125 -2.21875q0.609375 -0.828125 0.609375 -1.5625q0 -0.765625 -0.5625 -1.28125q-0.546875 -0.53125 -1.421875 -0.53125q-0.921875 0 -1.484375 0.5625q-0.5625 0.5625 -0.5625 1.546875l-1.328125 -0.140625q0.140625 -1.484375 1.015625 -2.25q0.890625 -0.78125 2.390625 -0.78125q1.515625 0 2.390625 0.84375q0.875 0.828125 0.875 2.0625q0 0.640625 -0.265625 1.25q-0.25 0.59375 -0.84375 1.265625q-0.59375 0.671875 -1.984375 1.859375q-1.15625 0.96875 -1.484375 1.3125q-0.328125 0.34375 -0.546875 0.703125l5.140625 0zm2.072937 -4.90625l0 -1.453125l1.46875 0l0 1.453125l-1.46875 0zm0 6.140625l0 -1.46875l1.46875 0l0 1.46875q0 0.8125 -0.28125 1.296875q-0.28125 0.5 -0.90625 0.78125l-0.359375 -0.546875q0.40625 -0.1875 0.59375 -0.53125q0.203125 -0.34375 0.21875 -1.0l-0.734375 0zm8.003357 0l0 -10.484375l7.59375 0l0 1.234375l-6.203125 0l0 3.203125l5.796875 0l0 1.234375l-5.796875 0l0 3.578125l6.4375 0l0 1.234375l-7.828125 0zm14.072449 0l-1.28125 0l0 -8.203125q-0.46875 0.4375 -1.21875 0.890625q-0.75 0.4375 -1.359375 0.65625l0 -1.25q1.078125 -0.5 1.890625 -1.21875q0.8125 -0.734375 1.140625 -1.40625l0.828125 0l0 10.53125zm7.6762085 2.921875l-0.140625 -1.203125q0.421875 0.109375 0.734375 0.109375q0.4375 0 0.6875 -0.140625q0.265625 -0.140625 0.421875 -0.40625q0.125 -0.1875 0.390625 -0.953125q0.046875 -0.109375 0.125 -0.3125l-2.890625 -7.609375l1.390625 0l1.578125 4.390625q0.3125 0.84375 0.546875 1.765625q0.234375 -0.890625 0.53125 -1.734375l1.625 -4.421875l1.296875 0l-2.890625 7.71875q-0.46875 1.25 -0.734375 1.734375q-0.34375 0.625 -0.78125 0.921875q-0.4375 0.296875 -1.0625 0.296875q-0.375 0 -0.828125 -0.15625zm11.6501465 -2.921875l0 -10.484375l7.59375 0l0 1.234375l-6.203125 0l0 3.203125l5.796875 0l0 1.234375l-5.796875 0l0 3.578125l6.4375 0l0 1.234375l-7.828125 0zm15.994324 -1.234375l0 1.234375l-6.9375 0q-0.015625 -0.46875 0.15625 -0.890625q0.265625 -0.71875 0.84375 -1.40625q0.59375 -0.6875 1.6875 -1.578125q1.71875 -1.40625 2.3125 -2.21875q0.609375 -0.828125 0.609375 -1.5625q0 -0.765625 -0.5625 -1.28125q-0.546875 -0.53125 -1.421875 -0.53125q-0.921875 0 -1.484375 0.5625q-0.5625 0.5625 -0.5625 1.546875l-1.328125 -0.140625q0.140625 -1.484375 1.015625 -2.25q0.890625 -0.78125 2.390625 -0.78125q1.515625 0 2.390625 0.84375q0.875 0.828125 0.875 2.0625q0 0.640625 -0.265625 1.25q-0.25 0.59375 -0.84375 1.265625q-0.59375 0.671875 -1.984375 1.859375q-1.15625 0.96875 -1.484375 1.3125q-0.328125 0.34375 -0.546875 0.703125l5.140625 0z" fill-rule="nonzero"></path><path fill="#ffffff" d="m727.1368 384.92996l177.75647 0l0 30.22226l-177.75647 0z" fill-rule="evenodd"></path><path stroke="#000000" stroke-width="1.0" stroke-miterlimit="800.0" stroke-linecap="butt" d="m727.1368 384.92996l177.75647 0l0 30.22226l-177.75647 0z" fill-rule="evenodd"></path><path fill="#000000" d="m737.2618 403.00998l0 -10.484375l3.96875 0q1.046875 0 1.59375 0.09375q0.765625 0.125 1.28125 0.484375q0.53125 0.359375 0.84375 1.015625q0.328125 0.65625 0.328125 1.4375q0 1.328125 -0.859375 2.265625q-0.84375 0.921875 -3.078125 0.921875l-2.6875 0l0 4.265625l-1.390625 0zm1.390625 -5.5l2.71875 0q1.34375 0 1.90625 -0.5q0.5625 -0.5 0.5625 -1.40625q0 -0.671875 -0.328125 -1.140625q-0.328125 -0.46875 -0.875 -0.609375q-0.359375 -0.09375 -1.296875 -0.09375l-2.6875 0l0 3.75zm8.22876 -3.515625l0 -1.46875l1.296875 0l0 1.46875l-1.296875 0zm0 9.015625l0 -7.59375l1.296875 0l0 7.59375l-1.296875 0zm3.2561035 0l0 -7.59375l1.15625 0l0 1.078125q0.84375 -1.25 2.421875 -1.25q0.6875 0 1.265625 0.25q0.578125 0.234375 0.859375 0.640625q0.28125 0.40625 0.40625 0.953125q0.0625 0.359375 0.0625 1.25l0 4.671875l-1.28125 0l0 -4.625q0 -0.78125 -0.15625 -1.171875q-0.15625 -0.390625 -0.546875 -0.625q-0.375 -0.234375 -0.890625 -0.234375q-0.8125 0 -1.421875 0.53125q-0.59375 0.515625 -0.59375 1.96875l0 4.15625l-1.28125 0zm15.9887085 0l0 -2.515625l-4.546875 0l0 -1.171875l4.78125 -6.796875l1.0625 0l0 6.796875l1.40625 0l0 1.171875l-1.40625 0l0 2.515625l-1.296875 0zm0 -3.6875l0 -4.734375l-3.28125 4.734375l3.28125 0zm7.4574585 0.40625l0 -1.03125l8.15625 0l0 1.03125l-8.15625 0zm12.9105835 -0.09375l1.3125 -0.109375q0.09375 0.78125 0.421875 1.296875q0.34375 0.5 1.0625 0.8125q0.71875 0.3125 1.609375 0.3125q0.796875 0 1.40625 -0.234375q0.609375 -0.234375 0.90625 -0.640625q0.296875 -0.421875 0.296875 -0.90625q0 -0.5 -0.296875 -0.859375q-0.28125 -0.375 -0.9375 -0.625q-0.421875 -0.171875 -1.875 -0.515625q-1.4375 -0.34375 -2.015625 -0.65625q-0.75 -0.390625 -1.125 -0.96875q-0.359375 -0.59375 -0.359375 -1.3125q0 -0.796875 0.4375 -1.484375q0.453125 -0.6875 1.3125 -1.046875q0.875 -0.359375 1.9375 -0.359375q1.171875 0 2.0625 0.375q0.890625 0.375 1.359375 1.109375q0.484375 0.734375 0.515625 1.65625l-1.328125 0.09375q-0.109375 -1.0 -0.734375 -1.5q-0.609375 -0.515625 -1.8125 -0.515625q-1.265625 0 -1.84375 0.46875q-0.578125 0.46875 -0.578125 1.109375q0 0.5625 0.421875 0.9375q0.390625 0.359375 2.078125 0.75q1.703125 0.375 2.328125 0.65625q0.921875 0.421875 1.359375 1.078125q0.4375 0.640625 0.4375 1.484375q0 0.84375 -0.484375 1.59375q-0.484375 0.734375 -1.390625 1.140625q-0.890625 0.40625 -2.015625 0.40625q-1.421875 0 -2.390625 -0.40625q-0.953125 -0.421875 -1.5 -1.25q-0.546875 -0.828125 -0.578125 -1.890625zm9.72876 0.609375l1.296875 -0.171875q0.21875 1.09375 0.75 1.578125q0.53125 0.484375 1.296875 0.484375q0.90625 0 1.53125 -0.625q0.640625 -0.640625 0.640625 -1.5625q0 -0.890625 -0.59375 -1.46875q-0.578125 -0.578125 -1.46875 -0.578125q-0.359375 0 -0.90625 0.140625l0.140625 -1.125q0.125 0.015625 0.203125 0.015625q0.828125 0 1.484375 -0.421875q0.65625 -0.4375 0.65625 -1.34375q0 -0.703125 -0.484375 -1.15625q-0.46875 -0.46875 -1.234375 -0.46875q-0.75 0 -1.25 0.46875q-0.5 0.46875 -0.640625 1.421875l-1.28125 -0.234375q0.234375 -1.296875 1.0625 -2.0q0.84375 -0.71875 2.09375 -0.71875q0.859375 0 1.578125 0.375q0.71875 0.359375 1.09375 1.0q0.390625 0.640625 0.390625 1.34375q0 0.6875 -0.375 1.25q-0.359375 0.546875 -1.0625 0.875q0.921875 0.21875 1.4375 0.90625q0.515625 0.671875 0.515625 1.6875q0 1.375 -1.0 2.328125q-1.0 0.953125 -2.53125 0.953125q-1.390625 0 -2.296875 -0.8125q-0.90625 -0.828125 -1.046875 -2.140625zm8.838623 -3.375l0 -1.453125l1.46875 0l0 1.453125l-1.46875 0zm0 6.140625l0 -1.46875l1.46875 0l0 1.46875q0 0.8125 -0.28125 1.296875q-0.28125 0.5 -0.90625 0.78125l-0.359375 -0.546875q0.40625 -0.1875 0.59375 -0.53125q0.203125 -0.34375 0.21875 -1.0l-0.734375 0zm7.503296 -3.375l1.3125 -0.109375q0.09375 0.78125 0.421875 1.296875q0.34375 0.5 1.0625 0.8125q0.71875 0.3125 1.609375 0.3125q0.796875 0 1.40625 -0.234375q0.609375 -0.234375 0.90625 -0.640625q0.296875 -0.421875 0.296875 -0.90625q0 -0.5 -0.296875 -0.859375q-0.28125 -0.375 -0.9375 -0.625q-0.421875 -0.171875 -1.875 -0.515625q-1.4375 -0.34375 -2.015625 -0.65625q-0.75 -0.390625 -1.125 -0.96875q-0.359375 -0.59375 -0.359375 -1.3125q0 -0.796875 0.4375 -1.484375q0.453125 -0.6875 1.3125 -1.046875q0.875 -0.359375 1.9375 -0.359375q1.171875 0 2.0625 0.375q0.890625 0.375 1.359375 1.109375q0.484375 0.734375 0.515625 1.65625l-1.328125 0.09375q-0.109375 -1.0 -0.734375 -1.5q-0.609375 -0.515625 -1.8125 -0.515625q-1.265625 0 -1.84375 0.46875q-0.578125 0.46875 -0.578125 1.109375q0 0.5625 0.421875 0.9375q0.390625 0.359375 2.078125 0.75q1.703125 0.375 2.328125 0.65625q0.921875 0.421875 1.359375 1.078125q0.4375 0.640625 0.4375 1.484375q0 0.84375 -0.484375 1.59375q-0.484375 0.734375 -1.390625 1.140625q-0.890625 0.40625 -2.015625 0.40625q-1.421875 0 -2.390625 -0.40625q-0.953125 -0.421875 -1.5 -1.25q-0.546875 -0.828125 -0.578125 -1.890625zm13.85376 3.375l0 -2.515625l-4.546875 0l0 -1.171875l4.78125 -6.796875l1.0625 0l0 6.796875l1.40625 0l0 1.171875l-1.40625 0l0 2.515625l-1.296875 0zm0 -3.6875l0 -4.734375l-3.28125 4.734375l3.28125 0zm4.713562 -2.453125l0 -1.453125l1.46875 0l0 1.453125l-1.46875 0zm0 6.140625l0 -1.46875l1.46875 0l0 1.46875q0 0.8125 -0.28125 1.296875q-0.28125 0.5 -0.90625 0.78125l-0.359375 -0.546875q0.40625 -0.1875 0.59375 -0.53125q0.203125 -0.34375 0.21875 -1.0l-0.734375 0zm8.003357 0l0 -10.484375l7.59375 0l0 1.234375l-6.203125 0l0 3.203125l5.796875 0l0 1.234375l-5.796875 0l0 3.578125l6.4375 0l0 1.234375l-7.828125 0zm9.228699 -2.765625l1.296875 -0.171875q0.21875 1.09375 0.75 1.578125q0.53125 0.484375 1.296875 0.484375q0.90625 0 1.53125 -0.625q0.640625 -0.640625 0.640625 -1.5625q0 -0.890625 -0.59375 -1.46875q-0.578125 -0.578125 -1.46875 -0.578125q-0.359375 0 -0.90625 0.140625l0.140625 -1.125q0.125 0.015625 0.203125 0.015625q0.828125 0 1.484375 -0.421875q0.65625 -0.4375 0.65625 -1.34375q0 -0.703125 -0.484375 -1.15625q-0.46875 -0.46875 -1.234375 -0.46875q-0.75 0 -1.25 0.46875q-0.5 0.46875 -0.640625 1.421875l-1.28125 -0.234375q0.234375 -1.296875 1.0625 -2.0q0.84375 -0.71875 2.09375 -0.71875q0.859375 0 1.578125 0.375q0.71875 0.359375 1.09375 1.0q0.390625 0.640625 0.390625 1.34375q0 0.6875 -0.375 1.25q-0.359375 0.546875 -1.0625 0.875q0.921875 0.21875 1.4375 0.90625q0.515625 0.671875 0.515625 1.6875q0 1.375 -1.0 2.328125q-1.0 0.953125 -2.53125 0.953125q-1.390625 0 -2.296875 -0.8125q-0.90625 -0.828125 -1.046875 -2.140625zm12.5199585 5.6875l-0.140625 -1.203125q0.421875 0.109375 0.734375 0.109375q0.4375 0 0.6875 -0.140625q0.265625 -0.140625 0.421875 -0.40625q0.125 -0.1875 0.390625 -0.953125q0.046875 -0.109375 0.125 -0.3125l-2.890625 -7.609375l1.390625 0l1.578125 4.390625q0.3125 0.84375 0.546875 1.765625q0.234375 -0.890625 0.53125 -1.734375l1.625 -4.421875l1.296875 0l-2.890625 7.71875q-0.46875 1.25 -0.734375 1.734375q-0.34375 0.625 -0.78125 0.921875q-0.4375 0.296875 -1.0625 0.296875q-0.375 0 -0.828125 -0.15625zm11.6501465 -2.921875l0 -10.484375l7.59375 0l0 1.234375l-6.203125 0l0 3.203125l5.796875 0l0 1.234375l-5.796875 0l0 3.578125l6.4375 0l0 1.234375l-7.828125 0zm13.353699 0l0 -2.515625l-4.546875 0l0 -1.171875l4.78125 -6.796875l1.0625 0l0 6.796875l1.40625 0l0 1.171875l-1.40625 0l0 2.515625l-1.296875 0zm0 -3.6875l0 -4.734375l-3.28125 4.734375l3.28125 0z" fill-rule="nonzero"></path><path fill="#ffffff" d="m727.1368 439.69922l177.75647 0l0 30.222137l-177.75647 0z" fill-rule="evenodd"></path><path stroke="#000000" stroke-width="1.0" stroke-miterlimit="800.0" stroke-linecap="butt" d="m727.1368 439.69922l177.75647 0l0 30.222137l-177.75647 0z" fill-rule="evenodd"></path><path fill="#000000" d="m737.2618 457.7792l0 -10.484375l3.96875 0q1.046875 0 1.59375 0.09375q0.765625 0.125 1.28125 0.484375q0.53125 0.359375 0.84375 1.015625q0.328125 0.65625 0.328125 1.4375q0 1.328125 -0.859375 2.265625q-0.84375 0.921875 -3.078125 0.921875l-2.6875 0l0 4.265625l-1.390625 0zm1.390625 -5.5l2.71875 0q1.34375 0 1.90625 -0.5q0.5625 -0.5 0.5625 -1.40625q0 -0.671875 -0.328125 -1.140625q-0.328125 -0.46875 -0.875 -0.609375q-0.359375 -0.09375 -1.296875 -0.09375l-2.6875 0l0 3.75zm8.22876 -3.515625l0 -1.46875l1.296875 0l0 1.46875l-1.296875 0zm0 9.015625l0 -7.59375l1.296875 0l0 7.59375l-1.296875 0zm3.2561035 0l0 -7.59375l1.15625 0l0 1.078125q0.84375 -1.25 2.421875 -1.25q0.6875 0 1.265625 0.25q0.578125 0.234375 0.859375 0.640625q0.28125 0.40625 0.40625 0.953125q0.0625 0.359375 0.0625 1.25l0 4.671875l-1.28125 0l0 -4.625q0 -0.78125 -0.15625 -1.171875q-0.15625 -0.390625 -0.546875 -0.625q-0.375 -0.234375 -0.890625 -0.234375q-0.8125 0 -1.421875 0.53125q-0.59375 0.515625 -0.59375 1.96875l0 4.15625l-1.28125 0zm18.551208 -7.921875l-1.28125 0.09375q-0.171875 -0.75 -0.484375 -1.09375q-0.53125 -0.546875 -1.296875 -0.546875q-0.609375 0 -1.078125 0.34375q-0.609375 0.4375 -0.96875 1.296875q-0.34375 0.84375 -0.359375 2.421875q0.46875 -0.71875 1.140625 -1.0625q0.671875 -0.34375 1.40625 -0.34375q1.296875 0 2.203125 0.953125q0.90625 0.953125 0.90625 2.453125q0 0.984375 -0.4375 1.84375q-0.421875 0.84375 -1.171875 1.296875q-0.734375 0.4375 -1.6875 0.4375q-1.609375 0 -2.625 -1.171875q-1.015625 -1.1875 -1.015625 -3.90625q0 -3.046875 1.125 -4.421875q0.984375 -1.203125 2.640625 -1.203125q1.234375 0 2.03125 0.703125q0.796875 0.6875 0.953125 1.90625zm-5.265625 4.515625q0 0.671875 0.28125 1.28125q0.28125 0.609375 0.78125 0.9375q0.515625 0.3125 1.078125 0.3125q0.8125 0 1.390625 -0.65625q0.59375 -0.671875 0.59375 -1.796875q0 -1.09375 -0.578125 -1.71875q-0.578125 -0.625 -1.453125 -0.625q-0.875 0 -1.484375 0.625q-0.609375 0.625 -0.609375 1.640625zm10.1605835 0.125l0 -1.03125l8.15625 0l0 1.03125l-8.15625 0zm12.9105835 -0.09375l1.3125 -0.109375q0.09375 0.78125 0.421875 1.296875q0.34375 0.5 1.0625 0.8125q0.71875 0.3125 1.609375 0.3125q0.796875 0 1.40625 -0.234375q0.609375 -0.234375 0.90625 -0.640625q0.296875 -0.421875 0.296875 -0.90625q0 -0.5 -0.296875 -0.859375q-0.28125 -0.375 -0.9375 -0.625q-0.421875 -0.171875 -1.875 -0.515625q-1.4375 -0.34375 -2.015625 -0.65625q-0.75 -0.390625 -1.125 -0.96875q-0.359375 -0.59375 -0.359375 -1.3125q0 -0.796875 0.4375 -1.484375q0.453125 -0.6875 1.3125 -1.046875q0.875 -0.359375 1.9375 -0.359375q1.171875 0 2.0625 0.375q0.890625 0.375 1.359375 1.109375q0.484375 0.734375 0.515625 1.65625l-1.328125 0.09375q-0.109375 -1.0 -0.734375 -1.5q-0.609375 -0.515625 -1.8125 -0.515625q-1.265625 0 -1.84375 0.46875q-0.578125 0.46875 -0.578125 1.109375q0 0.5625 0.421875 0.9375q0.390625 0.359375 2.078125 0.75q1.703125 0.375 2.328125 0.65625q0.921875 0.421875 1.359375 1.078125q0.4375 0.640625 0.4375 1.484375q0 0.84375 -0.484375 1.59375q-0.484375 0.734375 -1.390625 1.140625q-0.890625 0.40625 -2.015625 0.40625q-1.421875 0 -2.390625 -0.40625q-0.953125 -0.421875 -1.5 -1.25q-0.546875 -0.828125 -0.578125 -1.890625zm9.72876 0.609375l1.296875 -0.171875q0.21875 1.09375 0.75 1.578125q0.53125 0.484375 1.296875 0.484375q0.90625 0 1.53125 -0.625q0.640625 -0.640625 0.640625 -1.5625q0 -0.890625 -0.59375 -1.46875q-0.578125 -0.578125 -1.46875 -0.578125q-0.359375 0 -0.90625 0.140625l0.140625 -1.125q0.125 0.015625 0.203125 0.015625q0.828125 0 1.484375 -0.421875q0.65625 -0.4375 0.65625 -1.34375q0 -0.703125 -0.484375 -1.15625q-0.46875 -0.46875 -1.234375 -0.46875q-0.75 0 -1.25 0.46875q-0.5 0.46875 -0.640625 1.421875l-1.28125 -0.234375q0.234375 -1.296875 1.0625 -2.0q0.84375 -0.71875 2.09375 -0.71875q0.859375 0 1.578125 0.375q0.71875 0.359375 1.09375 1.0q0.390625 0.640625 0.390625 1.34375q0 0.6875 -0.375 1.25q-0.359375 0.546875 -1.0625 0.875q0.921875 0.21875 1.4375 0.90625q0.515625 0.671875 0.515625 1.6875q0 1.375 -1.0 2.328125q-1.0 0.953125 -2.53125 0.953125q-1.390625 0 -2.296875 -0.8125q-0.90625 -0.828125 -1.046875 -2.140625zm8.838623 -3.375l0 -1.453125l1.46875 0l0 1.453125l-1.46875 0zm0 6.140625l0 -1.46875l1.46875 0l0 1.46875q0 0.8125 -0.28125 1.296875q-0.28125 0.5 -0.90625 0.78125l-0.359375 -0.546875q0.40625 -0.1875 0.59375 -0.53125q0.203125 -0.34375 0.21875 -1.0l-0.734375 0zm7.503296 -3.375l1.3125 -0.109375q0.09375 0.78125 0.421875 1.296875q0.34375 0.5 1.0625 0.8125q0.71875 0.3125 1.609375 0.3125q0.796875 0 1.40625 -0.234375q0.609375 -0.234375 0.90625 -0.640625q0.296875 -0.421875 0.296875 -0.90625q0 -0.5 -0.296875 -0.859375q-0.28125 -0.375 -0.9375 -0.625q-0.421875 -0.171875 -1.875 -0.515625q-1.4375 -0.34375 -2.015625 -0.65625q-0.75 -0.390625 -1.125 -0.96875q-0.359375 -0.59375 -0.359375 -1.3125q0 -0.796875 0.4375 -1.484375q0.453125 -0.6875 1.3125 -1.046875q0.875 -0.359375 1.9375 -0.359375q1.171875 0 2.0625 0.375q0.890625 0.375 1.359375 1.109375q0.484375 0.734375 0.515625 1.65625l-1.328125 0.09375q-0.109375 -1.0 -0.734375 -1.5q-0.609375 -0.515625 -1.8125 -0.515625q-1.265625 0 -1.84375 0.46875q-0.578125 0.46875 -0.578125 1.109375q0 0.5625 0.421875 0.9375q0.390625 0.359375 2.078125 0.75q1.703125 0.375 2.328125 0.65625q0.921875 0.421875 1.359375 1.078125q0.4375 0.640625 0.4375 1.484375q0 0.84375 -0.484375 1.59375q-0.484375 0.734375 -1.390625 1.140625q-0.890625 0.40625 -2.015625 0.40625q-1.421875 0 -2.390625 -0.40625q-0.953125 -0.421875 -1.5 -1.25q-0.546875 -0.828125 -0.578125 -1.890625zm13.85376 3.375l0 -2.515625l-4.546875 0l0 -1.171875l4.78125 -6.796875l1.0625 0l0 6.796875l1.40625 0l0 1.171875l-1.40625 0l0 2.515625l-1.296875 0zm0 -3.6875l0 -4.734375l-3.28125 4.734375l3.28125 0zm4.713562 -2.453125l0 -1.453125l1.46875 0l0 1.453125l-1.46875 0zm0 6.140625l0 -1.46875l1.46875 0l0 1.46875q0 0.8125 -0.28125 1.296875q-0.28125 0.5 -0.90625 0.78125l-0.359375 -0.546875q0.40625 -0.1875 0.59375 -0.53125q0.203125 -0.34375 0.21875 -1.0l-0.734375 0zm8.003357 0l0 -10.484375l7.59375 0l0 1.234375l-6.203125 0l0 3.203125l5.796875 0l0 1.234375l-5.796875 0l0 3.578125l6.4375 0l0 1.234375l-7.828125 0zm9.228699 -2.765625l1.296875 -0.171875q0.21875 1.09375 0.75 1.578125q0.53125 0.484375 1.296875 0.484375q0.90625 0 1.53125 -0.625q0.640625 -0.640625 0.640625 -1.5625q0 -0.890625 -0.59375 -1.46875q-0.578125 -0.578125 -1.46875 -0.578125q-0.359375 0 -0.90625 0.140625l0.140625 -1.125q0.125 0.015625 0.203125 0.015625q0.828125 0 1.484375 -0.421875q0.65625 -0.4375 0.65625 -1.34375q0 -0.703125 -0.484375 -1.15625q-0.46875 -0.46875 -1.234375 -0.46875q-0.75 0 -1.25 0.46875q-0.5 0.46875 -0.640625 1.421875l-1.28125 -0.234375q0.234375 -1.296875 1.0625 -2.0q0.84375 -0.71875 2.09375 -0.71875q0.859375 0 1.578125 0.375q0.71875 0.359375 1.09375 1.0q0.390625 0.640625 0.390625 1.34375q0 0.6875 -0.375 1.25q-0.359375 0.546875 -1.0625 0.875q0.921875 0.21875 1.4375 0.90625q0.515625 0.671875 0.515625 1.6875q0 1.375 -1.0 2.328125q-1.0 0.953125 -2.53125 0.953125q-1.390625 0 -2.296875 -0.8125q-0.90625 -0.828125 -1.046875 -2.140625zm12.5199585 5.6875l-0.140625 -1.203125q0.421875 0.109375 0.734375 0.109375q0.4375 0 0.6875 -0.140625q0.265625 -0.140625 0.421875 -0.40625q0.125 -0.1875 0.390625 -0.953125q0.046875 -0.109375 0.125 -0.3125l-2.890625 -7.609375l1.390625 0l1.578125 4.390625q0.3125 0.84375 0.546875 1.765625q0.234375 -0.890625 0.53125 -1.734375l1.625 -4.421875l1.296875 0l-2.890625 7.71875q-0.46875 1.25 -0.734375 1.734375q-0.34375 0.625 -0.78125 0.921875q-0.4375 0.296875 -1.0625 0.296875q-0.375 0 -0.828125 -0.15625zm11.6501465 -2.921875l0 -10.484375l7.59375 0l0 1.234375l-6.203125 0l0 3.203125l5.796875 0l0 1.234375l-5.796875 0l0 3.578125l6.4375 0l0 1.234375l-7.828125 0zm13.353699 0l0 -2.515625l-4.546875 0l0 -1.171875l4.78125 -6.796875l1.0625 0l0 6.796875l1.40625 0l0 1.171875l-1.40625 0l0 2.515625l-1.296875 0zm0 -3.6875l0 -4.734375l-3.28125 4.734375l3.28125 0z" fill-rule="nonzero"></path></g></svg>

