<?xml version="1.0" encoding="UTF-8" standalone="no"?>
<svg
   xmlns:dc="http://purl.org/dc/elements/1.1/"
   xmlns:cc="http://creativecommons.org/ns#"
   xmlns:rdf="http://www.w3.org/1999/02/22-rdf-syntax-ns#"
   xmlns:svg="http://www.w3.org/2000/svg"
   xmlns="http://www.w3.org/2000/svg"
   xmlns:sodipodi="http://sodipodi.sourceforge.net/DTD/sodipodi-0.dtd"
   xmlns:inkscape="http://www.inkscape.org/namespaces/inkscape"
   version="1.1"
   viewBox="0 0 720 400"
   stroke-miterlimit="10"
   id="svg135"
   sodipodi:docname="SIST_Jerarquias1.svg"
   width="720"
   height="400"
   style="fill:none;stroke:none;stroke-linecap:square;stroke-miterlimit:10"
   inkscape:version="0.92.1 r15371">
  <metadata
     id="metadata141">
    <rdf:RDF>
      <cc:Work
         rdf:about="">
        <dc:format>image/svg+xml</dc:format>
        <dc:type
           rdf:resource="http://purl.org/dc/dcmitype/StillImage" />
        <dc:title></dc:title>
      </cc:Work>
    </rdf:RDF>
  </metadata>
  <defs
     id="defs139" />
  <sodipodi:namedview
     pagecolor="#ffffff"
     bordercolor="#666666"
     borderopacity="1"
     objecttolerance="10"
     gridtolerance="10"
     guidetolerance="10"
     inkscape:pageopacity="0"
     inkscape:pageshadow="2"
     inkscape:window-width="640"
     inkscape:window-height="480"
     id="namedview137"
     showgrid="false"
     inkscape:zoom="0.52068866"
     inkscape:cx="360"
     inkscape:cy="270"
     inkscape:window-x="0"
     inkscape:window-y="0"
     inkscape:window-maximized="0"
     inkscape:current-layer="svg135" />
  <clipPath
     id="p.0">
    <path
       d="M 0,0 H 720 V 540 H 0 Z"
       id="path2"
       inkscape:connector-curvature="0"
       style="clip-rule:nonzero" />
  </clipPath>
  <g
     clip-path="url(#p.0)"
     id="g133"
     transform="translate(-1.9205335,15.563212)">
    <path
       d="M 0,0 H 720 V 540 H 0 Z"
       id="path5"
       inkscape:connector-curvature="0"
       style="fill:#000000;fill-opacity:0;fill-rule:evenodd" />
    <path
       d="M 258.80444,7.9816585 H 434.54159 V 92.378338 H 258.80444 Z"
       id="path7"
       inkscape:connector-curvature="0"
       style="fill:#000000;fill-opacity:0;fill-rule:evenodd" />
    <path
       d="M 258.80444,7.9816585 H 434.54159 V 92.378338 H 258.80444 Z"
       id="path9"
       inkscape:connector-curvature="0"
       style="fill-rule:evenodd;stroke:#000000;stroke-width:1;stroke-linecap:butt;stroke-linejoin:round" />
    <path
       d="m 306.56958,30.604782 1.65625,-0.140625 q 0.125,1 0.54687,1.640625 0.4375,0.640625 1.34375,1.046875 0.92188,0.390625 2.0625,0.390625 1,0 1.78125,-0.296875 0.78125,-0.296875 1.15625,-0.8125 0.375,-0.53125 0.375,-1.15625 0,-0.625 -0.375,-1.09375 -0.35937,-0.46875 -1.1875,-0.796875 -0.54687,-0.203125 -2.39062,-0.640625 -1.82813,-0.453125 -2.5625,-0.84375 -0.96875,-0.5 -1.4375,-1.234375 -0.46875,-0.75 -0.46875,-1.671875 0,-1 0.57812,-1.875 0.57813,-0.890625 1.67188,-1.34375 1.10937,-0.453125 2.45312,-0.453125 1.48438,0 2.60938,0.484375 1.14062,0.46875 1.75,1.40625 0.60937,0.921875 0.65625,2.09375 l -1.6875,0.125 q -0.14063,-1.265625 -0.9375,-1.90625 -0.78125,-0.65625 -2.3125,-0.65625 -1.60938,0 -2.34375,0.59375 -0.73438,0.59375 -0.73438,1.421875 0,0.71875 0.53125,1.171875 0.5,0.46875 2.65625,0.96875 2.15625,0.484375 2.95313,0.84375 1.17187,0.53125 1.71875,1.359375 0.5625,0.828125 0.5625,1.90625 0,1.0625 -0.60938,2.015625 -0.60937,0.9375 -1.75,1.46875 -1.14062,0.515625 -2.57812,0.515625 -1.8125,0 -3.04688,-0.53125 -1.21875,-0.53125 -1.92187,-1.59375 -0.6875,-1.0625 -0.71875,-2.40625 z m 13.3342,4.296875 V 21.542282 h 1.76562 v 13.359375 z m 4.29266,-4.296875 1.65625,-0.140625 q 0.125,1 0.54688,1.640625 0.4375,0.640625 1.34375,1.046875 0.92187,0.390625 2.0625,0.390625 1,0 1.78125,-0.296875 0.78125,-0.296875 1.15625,-0.8125 0.375,-0.53125 0.375,-1.15625 0,-0.625 -0.375,-1.09375 -0.35938,-0.46875 -1.1875,-0.796875 -0.54688,-0.203125 -2.39063,-0.640625 -1.82812,-0.453125 -2.5625,-0.84375 -0.96875,-0.5 -1.4375,-1.234375 -0.46875,-0.75 -0.46875,-1.671875 0,-1 0.57813,-1.875 0.57812,-0.890625 1.67187,-1.34375 1.10938,-0.453125 2.45313,-0.453125 1.48437,0 2.60937,0.484375 1.14063,0.46875 1.75,1.40625 0.60938,0.921875 0.65625,2.09375 l -1.6875,0.125 q -0.14062,-1.265625 -0.9375,-1.90625 -0.78125,-0.65625 -2.3125,-0.65625 -1.60937,0 -2.34375,0.59375 -0.73437,0.59375 -0.73437,1.421875 0,0.71875 0.53125,1.171875 0.5,0.46875 2.65625,0.96875 2.15625,0.484375 2.95312,0.84375 1.17188,0.53125 1.71875,1.359375 0.5625,0.828125 0.5625,1.90625 0,1.0625 -0.60937,2.015625 -0.60938,0.9375 -1.75,1.46875 -1.14063,0.515625 -2.57813,0.515625 -1.8125,0 -3.04687,-0.53125 -1.21875,-0.53125 -1.92188,-1.59375 -0.6875,-1.0625 -0.71875,-2.40625 z m 16.44357,4.296875 v -11.78125 h -4.40625 v -1.578125 h 10.57813 v 1.578125 h -4.40625 v 11.78125 z m 8.021,0 V 21.542282 h 9.65625 v 1.578125 h -7.875 v 4.09375 h 7.375 v 1.5625 h -7.375 v 4.546875 h 8.1875 v 1.578125 z m 12.36545,0 V 21.542282 h 2.65625 l 3.15625,9.453125 q 0.4375,1.328125 0.64062,1.984375 0.23438,-0.734375 0.70313,-2.140625 l 3.20312,-9.296875 h 2.375 v 13.359375 h -1.70312 V 23.729782 l -3.875,11.171875 h -1.59375 l -3.85938,-11.375 v 11.375 z m 14.11893,0 5.125,-13.359375 h 1.90625 l 5.46875,13.359375 h -2.01563 l -1.54687,-4.046875 h -5.59375 l -1.46875,4.046875 z m 3.85937,-5.484375 h 4.53125 l -1.40625,-3.703125 q -0.625,-1.6875 -0.9375,-2.765625 -0.26562,1.28125 -0.71875,2.546875 z"
       id="path11"
       inkscape:connector-curvature="0"
       style="fill:#000000;fill-rule:nonzero" />
    <path
       d="m 305.29404,52.214157 1.76562,0.453125 q -0.5625,2.171875 -2,3.328125 -1.4375,1.140625 -3.53125,1.140625 -2.15625,0 -3.51562,-0.875 -1.34375,-0.890625 -2.0625,-2.546875 -0.70313,-1.671875 -0.70313,-3.59375 0,-2.078125 0.79688,-3.625 0.79687,-1.5625 2.26562,-2.359375 1.48438,-0.8125 3.25,-0.8125 2,0 3.35938,1.015625 1.375,1.015625 1.90625,2.875 l -1.73438,0.40625 q -0.46875,-1.453125 -1.35937,-2.109375 -0.875,-0.671875 -2.20313,-0.671875 -1.54687,0 -2.57812,0.734375 -1.03125,0.734375 -1.45313,1.984375 -0.42187,1.234375 -0.42187,2.5625 0,1.703125 0.5,2.96875 0.5,1.265625 1.54687,1.90625 1.04688,0.625 2.26563,0.625 1.48437,0 2.51562,-0.859375 1.03125,-0.859375 1.39063,-2.546875 z m 3.41043,-1.8125 q 0,-3.328125 1.78125,-5.203125 1.78125,-1.890625 4.60938,-1.890625 1.84375,0 3.32812,0.890625 1.48438,0.875 2.26563,2.46875 0.78125,1.578125 0.78125,3.578125 0,2.03125 -0.82813,3.640625 -0.8125,1.59375 -2.3125,2.421875 -1.5,0.828125 -3.25,0.828125 -1.875,0 -3.35937,-0.90625 -1.48438,-0.921875 -2.25,-2.5 -0.76563,-1.578125 -0.76563,-3.328125 z m 1.8125,0.01563 q 0,2.421875 1.29688,3.8125 1.29687,1.390625 3.26562,1.390625 2,0 3.28125,-1.40625 1.28125,-1.40625 1.28125,-3.984375 0,-1.625 -0.54687,-2.84375 -0.54688,-1.21875 -1.60938,-1.875 -1.0625,-0.671875 -2.375,-0.671875 -1.89062,0 -3.25,1.296875 -1.34375,1.28125 -1.34375,4.28125 z m 13.18332,6.484375 v -13.35938 h 2.65625 l 3.15625,9.453125 q 0.4375,1.328125 0.64062,1.984375 0.23438,-0.734375 0.70313,-2.140625 l 3.20312,-9.296875 h 2.375 v 13.359375 h -1.70312 V 45.729782 l -3.875,11.171875 h -1.59375 l -3.85938,-11.375 v 11.375 z m 15.58768,0 v -13.35938 h 5.04687 q 1.32813,0 2.03125,0.125 0.96875,0.171875 1.64063,0.640625 0.67187,0.453125 1.07812,1.28125 0.40625,0.828125 0.40625,1.828125 0,1.703125 -1.09375,2.890625 -1.07812,1.171875 -3.92187,1.171875 h -3.42188 v 5.421875 z m 1.76562,-7 h 3.45313 q 1.71875,0 2.4375,-0.640625 0.71875,-0.640625 0.71875,-1.796875 0,-0.84375 -0.42188,-1.4375 -0.42187,-0.59375 -1.125,-0.78125 -0.4375,-0.125 -1.64062,-0.125 h -3.42188 z m 10.59982,7 v -13.35938 h 1.78125 v 11.78125 h 6.5625 v 1.578125 z m 10.48508,0 v -13.35938 h 9.65625 v 1.578125 h -7.875 v 4.09375 h 7.375 v 1.5625 h -7.375 v 4.546875 h 8.1875 v 1.578125 z m 15.81857,0 v -11.78125 h -4.40625 v -1.578125 h 10.57813 v 1.578125 h -4.40625 v 11.78125 z m 7.4585,-6.5 q 0,-3.328125 1.78125,-5.203125 1.78125,-1.890625 4.60938,-1.890625 1.84375,0 3.32812,0.890625 1.48438,0.875 2.26563,2.46875 0.78125,1.578125 0.78125,3.578125 0,2.03125 -0.82813,3.640625 -0.8125,1.59375 -2.3125,2.421875 -1.5,0.828125 -3.25,0.828125 -1.875,0 -3.35937,-0.90625 -1.48438,-0.921875 -2.25,-2.5 -0.76563,-1.578125 -0.76563,-3.328125 z m 1.8125,0.01563 q 0,2.421875 1.29688,3.8125 1.29687,1.390625 3.26562,1.390625 2,0 3.28125,-1.40625 1.28125,-1.40625 1.28125,-3.984375 0,-1.625 -0.54687,-2.84375 -0.54688,-1.21875 -1.60938,-1.875 -1.0625,-0.671875 -2.375,-0.671875 -1.89062,0 -3.25,1.296875 -1.34375,1.28125 -1.34375,4.28125 z"
       id="path13"
       inkscape:connector-curvature="0"
       style="fill:#000000;fill-rule:nonzero" />
    <path
       d="m 50.93744,139.00085 h 175.73714 v 57.97064 H 50.93744 Z"
       id="path15"
       inkscape:connector-curvature="0"
       style="fill:#000000;fill-opacity:0;fill-rule:evenodd" />
    <path
       d="m 50.93744,139.00085 h 175.73714 v 57.97064 H 50.93744 Z"
       id="path17"
       inkscape:connector-curvature="0"
       style="fill-rule:evenodd;stroke:#000000;stroke-width:1;stroke-linecap:butt;stroke-linejoin:round" />
    <path
       d="m 61.37494,165.92085 v -13.35938 h 4.609375 q 1.546875,0 2.375,0.20313 1.140625,0.25 1.953125,0.95312 1.0625,0.89063 1.578125,2.28125 0.53125,1.39063 0.53125,3.17188 0,1.51562 -0.359375,2.70312 -0.359375,1.17188 -0.921875,1.9375 -0.546875,0.76563 -1.203125,1.21875 -0.65625,0.4375 -1.59375,0.67188 -0.9375,0.21875 -2.140625,0.21875 z m 1.765625,-1.57813 h 2.859375 q 1.3125,0 2.0625,-0.23437 0.75,-0.25 1.203125,-0.70313 0.625,-0.625 0.96875,-1.6875 0.359375,-1.0625 0.359375,-2.57812 0,-2.09375 -0.6875,-3.21875 -0.6875,-1.125 -1.671875,-1.5 -0.703125,-0.28125 -2.28125,-0.28125 h -2.8125 z m 11.504196,-9.89062 v -1.89063 h 1.640625 v 1.89063 z m 0,11.46875 v -9.67188 h 1.640625 v 9.67188 z m 3.488571,-2.89063 1.625,-0.25 q 0.125,0.96875 0.75,1.5 0.625,0.51563 1.75,0.51563 1.125,0 1.671875,-0.45313 0.546875,-0.46875 0.546875,-1.09375 0,-0.54687 -0.484375,-0.875 -0.328125,-0.21875 -1.671875,-0.54687 -1.8125,-0.46875 -2.515625,-0.79688 -0.6875,-0.32812 -1.046875,-0.90625 -0.359375,-0.59375 -0.359375,-1.3125 0,-0.64062 0.296875,-1.1875 0.296875,-0.5625 0.8125,-0.92187 0.375,-0.28125 1.03125,-0.46875 0.671875,-0.20313 1.421875,-0.20313 1.140625,0 2,0.32813 0.859375,0.32812 1.265625,0.89062 0.421875,0.5625 0.578125,1.5 l -1.609375,0.21875 q -0.109375,-0.75 -0.640625,-1.17187 -0.515625,-0.42188 -1.46875,-0.42188 -1.140625,0 -1.625,0.375 -0.46875,0.375 -0.46875,0.875 0,0.3125 0.1875,0.57813 0.203125,0.26562 0.640625,0.4375 0.234375,0.0937 1.4375,0.42187 1.75,0.45313 2.4375,0.75 0.6875,0.29688 1.078125,0.85938 0.390625,0.5625 0.390625,1.40625 0,0.82812 -0.484375,1.54687 -0.46875,0.71875 -1.375,1.125 -0.90625,0.39063 -2.046875,0.39063 -1.875,0 -2.875,-0.78125 -0.984375,-0.78125 -1.25,-2.32813 z m 9.984375,6.59375 v -13.375 h 1.484375 v 1.25 q 0.53125,-0.73437 1.1875,-1.09375 0.671875,-0.375 1.625,-0.375 1.234375,0 2.171875,0.64063 0.953125,0.625 1.4375,1.79687 0.484375,1.15625 0.484375,2.54688 0,1.48437 -0.53125,2.67187 -0.53125,1.1875 -1.546875,1.82813 -1.015625,0.625 -2.140625,0.625 -0.8125,0 -1.46875,-0.34375 -0.65625,-0.34375 -1.0625,-0.875 v 4.70312 z m 1.484375,-8.48437 q 0,1.85937 0.75,2.76562 0.765625,0.89063 1.828125,0.89063 1.09375,0 1.875,-0.92188 0.78125,-0.9375 0.78125,-2.875 0,-1.84375 -0.765625,-2.76562 -0.75,-0.92188 -1.8125,-0.92188 -1.046875,0 -1.859375,0.98438 -0.796875,0.96875 -0.796875,2.84375 z m 8.281967,-0.0625 q 0,-2.6875 1.484375,-3.96875 1.249996,-1.07813 3.046876,-1.07813 2,0 3.26562,1.3125 1.26563,1.29688 1.26563,3.60938 0,1.85937 -0.5625,2.9375 -0.5625,1.0625 -1.64063,1.65625 -1.0625,0.59375 -2.32812,0.59375 -2.03125,0 -3.281251,-1.29688 -1.25,-1.3125 -1.25,-3.76562 z m 1.6875,0 q 0,1.85937 0.796871,2.79687 0.8125,0.92188 2.04688,0.92188 1.21875,0 2.03125,-0.92188 0.8125,-0.9375 0.8125,-2.84375 0,-1.79687 -0.8125,-2.71875 -0.8125,-0.92187 -2.03125,-0.92187 -1.23438,0 -2.04688,0.92187 -0.796871,0.90625 -0.796871,2.76563 z m 8.641341,1.95312 1.625,-0.25 q 0.125,0.96875 0.75,1.5 0.625,0.51563 1.75,0.51563 1.125,0 1.67188,-0.45313 0.54687,-0.46875 0.54687,-1.09375 0,-0.54687 -0.48437,-0.875 -0.32813,-0.21875 -1.67188,-0.54687 -1.8125,-0.46875 -2.51562,-0.79688 -0.6875,-0.32812 -1.04688,-0.90625 -0.35937,-0.59375 -0.35937,-1.3125 0,-0.64062 0.29687,-1.1875 0.29688,-0.5625 0.8125,-0.92187 0.375,-0.28125 1.03125,-0.46875 0.67188,-0.20313 1.42188,-0.20313 1.14062,0 2,0.32813 0.85937,0.32812 1.26562,0.89062 0.42188,0.5625 0.57813,1.5 l -1.60938,0.21875 q -0.10937,-0.75 -0.64062,-1.17187 -0.51563,-0.42188 -1.46875,-0.42188 -1.14063,0 -1.625,0.375 -0.46875,0.375 -0.46875,0.875 0,0.3125 0.1875,0.57813 0.20312,0.26562 0.64062,0.4375 0.23438,0.0937 1.4375,0.42187 1.75,0.45313 2.4375,0.75 0.6875,0.29688 1.07813,0.85938 0.39062,0.5625 0.39062,1.40625 0,0.82812 -0.48437,1.54687 -0.46875,0.71875 -1.375,1.125 -0.90625,0.39063 -2.04688,0.39063 -1.875,0 -2.875,-0.78125 -0.98437,-0.78125 -1.25,-2.32813 z m 9.98438,-8.57812 v -1.89063 h 1.64062 v 1.89063 z m 0,11.46875 v -9.67188 h 1.64062 v 9.67188 z m 7.72294,-1.46875 0.23438,1.45312 q -0.6875,0.14063 -1.23438,0.14063 -0.89062,0 -1.39062,-0.28125 -0.48438,-0.28125 -0.6875,-0.73438 -0.20313,-0.46875 -0.20313,-1.9375 v -5.57812 h -1.20312 v -1.26563 h 1.20312 v -2.39062 l 1.625,-0.98438 v 3.375 h 1.65625 v 1.26563 h -1.65625 v 5.67187 q 0,0.6875 0.0781,0.89063 0.0937,0.20312 0.28125,0.32812 0.20312,0.10938 0.57812,0.10938 0.26563,0 0.71875,-0.0625 z m 1.60518,-10 v -1.89063 h 1.64063 v 1.89063 z m 0,11.46875 v -9.67188 h 1.64063 v 9.67188 z m 6.83232,0 -3.6875,-9.67188 h 1.73438 l 2.07812,5.79688 q 0.32813,0.9375 0.625,1.9375 0.20313,-0.76563 0.60938,-1.82813 l 2.14062,-5.90625 h 1.6875 l -3.65625,9.67188 z m 6.03125,-4.84375 q 0,-2.6875 1.48438,-3.96875 1.25,-1.07813 3.04687,-1.07813 2,0 3.26563,1.3125 1.26562,1.29688 1.26562,3.60938 0,1.85937 -0.5625,2.9375 -0.5625,1.0625 -1.64062,1.65625 -1.0625,0.59375 -2.32813,0.59375 -2.03125,0 -3.28125,-1.29688 -1.25,-1.3125 -1.25,-3.76562 z m 1.6875,0 q 0,1.85937 0.79688,2.79687 0.8125,0.92188 2.04687,0.92188 1.21875,0 2.03125,-0.92188 0.8125,-0.9375 0.8125,-2.84375 0,-1.79687 -0.8125,-2.71875 -0.8125,-0.92187 -2.03125,-0.92187 -1.23437,0 -2.04687,0.92187 -0.79688,0.90625 -0.79688,2.76563 z m 20.19965,4.84375 h -1.64063 v -10.45313 q -0.59375,0.5625 -1.5625,1.14063 -0.95312,0.5625 -1.71875,0.84375 v -1.59375 q 1.375,-0.64063 2.40625,-1.5625 1.03125,-0.92188 1.45313,-1.78125 h 1.0625 z"
       id="path19"
       inkscape:connector-curvature="0"
       style="fill:#000000;fill-rule:nonzero" />
    <path
       d="m 261.32404,139.00085 h 175.73715 v 57.97064 H 261.32404 Z"
       id="path21"
       inkscape:connector-curvature="0"
       style="fill:#000000;fill-opacity:0;fill-rule:evenodd" />
    <path
       d="m 261.32404,139.00085 h 175.73715 v 57.97064 H 261.32404 Z"
       id="path23"
       inkscape:connector-curvature="0"
       style="fill-rule:evenodd;stroke:#000000;stroke-width:1;stroke-linecap:butt;stroke-linejoin:round" />
    <path
       d="m 271.76154,165.92085 v -13.35938 h 4.60938 q 1.54687,0 2.375,0.20313 1.14062,0.25 1.95312,0.95312 1.0625,0.89063 1.57813,2.28125 0.53125,1.39063 0.53125,3.17188 0,1.51562 -0.35938,2.70312 -0.35937,1.17188 -0.92187,1.9375 -0.54688,0.76563 -1.20313,1.21875 -0.65625,0.4375 -1.59375,0.67188 -0.9375,0.21875 -2.14062,0.21875 z m 1.76563,-1.57813 h 2.85937 q 1.3125,0 2.0625,-0.23437 0.75,-0.25 1.20313,-0.70313 0.625,-0.625 0.96875,-1.6875 0.35937,-1.0625 0.35937,-2.57812 0,-2.09375 -0.6875,-3.21875 -0.6875,-1.125 -1.67187,-1.5 -0.70313,-0.28125 -2.28125,-0.28125 h -2.8125 z m 11.50421,-9.89062 v -1.89063 h 1.64062 v 1.89063 z m 0,11.46875 v -9.67188 h 1.64062 v 9.67188 z m 3.48855,-2.89063 1.625,-0.25 q 0.125,0.96875 0.75,1.5 0.625,0.51563 1.75,0.51563 1.125,0 1.67188,-0.45313 0.54687,-0.46875 0.54687,-1.09375 0,-0.54687 -0.48437,-0.875 -0.32813,-0.21875 -1.67188,-0.54687 -1.8125,-0.46875 -2.51562,-0.79688 -0.6875,-0.32812 -1.04688,-0.90625 -0.35937,-0.59375 -0.35937,-1.3125 0,-0.64062 0.29687,-1.1875 0.29688,-0.5625 0.8125,-0.92187 0.375,-0.28125 1.03125,-0.46875 0.67188,-0.20313 1.42188,-0.20313 1.14062,0 2,0.32813 0.85937,0.32812 1.26562,0.89062 0.42188,0.5625 0.57813,1.5 l -1.60938,0.21875 q -0.10937,-0.75 -0.64062,-1.17187 -0.51563,-0.42188 -1.46875,-0.42188 -1.14063,0 -1.625,0.375 -0.46875,0.375 -0.46875,0.875 0,0.3125 0.1875,0.57813 0.20312,0.26562 0.64062,0.4375 0.23438,0.0937 1.4375,0.42187 1.75,0.45313 2.4375,0.75 0.6875,0.29688 1.07813,0.85938 0.39062,0.5625 0.39062,1.40625 0,0.82812 -0.48437,1.54687 -0.46875,0.71875 -1.375,1.125 -0.90625,0.39063 -2.04688,0.39063 -1.875,0 -2.875,-0.78125 -0.98437,-0.78125 -1.25,-2.32813 z m 9.98438,6.59375 v -13.375 h 1.48437 v 1.25 q 0.53125,-0.73437 1.1875,-1.09375 0.67188,-0.375 1.625,-0.375 1.23438,0 2.17188,0.64063 0.95312,0.625 1.4375,1.79687 0.48437,1.15625 0.48437,2.54688 0,1.48437 -0.53125,2.67187 -0.53125,1.1875 -1.54687,1.82813 -1.01563,0.625 -2.14063,0.625 -0.8125,0 -1.46875,-0.34375 -0.65625,-0.34375 -1.0625,-0.875 v 4.70312 z m 1.48437,-8.48437 q 0,1.85937 0.75,2.76562 0.76563,0.89063 1.82813,0.89063 1.09375,0 1.875,-0.92188 0.78125,-0.9375 0.78125,-2.875 0,-1.84375 -0.76563,-2.76562 -0.75,-0.92188 -1.8125,-0.92188 -1.04687,0 -1.85937,0.98438 -0.79688,0.96875 -0.79688,2.84375 z m 8.28198,-0.0625 q 0,-2.6875 1.48438,-3.96875 1.25,-1.07813 3.04687,-1.07813 2,0 3.26563,1.3125 1.26562,1.29688 1.26562,3.60938 0,1.85937 -0.5625,2.9375 -0.5625,1.0625 -1.64062,1.65625 -1.0625,0.59375 -2.32813,0.59375 -2.03125,0 -3.28125,-1.29688 -1.25,-1.3125 -1.25,-3.76562 z m 1.6875,0 q 0,1.85937 0.79688,2.79687 0.8125,0.92188 2.04687,0.92188 1.21875,0 2.03125,-0.92188 0.8125,-0.9375 0.8125,-2.84375 0,-1.79687 -0.8125,-2.71875 -0.8125,-0.92187 -2.03125,-0.92187 -1.23437,0 -2.04687,0.92187 -0.79688,0.90625 -0.79688,2.76563 z m 8.64133,1.95312 1.625,-0.25 q 0.125,0.96875 0.75,1.5 0.625,0.51563 1.75,0.51563 1.125,0 1.67188,-0.45313 0.54687,-0.46875 0.54687,-1.09375 0,-0.54687 -0.48437,-0.875 -0.32813,-0.21875 -1.67188,-0.54687 -1.8125,-0.46875 -2.51562,-0.79688 -0.6875,-0.32812 -1.04688,-0.90625 -0.35937,-0.59375 -0.35937,-1.3125 0,-0.64062 0.29687,-1.1875 0.29688,-0.5625 0.8125,-0.92187 0.375,-0.28125 1.03125,-0.46875 0.67188,-0.20313 1.42188,-0.20313 1.14062,0 2,0.32813 0.85937,0.32812 1.26562,0.89062 0.42188,0.5625 0.57813,1.5 l -1.60938,0.21875 q -0.10937,-0.75 -0.64062,-1.17187 -0.51563,-0.42188 -1.46875,-0.42188 -1.14063,0 -1.625,0.375 -0.46875,0.375 -0.46875,0.875 0,0.3125 0.1875,0.57813 0.20312,0.26562 0.64062,0.4375 0.23438,0.0937 1.4375,0.42187 1.75,0.45313 2.4375,0.75 0.6875,0.29688 1.07813,0.85938 0.39062,0.5625 0.39062,1.40625 0,0.82812 -0.48437,1.54687 -0.46875,0.71875 -1.375,1.125 -0.90625,0.39063 -2.04688,0.39063 -1.875,0 -2.875,-0.78125 -0.98437,-0.78125 -1.25,-2.32813 z m 9.98438,-8.57812 v -1.89063 h 1.64062 v 1.89063 z m 0,11.46875 v -9.67188 h 1.64062 v 9.67188 z m 7.72296,-1.46875 0.23437,1.45312 q -0.6875,0.14063 -1.23437,0.14063 -0.89063,0 -1.39063,-0.28125 -0.48437,-0.28125 -0.6875,-0.73438 -0.20312,-0.46875 -0.20312,-1.9375 v -5.57812 h -1.20313 v -1.26563 h 1.20313 v -2.39062 l 1.625,-0.98438 v 3.375 h 1.65625 v 1.26563 h -1.65625 v 5.67187 q 0,0.6875 0.0781,0.89063 0.0937,0.20312 0.28125,0.32812 0.20313,0.10938 0.57813,0.10938 0.26562,0 0.71875,-0.0625 z m 1.60516,-10 v -1.89063 h 1.64063 v 1.89063 z m 0,11.46875 v -9.67188 h 1.64063 v 9.67188 z m 6.83234,0 -3.6875,-9.67188 h 1.73437 l 2.07813,5.79688 q 0.32812,0.9375 0.625,1.9375 0.20312,-0.76563 0.60937,-1.82813 l 2.14063,-5.90625 h 1.6875 l -3.65625,9.67188 z m 6.03125,-4.84375 q 0,-2.6875 1.48437,-3.96875 1.25,-1.07813 3.04688,-1.07813 2,0 3.26562,1.3125 1.26563,1.29688 1.26563,3.60938 0,1.85937 -0.5625,2.9375 -0.5625,1.0625 -1.64063,1.65625 -1.0625,0.59375 -2.32812,0.59375 -2.03125,0 -3.28125,-1.29688 -1.25,-1.3125 -1.25,-3.76562 z m 1.6875,0 q 0,1.85937 0.79687,2.79687 0.8125,0.92188 2.04688,0.92188 1.21875,0 2.03125,-0.92188 0.8125,-0.9375 0.8125,-2.84375 0,-1.79687 -0.8125,-2.71875 -0.8125,-0.92187 -2.03125,-0.92187 -1.23438,0 -2.04688,0.92187 -0.79687,0.90625 -0.79687,2.76563 z m 22.63714,3.26562 v 1.57813 h -8.82812 q -0.0156,-0.59375 0.1875,-1.14063 0.34375,-0.90625 1.07812,-1.78125 0.75,-0.875 2.15625,-2.01562 2.17188,-1.78125 2.9375,-2.82813 0.76563,-1.04687 0.76563,-1.96875 0,-0.98437 -0.70313,-1.64062 -0.6875,-0.67188 -1.8125,-0.67188 -1.1875,0 -1.90625,0.71875 -0.70312,0.70313 -0.70312,1.95313 l -1.6875,-0.17188 q 0.17187,-1.89062 1.29687,-2.875 1.14063,-0.98437 3.03125,-0.98437 1.92188,0 3.04688,1.0625 1.125,1.0625 1.125,2.64062 0,0.79688 -0.32813,1.57813 -0.32812,0.78125 -1.09375,1.64062 -0.75,0.84375 -2.53125,2.34375 -1.46875,1.23438 -1.89062,1.6875 -0.42188,0.4375 -0.6875,0.875 z"
       id="path25"
       inkscape:connector-curvature="0"
       style="fill:#000000;fill-rule:nonzero" />
    <path
       d="m 464.15186,139.00085 h 175.73712 v 57.97064 H 464.15186 Z"
       id="path27"
       inkscape:connector-curvature="0"
       style="fill:#000000;fill-opacity:0;fill-rule:evenodd" />
    <path
       d="m 464.15186,139.00085 h 175.73712 v 57.97064 H 464.15186 Z"
       id="path29"
       inkscape:connector-curvature="0"
       style="fill-rule:evenodd;stroke:#000000;stroke-width:1;stroke-linecap:butt;stroke-linejoin:round" />
    <path
       d="m 474.58936,165.92085 v -13.35938 h 4.60937 q 1.54688,0 2.375,0.20313 1.14063,0.25 1.95313,0.95312 1.0625,0.89063 1.57812,2.28125 0.53125,1.39063 0.53125,3.17188 0,1.51562 -0.35937,2.70312 -0.35938,1.17188 -0.92188,1.9375 -0.54687,0.76563 -1.20312,1.21875 -0.65625,0.4375 -1.59375,0.67188 -0.9375,0.21875 -2.14063,0.21875 z m 1.76562,-1.57813 h 2.85938 q 1.3125,0 2.0625,-0.23437 0.75,-0.25 1.20312,-0.70313 0.625,-0.625 0.96875,-1.6875 0.35938,-1.0625 0.35938,-2.57812 0,-2.09375 -0.6875,-3.21875 -0.6875,-1.125 -1.67188,-1.5 -0.70312,-0.28125 -2.28125,-0.28125 h -2.8125 z m 11.50419,-9.89062 v -1.89063 h 1.64062 v 1.89063 z m 0,11.46875 v -9.67188 h 1.64062 v 9.67188 z m 3.48858,-2.89063 1.625,-0.25 q 0.125,0.96875 0.75,1.5 0.625,0.51563 1.75,0.51563 1.125,0 1.67188,-0.45313 0.54687,-0.46875 0.54687,-1.09375 0,-0.54687 -0.48437,-0.875 -0.32813,-0.21875 -1.67188,-0.54687 -1.8125,-0.46875 -2.51562,-0.79688 -0.6875,-0.32812 -1.04688,-0.90625 -0.35937,-0.59375 -0.35937,-1.3125 0,-0.64062 0.29687,-1.1875 0.29688,-0.5625 0.8125,-0.92187 0.375,-0.28125 1.03125,-0.46875 0.67188,-0.20313 1.42188,-0.20313 1.14062,0 2,0.32813 0.85937,0.32812 1.26562,0.89062 0.42188,0.5625 0.57813,1.5 l -1.60938,0.21875 q -0.10937,-0.75 -0.64062,-1.17187 -0.51563,-0.42188 -1.46875,-0.42188 -1.14063,0 -1.625,0.375 -0.46875,0.375 -0.46875,0.875 0,0.3125 0.1875,0.57813 0.20312,0.26562 0.64062,0.4375 0.23438,0.0937 1.4375,0.42187 1.75,0.45313 2.4375,0.75 0.6875,0.29688 1.07813,0.85938 0.39062,0.5625 0.39062,1.40625 0,0.82812 -0.48437,1.54687 -0.46875,0.71875 -1.375,1.125 -0.90625,0.39063 -2.04688,0.39063 -1.875,0 -2.875,-0.78125 -0.98437,-0.78125 -1.25,-2.32813 z m 9.98438,6.59375 v -13.375 h 1.48437 v 1.25 q 0.53125,-0.73437 1.1875,-1.09375 0.67188,-0.375 1.625,-0.375 1.23438,0 2.17188,0.64063 0.95312,0.625 1.4375,1.79687 0.48437,1.15625 0.48437,2.54688 0,1.48437 -0.53125,2.67187 -0.53125,1.1875 -1.54687,1.82813 -1.01563,0.625 -2.14063,0.625 -0.8125,0 -1.46875,-0.34375 -0.65625,-0.34375 -1.0625,-0.875 v 4.70312 z m 1.48437,-8.48437 q 0,1.85937 0.75,2.76562 0.76563,0.89063 1.82813,0.89063 1.09375,0 1.875,-0.92188 0.78125,-0.9375 0.78125,-2.875 0,-1.84375 -0.76563,-2.76562 -0.75,-0.92188 -1.8125,-0.92188 -1.04687,0 -1.85937,0.98438 -0.79688,0.96875 -0.79688,2.84375 z m 8.28195,-0.0625 q 0,-2.6875 1.48438,-3.96875 1.25,-1.07813 3.04687,-1.07813 2,0 3.26563,1.3125 1.26562,1.29688 1.26562,3.60938 0,1.85937 -0.5625,2.9375 -0.5625,1.0625 -1.64062,1.65625 -1.0625,0.59375 -2.32813,0.59375 -2.03125,0 -3.28125,-1.29688 -1.25,-1.3125 -1.25,-3.76562 z m 1.6875,0 q 0,1.85937 0.79688,2.79687 0.8125,0.92188 2.04687,0.92188 1.21875,0 2.03125,-0.92188 0.8125,-0.9375 0.8125,-2.84375 0,-1.79687 -0.8125,-2.71875 -0.8125,-0.92187 -2.03125,-0.92187 -1.23437,0 -2.04687,0.92187 -0.79688,0.90625 -0.79688,2.76563 z m 8.64136,1.95312 1.625,-0.25 q 0.125,0.96875 0.75,1.5 0.625,0.51563 1.75,0.51563 1.125,0 1.67188,-0.45313 0.54687,-0.46875 0.54687,-1.09375 0,-0.54687 -0.48437,-0.875 -0.32813,-0.21875 -1.67188,-0.54687 -1.8125,-0.46875 -2.51562,-0.79688 -0.6875,-0.32812 -1.04688,-0.90625 -0.35937,-0.59375 -0.35937,-1.3125 0,-0.64062 0.29687,-1.1875 0.29688,-0.5625 0.8125,-0.92187 0.375,-0.28125 1.03125,-0.46875 0.67188,-0.20313 1.42188,-0.20313 1.14062,0 2,0.32813 0.85937,0.32812 1.26562,0.89062 0.42188,0.5625 0.57813,1.5 l -1.60938,0.21875 q -0.10937,-0.75 -0.64062,-1.17187 -0.51563,-0.42188 -1.46875,-0.42188 -1.14063,0 -1.625,0.375 -0.46875,0.375 -0.46875,0.875 0,0.3125 0.1875,0.57813 0.20312,0.26562 0.64062,0.4375 0.23438,0.0937 1.4375,0.42187 1.75,0.45313 2.4375,0.75 0.6875,0.29688 1.07813,0.85938 0.39062,0.5625 0.39062,1.40625 0,0.82812 -0.48437,1.54687 -0.46875,0.71875 -1.375,1.125 -0.90625,0.39063 -2.04688,0.39063 -1.875,0 -2.875,-0.78125 -0.98437,-0.78125 -1.25,-2.32813 z m 9.98438,-8.57812 v -1.89063 h 1.64062 v 1.89063 z m 0,11.46875 v -9.67188 h 1.64062 v 9.67188 z m 7.72296,-1.46875 0.23437,1.45312 q -0.6875,0.14063 -1.23437,0.14063 -0.89063,0 -1.39063,-0.28125 -0.48437,-0.28125 -0.6875,-0.73438 -0.20312,-0.46875 -0.20312,-1.9375 v -5.57812 h -1.20313 v -1.26563 h 1.20313 v -2.39062 l 1.625,-0.98438 v 3.375 h 1.65625 v 1.26563 h -1.65625 v 5.67187 q 0,0.6875 0.0781,0.89063 0.0937,0.20312 0.28125,0.32812 0.20313,0.10938 0.57813,0.10938 0.26562,0 0.71875,-0.0625 z m 1.60516,-10 v -1.89063 h 1.64063 v 1.89063 z m 0,11.46875 v -9.67188 h 1.64063 v 9.67188 z m 6.83234,0 -3.6875,-9.67188 h 1.73437 l 2.07813,5.79688 q 0.32812,0.9375 0.625,1.9375 0.20312,-0.76563 0.60937,-1.82813 l 2.14063,-5.90625 h 1.6875 l -3.65625,9.67188 z m 6.03125,-4.84375 q 0,-2.6875 1.48437,-3.96875 1.25,-1.07813 3.04688,-1.07813 2,0 3.26562,1.3125 1.26563,1.29688 1.26563,3.60938 0,1.85937 -0.5625,2.9375 -0.5625,1.0625 -1.64063,1.65625 -1.0625,0.59375 -2.32812,0.59375 -2.03125,0 -3.28125,-1.29688 -1.25,-1.3125 -1.25,-3.76562 z m 1.6875,0 q 0,1.85937 0.79687,2.79687 0.8125,0.92188 2.04688,0.92188 1.21875,0 2.03125,-0.92188 0.8125,-0.9375 0.8125,-2.84375 0,-1.79687 -0.8125,-2.71875 -0.8125,-0.92187 -2.03125,-0.92187 -1.23438,0 -2.04688,0.92187 -0.79687,0.90625 -0.79687,2.76563 z m 14.02777,1.3125 1.64062,-0.21875 q 0.28125,1.40625 0.95313,2.01562 0.6875,0.60938 1.65625,0.60938 1.15625,0 1.95312,-0.79688 0.79688,-0.79687 0.79688,-1.98437 0,-1.125 -0.73438,-1.85938 -0.73437,-0.73437 -1.875,-0.73437 -0.46875,0 -1.15625,0.17187 l 0.1875,-1.4375 q 0.15625,0.0156 0.26563,0.0156 1.04687,0 1.875,-0.54688 0.84375,-0.54687 0.84375,-1.67187 0,-0.90625 -0.60938,-1.5 -0.60937,-0.59375 -1.57812,-0.59375 -0.95313,0 -1.59375,0.60937 -0.64063,0.59375 -0.8125,1.79688 l -1.64063,-0.29688 q 0.29688,-1.64062 1.35938,-2.54687 1.0625,-0.90625 2.65625,-0.90625 1.09375,0 2,0.46875 0.92187,0.46875 1.40625,1.28125 0.5,0.8125 0.5,1.71875 0,0.85937 -0.46875,1.57812 -0.46875,0.70313 -1.375,1.125 1.1875,0.28125 1.84375,1.14063 0.65625,0.85937 0.65625,2.15625 0,1.73437 -1.28125,2.95312 -1.26563,1.21875 -3.21875,1.21875 -1.76563,0 -2.92188,-1.04687 -1.15625,-1.04688 -1.32812,-2.71875 z"
       id="path31"
       inkscape:connector-curvature="0"
       style="fill:#000000;fill-rule:nonzero" />
    <path
       d="m 339.43164,92.38826 -205.33748,45.3528"
       id="path33"
       inkscape:connector-curvature="0"
       style="fill:#000000;fill-opacity:0;fill-rule:evenodd" />
    <path
       d="m 339.43164,92.38826 -205.33748,45.3528"
       id="path35"
       inkscape:connector-curvature="0"
       style="fill-rule:evenodd;stroke:#000000;stroke-width:1;stroke-linecap:butt;stroke-linejoin:round" />
    <path
       d="m 339.43164,93.648056 1.26971,42.853044"
       id="path37"
       inkscape:connector-curvature="0"
       style="fill:#000000;fill-opacity:0;fill-rule:evenodd" />
    <path
       d="m 339.43164,93.648056 1.26971,42.853044"
       id="path39"
       inkscape:connector-curvature="0"
       style="fill-rule:evenodd;stroke:#000000;stroke-width:1;stroke-linecap:butt;stroke-linejoin:round" />
    <path
       d="m 339.43164,93.648056 201.568,44.083084"
       id="path41"
       inkscape:connector-curvature="0"
       style="fill:#000000;fill-opacity:0;fill-rule:evenodd" />
    <path
       d="m 339.43164,93.648056 201.568,44.083084"
       id="path43"
       inkscape:connector-curvature="0"
       style="fill-rule:evenodd;stroke:#000000;stroke-width:1;stroke-linecap:butt;stroke-linejoin:round" />
    <path
       d="m 10,249.90378 h 90.70866 v 44.09448 H 10 Z"
       id="path45"
       inkscape:connector-curvature="0"
       style="fill:#000000;fill-opacity:0;fill-rule:evenodd" />
    <path
       d="m 10,249.90378 h 90.70866 v 44.09448 H 10 Z"
       id="path47"
       inkscape:connector-curvature="0"
       style="fill-rule:evenodd;stroke:#000000;stroke-width:1;stroke-linecap:butt;stroke-linejoin:round" />
    <path
       d="m 24.390625,269.17252 1.15625,0.15625 q -0.1875,1.1875 -0.96875,1.85938 -0.78125,0.67187 -1.921875,0.67187 -1.40625,0 -2.28125,-0.92187 -0.859375,-0.9375 -0.859375,-2.65625 0,-1.125 0.375,-1.96875 0.375,-0.84375 1.125,-1.25 0.765625,-0.42188 1.65625,-0.42188 1.125,0 1.84375,0.57813 0.71875,0.5625 0.921875,1.60937 l -1.140625,0.17188 q -0.171875,-0.70313 -0.59375,-1.04688 -0.40625,-0.35937 -0.984375,-0.35937 -0.890625,0 -1.453125,0.64062 -0.546875,0.64063 -0.546875,2 0,1.40625 0.53125,2.03125 0.546875,0.625 1.40625,0.625 0.6875,0 1.140625,-0.42187 0.46875,-0.42188 0.59375,-1.29688 z m 1.710937,-0.92187 q 0,-1.92188 1.078125,-2.84375 0.890625,-0.76563 2.171875,-0.76563 1.421875,0 2.328125,0.9375 0.90625,0.92188 0.90625,2.57813 0,1.32812 -0.40625,2.09375 -0.390625,0.76562 -1.15625,1.1875 -0.765625,0.42187 -1.671875,0.42187 -1.453125,0 -2.359375,-0.92187 -0.890625,-0.9375 -0.890625,-2.6875 z m 1.203125,0 q 0,1.32812 0.578125,1.98437 0.59375,0.65625 1.46875,0.65625 0.875,0 1.453125,-0.65625 0.578125,-0.67187 0.578125,-2.03125 0,-1.28125 -0.59375,-1.9375 -0.578125,-0.65625 -1.4375,-0.65625 -0.875,0 -1.46875,0.65625 -0.578125,0.65625 -0.578125,1.98438 z m 6.646851,3.45312 v -6.90625 h 1.046875 v 0.96875 q 0.328125,-0.51562 0.859375,-0.8125 0.546875,-0.3125 1.234375,-0.3125 0.78125,0 1.265625,0.3125 0.484375,0.3125 0.6875,0.89063 0.828125,-1.20313 2.140625,-1.20313 1.03125,0 1.578125,0.57813 0.5625,0.5625 0.5625,1.73437 v 4.75 h -1.171875 v -4.35937 q 0,-0.70313 -0.125,-1 -0.109375,-0.3125 -0.40625,-0.5 -0.296875,-0.1875 -0.703125,-0.1875 -0.71875,0 -1.203125,0.48437 -0.484375,0.48438 -0.484375,1.54688 v 4.01562 h -1.171875 v -4.48437 q 0,-0.78125 -0.296875,-1.17188 -0.28125,-0.39062 -0.921875,-0.39062 -0.5,0 -0.921875,0.26562 -0.421875,0.25 -0.609375,0.75 -0.1875,0.5 -0.1875,1.45313 v 3.57812 z m 11.102432,2.65625 v -9.5625 h 1.078125 v 0.89063 q 0.375,-0.53125 0.84375,-0.78125 0.484375,-0.26563 1.15625,-0.26563 0.875,0 1.546875,0.45313 0.6875,0.45312 1.03125,1.28125 0.34375,0.82812 0.34375,1.82812 0,1.04688 -0.375,1.90625 -0.375,0.84375 -1.109375,1.29688 -0.71875,0.45312 -1.53125,0.45312 -0.578125,0 -1.046875,-0.25 -0.46875,-0.25 -0.765625,-0.625 v 3.375 z m 1.0625,-6.07812 q 0,1.34375 0.53125,1.98437 0.546875,0.625 1.3125,0.625 0.78125,0 1.34375,-0.65625 0.5625,-0.65625 0.5625,-2.04687 0,-1.3125 -0.546875,-1.96875 -0.546875,-0.67188 -1.296875,-0.67188 -0.75,0 -1.328125,0.70313 -0.578125,0.70312 -0.578125,2.03125 z m 6.678101,3.42187 v -1.32812 h 1.34375 v 1.32812 z m 6.187225,0 3.65625,-9.54687 h 1.359375 l 3.90625,9.54687 h -1.4375 l -1.109375,-2.89062 h -3.984375 l -1.046875,2.89062 z m 2.75,-3.92187 h 3.234375 l -1,-2.64063 q -0.453125,-1.20312 -0.671875,-1.96875 -0.1875,0.90625 -0.515625,1.8125 z"
       id="path49"
       inkscape:connector-curvature="0"
       style="fill:#000000;fill-rule:nonzero" />
    <path
       d="m 295.66656,317.91544 h 99.52756 v 44.09448 h -99.52756 z"
       id="path51"
       inkscape:connector-curvature="0"
       style="fill:#000000;fill-opacity:0;fill-rule:evenodd" />
    <path
       d="m 295.66656,317.91544 h 99.52756 v 44.09448 h -99.52756 z"
       id="path53"
       inkscape:connector-curvature="0"
       style="fill-rule:evenodd;stroke:#000000;stroke-width:1;stroke-linecap:butt;stroke-linejoin:round" />
    <path
       d="m 310.0572,337.18417 1.15625,0.15625 q -0.1875,1.1875 -0.96875,1.85937 -0.78125,0.67188 -1.92187,0.67188 -1.40625,0 -2.28125,-0.92188 -0.85938,-0.9375 -0.85938,-2.65625 0,-1.125 0.375,-1.96875 0.375,-0.84375 1.125,-1.25 0.76563,-0.42187 1.65625,-0.42187 1.125,0 1.84375,0.57812 0.71875,0.5625 0.92188,1.60938 l -1.14063,0.17187 q -0.17187,-0.70312 -0.59375,-1.04687 -0.40625,-0.35938 -0.98437,-0.35938 -0.89063,0 -1.45313,0.64063 -0.54687,0.64062 -0.54687,2 0,1.40625 0.53125,2.03125 0.54687,0.625 1.40625,0.625 0.6875,0 1.14062,-0.42188 0.46875,-0.42187 0.59375,-1.29687 z m 1.71094,-0.92188 q 0,-1.92187 1.07812,-2.84375 0.89063,-0.76562 2.17188,-0.76562 1.42187,0 2.32812,0.9375 0.90625,0.92187 0.90625,2.57812 0,1.32813 -0.40625,2.09375 -0.39062,0.76563 -1.15625,1.1875 -0.76562,0.42188 -1.67187,0.42188 -1.45313,0 -2.35938,-0.92188 -0.89062,-0.9375 -0.89062,-2.6875 z m 1.20312,0 q 0,1.32813 0.57813,1.98438 0.59375,0.65625 1.46875,0.65625 0.875,0 1.45312,-0.65625 0.57813,-0.67188 0.57813,-2.03125 0,-1.28125 -0.59375,-1.9375 -0.57813,-0.65625 -1.4375,-0.65625 -0.875,0 -1.46875,0.65625 -0.57813,0.65625 -0.57813,1.98437 z m 6.64685,3.45313 v -6.90625 h 1.04688 v 0.96875 q 0.32812,-0.51563 0.85937,-0.8125 0.54688,-0.3125 1.23438,-0.3125 0.78125,0 1.26562,0.3125 0.48438,0.3125 0.6875,0.89062 0.82813,-1.20312 2.14063,-1.20312 1.03125,0 1.57812,0.57812 0.5625,0.5625 0.5625,1.73438 v 4.75 h -1.17187 v -4.35938 q 0,-0.70312 -0.125,-1 -0.10938,-0.3125 -0.40625,-0.5 -0.29688,-0.1875 -0.70313,-0.1875 -0.71875,0 -1.20312,0.48438 -0.48438,0.48437 -0.48438,1.54687 v 4.01563 h -1.17187 v -4.48438 q 0,-0.78125 -0.29688,-1.17187 -0.28125,-0.39063 -0.92187,-0.39063 -0.5,0 -0.92188,0.26563 -0.42187,0.25 -0.60937,0.75 -0.1875,0.5 -0.1875,1.45312 v 3.57813 z m 11.10245,2.65625 v -9.5625 h 1.07813 v 0.89062 q 0.375,-0.53125 0.84375,-0.78125 0.48437,-0.26562 1.15625,-0.26562 0.875,0 1.54687,0.45312 0.6875,0.45313 1.03125,1.28125 0.34375,0.82813 0.34375,1.82813 0,1.04687 -0.375,1.90625 -0.375,0.84375 -1.10937,1.29687 -0.71875,0.45313 -1.53125,0.45313 -0.57813,0 -1.04688,-0.25 -0.46875,-0.25 -0.76562,-0.625 v 3.375 z m 1.0625,-6.07813 q 0,1.34375 0.53125,1.98438 0.54688,0.625 1.3125,0.625 0.78125,0 1.34375,-0.65625 0.5625,-0.65625 0.5625,-2.04688 0,-1.3125 -0.54687,-1.96875 -0.54688,-0.67187 -1.29688,-0.67187 -0.75,0 -1.32812,0.70312 -0.57813,0.70313 -0.57813,2.03125 z m 6.6781,3.42188 v -1.32813 h 1.34375 v 1.32813 z m 14.03098,-3.34375 1.26562,0.3125 q -0.39062,1.5625 -1.42187,2.375 -1.03125,0.8125 -2.53125,0.8125 -1.53125,0 -2.5,-0.625 -0.96875,-0.625 -1.48438,-1.8125 -0.5,-1.1875 -0.5,-2.5625 0,-1.48438 0.5625,-2.59375 0.57813,-1.10938 1.625,-1.6875 1.0625,-0.57813 2.32813,-0.57813 1.42187,0 2.39062,0.73438 0.98438,0.71875 1.375,2.04687 l -1.25,0.29688 q -0.32812,-1.04688 -0.96875,-1.51563 -0.625,-0.48437 -1.57812,-0.48437 -1.09375,0 -1.84375,0.53125 -0.73438,0.53125 -1.03125,1.42187 -0.29688,0.875 -0.29688,1.82813 0,1.21875 0.34375,2.125 0.35938,0.90625 1.10938,1.35937 0.75,0.4375 1.625,0.4375 1.0625,0 1.79687,-0.60937 0.73438,-0.60938 0.98438,-1.8125 z"
       id="path55"
       inkscape:connector-curvature="0"
       style="fill:#000000;fill-rule:nonzero" />
    <path
       d="m 459.77335,317.91544 h 99.52756 v 44.09448 h -99.52756 z"
       id="path57"
       inkscape:connector-curvature="0"
       style="fill:#000000;fill-opacity:0;fill-rule:evenodd" />
    <path
       d="m 459.77335,317.91544 h 99.52756 v 44.09448 h -99.52756 z"
       id="path59"
       inkscape:connector-curvature="0"
       style="fill-rule:evenodd;stroke:#000000;stroke-width:1;stroke-linecap:butt;stroke-linejoin:round" />
    <path
       d="m 474.16397,337.18417 1.15625,0.15625 q -0.1875,1.1875 -0.96875,1.85937 -0.78125,0.67188 -1.92188,0.67188 -1.40625,0 -2.28125,-0.92188 -0.85937,-0.9375 -0.85937,-2.65625 0,-1.125 0.375,-1.96875 0.375,-0.84375 1.125,-1.25 0.76562,-0.42187 1.65625,-0.42187 1.125,0 1.84375,0.57812 0.71875,0.5625 0.92187,1.60938 l -1.14062,0.17187 q -0.17188,-0.70312 -0.59375,-1.04687 -0.40625,-0.35938 -0.98438,-0.35938 -0.89062,0 -1.45312,0.64063 -0.54688,0.64062 -0.54688,2 0,1.40625 0.53125,2.03125 0.54688,0.625 1.40625,0.625 0.6875,0 1.14063,-0.42188 0.46875,-0.42187 0.59375,-1.29687 z m 1.71094,-0.92188 q 0,-1.92187 1.07812,-2.84375 0.89063,-0.76562 2.17188,-0.76562 1.42187,0 2.32812,0.9375 0.90625,0.92187 0.90625,2.57812 0,1.32813 -0.40625,2.09375 -0.39062,0.76563 -1.15625,1.1875 -0.76562,0.42188 -1.67187,0.42188 -1.45313,0 -2.35938,-0.92188 -0.89062,-0.9375 -0.89062,-2.6875 z m 1.20312,0 q 0,1.32813 0.57813,1.98438 0.59375,0.65625 1.46875,0.65625 0.875,0 1.45312,-0.65625 0.57813,-0.67188 0.57813,-2.03125 0,-1.28125 -0.59375,-1.9375 -0.57813,-0.65625 -1.4375,-0.65625 -0.875,0 -1.46875,0.65625 -0.57813,0.65625 -0.57813,1.98437 z m 6.64685,3.45313 v -6.90625 h 1.04688 v 0.96875 q 0.32812,-0.51563 0.85937,-0.8125 0.54688,-0.3125 1.23438,-0.3125 0.78125,0 1.26562,0.3125 0.48438,0.3125 0.6875,0.89062 0.82813,-1.20312 2.14063,-1.20312 1.03125,0 1.57812,0.57812 0.5625,0.5625 0.5625,1.73438 v 4.75 h -1.17187 v -4.35938 q 0,-0.70312 -0.125,-1 -0.10938,-0.3125 -0.40625,-0.5 -0.29688,-0.1875 -0.70313,-0.1875 -0.71875,0 -1.20312,0.48438 -0.48438,0.48437 -0.48438,1.54687 v 4.01563 h -1.17187 v -4.48438 q 0,-0.78125 -0.29688,-1.17187 -0.28125,-0.39063 -0.92187,-0.39063 -0.5,0 -0.92188,0.26563 -0.42187,0.25 -0.60937,0.75 -0.1875,0.5 -0.1875,1.45312 v 3.57813 z m 11.10242,2.65625 v -9.5625 h 1.07813 v 0.89062 q 0.375,-0.53125 0.84375,-0.78125 0.48437,-0.26562 1.15625,-0.26562 0.875,0 1.54687,0.45312 0.6875,0.45313 1.03125,1.28125 0.34375,0.82813 0.34375,1.82813 0,1.04687 -0.375,1.90625 -0.375,0.84375 -1.10937,1.29687 -0.71875,0.45313 -1.53125,0.45313 -0.57813,0 -1.04688,-0.25 -0.46875,-0.25 -0.76562,-0.625 v 3.375 z m 1.0625,-6.07813 q 0,1.34375 0.53125,1.98438 0.54688,0.625 1.3125,0.625 0.78125,0 1.34375,-0.65625 0.5625,-0.65625 0.5625,-2.04688 0,-1.3125 -0.54687,-1.96875 -0.54688,-0.67187 -1.29688,-0.67187 -0.75,0 -1.32812,0.70312 -0.57813,0.70313 -0.57813,2.03125 z m 6.6781,3.42188 v -1.32813 h 1.34375 v 1.32813 z m 7.18723,0 v -9.54688 h 1.90625 l 2.25,6.76563 q 0.3125,0.9375 0.46875,1.40625 0.15625,-0.51563 0.5,-1.53125 l 2.28125,-6.64063 h 1.70312 v 9.54688 h -1.21875 v -7.98438 l -2.76562,7.98438 h -1.14063 l -2.76562,-8.125 v 8.125 z"
       id="path61"
       inkscape:connector-curvature="0"
       style="fill:#000000;fill-rule:nonzero" />
    <path
       d="m 575.6688,317.91544 h 90.70868 v 44.09448 H 575.6688 Z"
       id="path63"
       inkscape:connector-curvature="0"
       style="fill:#000000;fill-opacity:0;fill-rule:evenodd" />
    <path
       d="m 575.6688,317.91544 h 90.70868 v 44.09448 H 575.6688 Z"
       id="path65"
       inkscape:connector-curvature="0"
       style="fill-rule:evenodd;stroke:#000000;stroke-width:1;stroke-linecap:butt;stroke-linejoin:round" />
    <path
       d="m 590.05945,337.18417 1.15625,0.15625 q -0.1875,1.1875 -0.96875,1.85937 -0.78125,0.67188 -1.92188,0.67188 -1.40625,0 -2.28125,-0.92188 -0.85937,-0.9375 -0.85937,-2.65625 0,-1.125 0.375,-1.96875 0.375,-0.84375 1.125,-1.25 0.76562,-0.42187 1.65625,-0.42187 1.125,0 1.84375,0.57812 0.71875,0.5625 0.92187,1.60938 l -1.14062,0.17187 q -0.17188,-0.70312 -0.59375,-1.04687 -0.40625,-0.35938 -0.98438,-0.35938 -0.89062,0 -1.45312,0.64063 -0.54688,0.64062 -0.54688,2 0,1.40625 0.53125,2.03125 0.54688,0.625 1.40625,0.625 0.6875,0 1.14063,-0.42188 0.46875,-0.42187 0.59375,-1.29687 z m 1.71094,-0.92188 q 0,-1.92187 1.07812,-2.84375 0.89063,-0.76562 2.17188,-0.76562 1.42187,0 2.32812,0.9375 0.90625,0.92187 0.90625,2.57812 0,1.32813 -0.40625,2.09375 -0.39062,0.76563 -1.15625,1.1875 -0.76562,0.42188 -1.67187,0.42188 -1.45313,0 -2.35938,-0.92188 -0.89062,-0.9375 -0.89062,-2.6875 z m 1.20312,0 q 0,1.32813 0.57813,1.98438 0.59375,0.65625 1.46875,0.65625 0.875,0 1.45312,-0.65625 0.57813,-0.67188 0.57813,-2.03125 0,-1.28125 -0.59375,-1.9375 -0.57813,-0.65625 -1.4375,-0.65625 -0.875,0 -1.46875,0.65625 -0.57813,0.65625 -0.57813,1.98437 z m 6.64685,3.45313 v -6.90625 h 1.04688 v 0.96875 q 0.32812,-0.51563 0.85937,-0.8125 0.54688,-0.3125 1.23438,-0.3125 0.78125,0 1.26562,0.3125 0.48438,0.3125 0.6875,0.89062 0.82813,-1.20312 2.14063,-1.20312 1.03125,0 1.57812,0.57812 0.5625,0.5625 0.5625,1.73438 v 4.75 h -1.17187 v -4.35938 q 0,-0.70312 -0.125,-1 -0.10938,-0.3125 -0.40625,-0.5 -0.29688,-0.1875 -0.70313,-0.1875 -0.71875,0 -1.20312,0.48438 -0.48438,0.48437 -0.48438,1.54687 v 4.01563 h -1.17187 v -4.48438 q 0,-0.78125 -0.29688,-1.17187 -0.28125,-0.39063 -0.92187,-0.39063 -0.5,0 -0.92188,0.26563 -0.42187,0.25 -0.60937,0.75 -0.1875,0.5 -0.1875,1.45312 v 3.57813 z m 11.10242,2.65625 v -9.5625 h 1.07813 v 0.89062 q 0.375,-0.53125 0.84375,-0.78125 0.48437,-0.26562 1.15625,-0.26562 0.875,0 1.54687,0.45312 0.6875,0.45313 1.03125,1.28125 0.34375,0.82813 0.34375,1.82813 0,1.04687 -0.375,1.90625 -0.375,0.84375 -1.10937,1.29687 -0.71875,0.45313 -1.53125,0.45313 -0.57813,0 -1.04688,-0.25 -0.46875,-0.25 -0.76562,-0.625 v 3.375 z m 1.0625,-6.07813 q 0,1.34375 0.53125,1.98438 0.54688,0.625 1.3125,0.625 0.78125,0 1.34375,-0.65625 0.5625,-0.65625 0.5625,-2.04688 0,-1.3125 -0.54687,-1.96875 -0.54688,-0.67187 -1.29688,-0.67187 -0.75,0 -1.32812,0.70312 -0.57813,0.70313 -0.57813,2.03125 z m 6.6781,3.42188 v -1.32813 h 1.34375 v 1.32813 z m 6.79663,-3.0625 1.20313,-0.10938 q 0.0781,0.71875 0.39062,1.1875 0.3125,0.45313 0.95313,0.73438 0.65625,0.28125 1.46875,0.28125 0.71875,0 1.26562,-0.21875 0.5625,-0.21875 0.82813,-0.57813 0.26562,-0.375 0.26562,-0.82812 0,-0.45313 -0.26562,-0.78125 -0.25,-0.32813 -0.84375,-0.5625 -0.39063,-0.15625 -1.70313,-0.46875 -1.3125,-0.3125 -1.84375,-0.59375 -0.67187,-0.35938 -1.01562,-0.89063 -0.32813,-0.53125 -0.32813,-1.1875 0,-0.71875 0.40625,-1.34375 0.40625,-0.625 1.1875,-0.95312 0.79688,-0.32813 1.76563,-0.32813 1.04687,0 1.85937,0.34375 0.8125,0.34375 1.25,1.01563 0.4375,0.65625 0.46875,1.48437 l -1.20312,0.0937 q -0.10938,-0.90625 -0.67188,-1.35937 -0.5625,-0.46875 -1.65625,-0.46875 -1.14062,0 -1.67187,0.42187 -0.51563,0.42188 -0.51563,1.01563 0,0.51562 0.35938,0.84375 0.375,0.32812 1.90625,0.6875 1.54687,0.34375 2.10937,0.59375 0.84375,0.39062 1.23438,0.98437 0.39062,0.57813 0.39062,1.35938 0,0.75 -0.4375,1.4375 -0.42187,0.67187 -1.25,1.04687 -0.8125,0.35938 -1.82812,0.35938 -1.29688,0 -2.17188,-0.375 -0.875,-0.375 -1.375,-1.125 -0.5,-0.76563 -0.53125,-1.71875 z"
       id="path67"
       inkscape:connector-curvature="0"
       style="fill:#000000;fill-rule:nonzero" />
    <path
       d="m 423.85794,235.404 h 90.70865 v 44.0945 h -90.70865 z"
       id="path69"
       inkscape:connector-curvature="0"
       style="fill:#000000;fill-opacity:0;fill-rule:evenodd" />
    <path
       d="m 423.85794,235.404 h 90.70865 v 44.0945 h -90.70865 z"
       id="path71"
       inkscape:connector-curvature="0"
       style="fill-rule:evenodd;stroke:#000000;stroke-width:1;stroke-linecap:butt;stroke-linejoin:round" />
    <path
       d="m 438.24857,254.67276 1.15625,0.15625 q -0.1875,1.1875 -0.96875,1.85938 -0.78125,0.67187 -1.92188,0.67187 -1.40625,0 -2.28125,-0.92187 -0.85937,-0.9375 -0.85937,-2.65625 0,-1.125 0.375,-1.96875 0.375,-0.84375 1.125,-1.25 0.76562,-0.42188 1.65625,-0.42188 1.125,0 1.84375,0.57813 0.71875,0.5625 0.92187,1.60937 l -1.14062,0.17188 q -0.17188,-0.70313 -0.59375,-1.04688 -0.40625,-0.35937 -0.98438,-0.35937 -0.89062,0 -1.45312,0.64062 -0.54688,0.64063 -0.54688,2 0,1.40625 0.53125,2.03125 0.54688,0.625 1.40625,0.625 0.6875,0 1.14063,-0.42187 0.46875,-0.42188 0.59375,-1.29688 z m 1.71094,-0.92188 q 0,-1.92187 1.07812,-2.84375 0.89063,-0.76562 2.17188,-0.76562 1.42187,0 2.32812,0.9375 0.90625,0.92187 0.90625,2.57812 0,1.32813 -0.40625,2.09375 -0.39062,0.76563 -1.15625,1.18751 -0.76562,0.42187 -1.67187,0.42187 -1.45313,0 -2.35938,-0.92187 -0.89062,-0.9375 -0.89062,-2.68751 z m 1.20312,0 q 0,1.32813 0.57813,1.98438 0.59375,0.65625 1.46875,0.65625 0.875,0 1.45312,-0.65625 0.57813,-0.67187 0.57813,-2.03125 0,-1.28125 -0.59375,-1.9375 -0.57813,-0.65625 -1.4375,-0.65625 -0.875,0 -1.46875,0.65625 -0.57813,0.65625 -0.57813,1.98437 z m 6.64685,3.45313 v -6.90625 h 1.04688 v 0.96875 q 0.32812,-0.51562 0.85937,-0.8125 0.54688,-0.3125 1.23438,-0.3125 0.78125,0 1.26562,0.3125 0.48438,0.3125 0.6875,0.89063 0.82813,-1.20313 2.14063,-1.20313 1.03125,0 1.57812,0.57813 0.5625,0.5625 0.5625,1.73437 v 4.75 h -1.17187 v -4.35937 q 0,-0.70313 -0.125,-1 -0.10938,-0.3125 -0.40625,-0.5 -0.29688,-0.1875 -0.70313,-0.1875 -0.71875,0 -1.20312,0.48437 -0.48438,0.48438 -0.48438,1.54688 v 4.01562 h -1.17187 v -4.48437 q 0,-0.78125 -0.29688,-1.17188 -0.28125,-0.39062 -0.92187,-0.39062 -0.5,0 -0.92188,0.26562 -0.42187,0.25 -0.60937,0.75 -0.1875,0.5 -0.1875,1.45313 v 3.57812 z m 11.10242,2.65625 v -9.5625 h 1.07813 v 0.89063 q 0.375,-0.53125 0.84375,-0.78125 0.48437,-0.26563 1.15625,-0.26563 0.875,0 1.54687,0.45313 0.6875,0.45312 1.03125,1.28125 0.34375,0.82812 0.34375,1.82812 0,1.04688 -0.375,1.90625 -0.375,0.84375 -1.10937,1.29688 -0.71875,0.45312 -1.53125,0.45312 -0.57813,0 -1.04688,-0.25 -0.46875,-0.25 -0.76562,-0.625 v 3.375 z m 1.0625,-6.07812 q 0,1.34375 0.53125,1.98437 0.54688,0.625 1.3125,0.625 0.78125,0 1.34375,-0.65625 0.5625,-0.65625 0.5625,-2.04687 0,-1.3125 -0.54687,-1.96875 -0.54688,-0.67188 -1.29688,-0.67188 -0.75,0 -1.32812,0.70313 -0.57813,0.70312 -0.57813,2.03125 z m 6.6781,3.42187 v -1.32812 h 1.34375 v 1.32812 z m 7.2966,0 v -9.54687 h 6.4375 v 1.125 h -5.17187 v 2.96875 h 4.46875 v 1.125 h -4.46875 v 4.32812 z"
       id="path73"
       inkscape:connector-curvature="0"
       style="fill:#000000;fill-rule:nonzero" />
    <path
       d="m 615.98376,249.90378 h 99.52753 v 44.09448 h -99.52753 z"
       id="path75"
       inkscape:connector-curvature="0"
       style="fill:#000000;fill-opacity:0;fill-rule:evenodd" />
    <path
       d="m 615.98376,249.90378 h 99.52753 v 44.09448 h -99.52753 z"
       id="path77"
       inkscape:connector-curvature="0"
       style="fill-rule:evenodd;stroke:#000000;stroke-width:1;stroke-linecap:butt;stroke-linejoin:round" />
    <path
       d="m 630.3744,269.17252 1.15625,0.15625 q -0.1875,1.1875 -0.96875,1.85938 -0.78125,0.67187 -1.92187,0.67187 -1.40625,0 -2.28125,-0.92187 -0.85938,-0.9375 -0.85938,-2.65625 0,-1.125 0.375,-1.96875 0.375,-0.84375 1.125,-1.25 0.76563,-0.42188 1.65625,-0.42188 1.125,0 1.84375,0.57813 0.71875,0.5625 0.92188,1.60937 l -1.14063,0.17188 q -0.17187,-0.70313 -0.59375,-1.04688 -0.40625,-0.35937 -0.98437,-0.35937 -0.89063,0 -1.45313,0.64062 -0.54687,0.64063 -0.54687,2 0,1.40625 0.53125,2.03125 0.54687,0.625 1.40625,0.625 0.6875,0 1.14062,-0.42187 0.46875,-0.42188 0.59375,-1.29688 z m 1.71094,-0.92187 q 0,-1.92188 1.07812,-2.84375 0.89063,-0.76563 2.17188,-0.76563 1.42187,0 2.32812,0.9375 0.90625,0.92188 0.90625,2.57813 0,1.32812 -0.40625,2.09375 -0.39062,0.76562 -1.15625,1.1875 -0.76562,0.42187 -1.67187,0.42187 -1.45313,0 -2.35938,-0.92187 -0.89062,-0.9375 -0.89062,-2.6875 z m 1.20312,0 q 0,1.32812 0.57813,1.98437 0.59375,0.65625 1.46875,0.65625 0.875,0 1.45312,-0.65625 0.57813,-0.67187 0.57813,-2.03125 0,-1.28125 -0.59375,-1.9375 -0.57813,-0.65625 -1.4375,-0.65625 -0.875,0 -1.46875,0.65625 -0.57813,0.65625 -0.57813,1.98438 z m 6.64685,3.45312 v -6.90625 h 1.04688 v 0.96875 q 0.32812,-0.51562 0.85937,-0.8125 0.54688,-0.3125 1.23438,-0.3125 0.78125,0 1.26562,0.3125 0.48438,0.3125 0.6875,0.89063 0.82813,-1.20313 2.14063,-1.20313 1.03125,0 1.57812,0.57813 0.5625,0.5625 0.5625,1.73437 v 4.75 h -1.17187 v -4.35937 q 0,-0.70313 -0.125,-1 -0.10938,-0.3125 -0.40625,-0.5 -0.29688,-0.1875 -0.70313,-0.1875 -0.71875,0 -1.20312,0.48437 -0.48438,0.48438 -0.48438,1.54688 v 4.01562 h -1.17187 v -4.48437 q 0,-0.78125 -0.29688,-1.17188 -0.28125,-0.39062 -0.92187,-0.39062 -0.5,0 -0.92188,0.26562 -0.42187,0.25 -0.60937,0.75 -0.1875,0.5 -0.1875,1.45313 v 3.57812 z m 11.10242,2.65625 v -9.5625 h 1.07813 v 0.89063 q 0.375,-0.53125 0.84375,-0.78125 0.48437,-0.26563 1.15625,-0.26563 0.875,0 1.54687,0.45313 0.6875,0.45312 1.03125,1.28125 0.34375,0.82812 0.34375,1.82812 0,1.04688 -0.375,1.90625 -0.375,0.84375 -1.10937,1.29688 -0.71875,0.45312 -1.53125,0.45312 -0.57813,0 -1.04688,-0.25 -0.46875,-0.25 -0.76562,-0.625 v 3.375 z m 1.0625,-6.07812 q 0,1.34375 0.53125,1.98437 0.54688,0.625 1.3125,0.625 0.78125,0 1.34375,-0.65625 0.5625,-0.65625 0.5625,-2.04687 0,-1.3125 -0.54687,-1.96875 -0.54688,-0.67188 -1.29688,-0.67188 -0.75,0 -1.32812,0.70313 -0.57813,0.70312 -0.57813,2.03125 z m 6.6781,3.42187 v -1.32812 h 1.34375 v 1.32812 z m 7.21851,0 v -9.54687 h 1.29687 l 5.01563,7.5 v -7.5 h 1.20312 v 9.54687 h -1.29687 l -5.01563,-7.5 v 7.5 z"
       id="path79"
       inkscape:connector-curvature="0"
       style="fill:#000000;fill-rule:nonzero" />
    <path
       d="m 85.59049,306.58676 h 90.70866 v 44.09448 H 85.59049 Z"
       id="path81"
       inkscape:connector-curvature="0"
       style="fill:#000000;fill-opacity:0;fill-rule:evenodd" />
    <path
       d="m 85.59049,306.58676 h 90.70866 v 44.09448 H 85.59049 Z"
       id="path83"
       inkscape:connector-curvature="0"
       style="fill-rule:evenodd;stroke:#000000;stroke-width:1;stroke-linecap:butt;stroke-linejoin:round" />
    <path
       d="m 99.98112,325.85553 1.15625,0.15625 q -0.1875,1.1875 -0.96875,1.85937 -0.78125,0.67188 -1.921875,0.67188 -1.40625,0 -2.28125,-0.92188 -0.859375,-0.9375 -0.859375,-2.65625 0,-1.125 0.375,-1.96875 0.375,-0.84375 1.125,-1.25 0.765625,-0.42187 1.65625,-0.42187 1.125,0 1.84375,0.57812 0.71875,0.5625 0.92188,1.60938 l -1.14063,0.17187 q -0.171875,-0.70312 -0.59375,-1.04687 -0.40625,-0.35938 -0.984375,-0.35938 -0.890625,0 -1.453125,0.64063 -0.546875,0.64062 -0.546875,2 0,1.40625 0.53125,2.03125 0.546875,0.625 1.40625,0.625 0.6875,0 1.140625,-0.42188 0.46875,-0.42187 0.59375,-1.29687 z m 1.71094,-0.92188 q 0,-1.92187 1.07812,-2.84375 0.89063,-0.76562 2.17188,-0.76562 1.42187,0 2.32812,0.9375 0.90625,0.92187 0.90625,2.57812 0,1.32813 -0.40625,2.09375 -0.39062,0.76563 -1.15625,1.1875 -0.76562,0.42188 -1.67187,0.42188 -1.45313,0 -2.35938,-0.92188 -0.89062,-0.9375 -0.89062,-2.6875 z m 1.20312,0 q 0,1.32813 0.57813,1.98438 0.59375,0.65625 1.46875,0.65625 0.875,0 1.45312,-0.65625 0.57813,-0.67188 0.57813,-2.03125 0,-1.28125 -0.59375,-1.9375 -0.57813,-0.65625 -1.4375,-0.65625 -0.875,0 -1.46875,0.65625 -0.57813,0.65625 -0.57813,1.98437 z m 6.64685,3.45313 v -6.90625 h 1.04688 v 0.96875 q 0.32812,-0.51563 0.85937,-0.8125 0.54688,-0.3125 1.23438,-0.3125 0.78125,0 1.26562,0.3125 0.48438,0.3125 0.6875,0.89062 0.82813,-1.20312 2.14063,-1.20312 1.03125,0 1.57812,0.57812 0.5625,0.5625 0.5625,1.73438 v 4.75 h -1.17187 v -4.35938 q 0,-0.70312 -0.125,-1 -0.10938,-0.3125 -0.40625,-0.5 -0.29688,-0.1875 -0.70313,-0.1875 -0.71875,0 -1.20312,0.48438 -0.48438,0.48437 -0.48438,1.54687 v 4.01563 h -1.17187 v -4.48438 q 0,-0.78125 -0.29688,-1.17187 -0.28125,-0.39063 -0.92187,-0.39063 -0.5,0 -0.92188,0.26563 -0.42187,0.25 -0.60937,0.75 -0.1875,0.5 -0.1875,1.45312 v 3.57813 z m 11.10244,2.65625 v -9.5625 h 1.07812 v 0.89062 q 0.375,-0.53125 0.84375,-0.78125 0.48438,-0.26562 1.15625,-0.26562 0.875,0 1.54688,0.45312 0.6875,0.45313 1.03125,1.28125 0.34375,0.82813 0.34375,1.82813 0,1.04687 -0.375,1.90625 -0.375,0.84375 -1.10938,1.29687 -0.71875,0.45313 -1.53125,0.45313 -0.57812,0 -1.04687,-0.25 -0.46875,-0.25 -0.76563,-0.625 v 3.375 z m 1.0625,-6.07813 q 0,1.34375 0.53125,1.98438 0.54687,0.625 1.3125,0.625 0.78125,0 1.34375,-0.65625 0.5625,-0.65625 0.5625,-2.04688 0,-1.3125 -0.54688,-1.96875 -0.54687,-0.67187 -1.29687,-0.67187 -0.75,0 -1.32813,0.70312 -0.57812,0.70313 -0.57812,2.03125 z m 6.67809,3.42188 v -1.32813 h 1.34375 v 1.32813 z m 7.1716,0 v -9.54688 h 3.59375 q 1.09375,0 1.75,0.29688 0.65625,0.28125 1.03125,0.89062 0.375,0.60938 0.375,1.26563 0,0.60937 -0.34375,1.15625 -0.32813,0.53125 -0.98438,0.85937 0.85938,0.25 1.32813,0.875 0.46875,0.60938 0.46875,1.4375 0,0.67188 -0.29688,1.25 -0.28125,0.57813 -0.70312,0.89063 -0.40625,0.3125 -1.03125,0.46875 -0.625,0.15625 -1.54688,0.15625 z m 1.26562,-5.53125 h 2.0625 q 0.84375,0 1.20313,-0.10938 0.48437,-0.14062 0.71875,-0.46875 0.25,-0.34375 0.25,-0.84375 0,-0.46875 -0.23438,-0.82812 -0.21875,-0.35938 -0.64062,-0.5 -0.42188,-0.14063 -1.45313,-0.14063 h -1.90625 z m 0,4.40625 h 2.375 q 0.60938,0 0.85938,-0.0469 0.4375,-0.0781 0.73437,-0.25 0.29688,-0.1875 0.48438,-0.53125 0.1875,-0.35937 0.1875,-0.8125 0,-0.53125 -0.28125,-0.92187 -0.26563,-0.40625 -0.75,-0.5625 -0.48438,-0.15625 -1.40625,-0.15625 h -2.20313 z"
       id="path85"
       inkscape:connector-curvature="0"
       style="fill:#000000;fill-rule:nonzero" />
    <path
       d="m 156.14162,244.85449 h 99.52756 v 44.09448 h -99.52756 z"
       id="path87"
       inkscape:connector-curvature="0"
       style="fill:#000000;fill-opacity:0;fill-rule:evenodd" />
    <path
       d="m 156.14162,244.85449 h 99.52756 v 44.09448 h -99.52756 z"
       id="path89"
       inkscape:connector-curvature="0"
       style="fill-rule:evenodd;stroke:#000000;stroke-width:1;stroke-linecap:butt;stroke-linejoin:round" />
    <path
       d="m 170.53224,264.12323 1.15625,0.15625 q -0.1875,1.1875 -0.96875,1.85937 -0.78125,0.67188 -1.92188,0.67188 -1.40625,0 -2.28125,-0.92188 -0.85937,-0.9375 -0.85937,-2.65625 0,-1.125 0.375,-1.96875 0.375,-0.84375 1.125,-1.25 0.76562,-0.42187 1.65625,-0.42187 1.125,0 1.84375,0.57812 0.71875,0.5625 0.92187,1.60938 l -1.14062,0.17187 q -0.17188,-0.70312 -0.59375,-1.04687 -0.40625,-0.35938 -0.98438,-0.35938 -0.89062,0 -1.45312,0.64063 -0.54688,0.64062 -0.54688,2 0,1.40625 0.53125,2.03125 0.54688,0.625 1.40625,0.625 0.6875,0 1.14063,-0.42188 0.46875,-0.42187 0.59375,-1.29687 z m 1.71094,-0.92188 q 0,-1.92187 1.07812,-2.84375 0.89063,-0.76562 2.17188,-0.76562 1.42187,0 2.32812,0.9375 0.90625,0.92187 0.90625,2.57812 0,1.32813 -0.40625,2.09375 -0.39062,0.76563 -1.15625,1.1875 -0.76562,0.42188 -1.67187,0.42188 -1.45313,0 -2.35938,-0.92188 -0.89062,-0.9375 -0.89062,-2.6875 z m 1.20312,0 q 0,1.32813 0.57813,1.98438 0.59375,0.65625 1.46875,0.65625 0.875,0 1.45312,-0.65625 0.57813,-0.67188 0.57813,-2.03125 0,-1.28125 -0.59375,-1.9375 -0.57813,-0.65625 -1.4375,-0.65625 -0.875,0 -1.46875,0.65625 -0.57813,0.65625 -0.57813,1.98437 z m 6.64685,3.45313 v -6.90625 h 1.04688 v 0.96875 q 0.32812,-0.51563 0.85937,-0.8125 0.54688,-0.3125 1.23438,-0.3125 0.78125,0 1.26562,0.3125 0.48438,0.3125 0.6875,0.89062 0.82813,-1.20312 2.14063,-1.20312 1.03125,0 1.57812,0.57812 0.5625,0.5625 0.5625,1.73438 v 4.75 h -1.17187 v -4.35938 q 0,-0.70312 -0.125,-1 -0.10938,-0.3125 -0.40625,-0.5 -0.29688,-0.1875 -0.70313,-0.1875 -0.71875,0 -1.20312,0.48438 -0.48438,0.48437 -0.48438,1.54687 v 4.01563 h -1.17187 v -4.48438 q 0,-0.78125 -0.29688,-1.17187 -0.28125,-0.39063 -0.92187,-0.39063 -0.5,0 -0.92188,0.26563 -0.42187,0.25 -0.60937,0.75 -0.1875,0.5 -0.1875,1.45312 v 3.57813 z m 11.10244,2.65625 v -9.5625 h 1.07812 v 0.89062 q 0.375,-0.53125 0.84375,-0.78125 0.48438,-0.26562 1.15625,-0.26562 0.875,0 1.54688,0.45312 0.6875,0.45313 1.03125,1.28125 0.34375,0.82813 0.34375,1.82813 0,1.04687 -0.375,1.90625 -0.375,0.84375 -1.10938,1.29687 -0.71875,0.45313 -1.53125,0.45313 -0.57812,0 -1.04687,-0.25 -0.46875,-0.25 -0.76563,-0.625 v 3.375 z m 1.0625,-6.07813 q 0,1.34375 0.53125,1.98438 0.54687,0.625 1.3125,0.625 0.78125,0 1.34375,-0.65625 0.5625,-0.65625 0.5625,-2.04688 0,-1.3125 -0.54688,-1.96875 -0.54687,-0.67187 -1.29687,-0.67187 -0.75,0 -1.32813,0.70312 -0.57812,0.70313 -0.57812,2.03125 z m 6.6781,3.42188 v -1.32813 h 1.34375 v 1.32813 z m 7.2341,0 v -9.54688 h 3.28125 q 1.10937,0 1.70312,0.14063 0.8125,0.1875 1.39063,0.6875 0.76562,0.64062 1.14062,1.64062 0.375,0.98438 0.375,2.25 0,1.09375 -0.26562,1.9375 -0.25,0.82813 -0.65625,1.39063 -0.39063,0.54687 -0.85938,0.85937 -0.46875,0.3125 -1.14062,0.48438 -0.65625,0.15625 -1.53125,0.15625 z m 1.26562,-1.125 h 2.03125 q 0.9375,0 1.46875,-0.17188 0.54688,-0.1875 0.875,-0.5 0.4375,-0.45312 0.6875,-1.20312 0.25,-0.76563 0.25,-1.84375 0,-1.5 -0.5,-2.29688 -0.48437,-0.8125 -1.1875,-1.07812 -0.5,-0.20313 -1.625,-0.20313 h -2 z"
       id="path91"
       inkscape:connector-curvature="0"
       style="fill:#000000;fill-rule:nonzero" />
    <path
       d="m 531.2595,196.97882 -62.04727,38.42519"
       id="path93"
       inkscape:connector-curvature="0"
       style="fill:#000000;fill-opacity:0;fill-rule:evenodd" />
    <path
       d="m 531.2595,196.97882 -62.04727,38.42519"
       id="path95"
       inkscape:connector-curvature="0"
       style="fill-rule:evenodd;stroke:#000000;stroke-width:1;stroke-linecap:butt;stroke-linejoin:round" />
    <path
       d="M 552.0204,196.9715 509.53224,317.91638"
       id="path97"
       inkscape:connector-curvature="0"
       style="fill:#000000;fill-opacity:0;fill-rule:evenodd" />
    <path
       d="M 552.0204,196.9715 509.53224,317.91638"
       id="path99"
       inkscape:connector-curvature="0"
       style="fill-rule:evenodd;stroke:#000000;stroke-width:1;stroke-linecap:butt;stroke-linejoin:round" />
    <path
       d="m 469.21225,235.404 v 0"
       id="path101"
       inkscape:connector-curvature="0"
       style="fill:#000000;fill-opacity:0;fill-rule:evenodd" />
    <path
       d="m 469.21225,235.404 v 0"
       id="path103"
       inkscape:connector-curvature="0"
       style="fill-rule:evenodd;stroke:#000000;stroke-width:1;stroke-linecap:butt;stroke-linejoin:round" />
    <path
       d="m 469.21225,235.404 v 0"
       id="path105"
       inkscape:connector-curvature="0"
       style="fill:#000000;fill-opacity:0;fill-rule:evenodd" />
    <path
       d="m 469.21225,235.404 v 0"
       id="path107"
       inkscape:connector-curvature="0"
       style="fill-rule:evenodd;stroke:#000000;stroke-width:1;stroke-linecap:butt;stroke-linejoin:round" />
    <path
       d="m 552.0204,196.9715 69.00787,120.94488"
       id="path109"
       inkscape:connector-curvature="0"
       style="fill:#000000;fill-opacity:0;fill-rule:evenodd" />
    <path
       d="m 552.0204,196.9715 69.00787,120.94488"
       id="path111"
       inkscape:connector-curvature="0"
       style="fill-rule:evenodd;stroke:#000000;stroke-width:1;stroke-linecap:butt;stroke-linejoin:round" />
    <path
       d="m 552.0204,196.9715 113.7323,52.94488"
       id="path113"
       inkscape:connector-curvature="0"
       style="fill:#000000;fill-opacity:0;fill-rule:evenodd" />
    <path
       d="m 552.0204,196.9715 113.7323,52.94488"
       id="path115"
       inkscape:connector-curvature="0"
       style="fill-rule:evenodd;stroke:#000000;stroke-width:1;stroke-linecap:butt;stroke-linejoin:round" />
    <path
       d="m 349.1926,196.9715 -3.74802,120.94488"
       id="path117"
       inkscape:connector-curvature="0"
       style="fill:#000000;fill-opacity:0;fill-rule:evenodd" />
    <path
       d="m 349.1926,196.9715 -3.74802,120.94488"
       id="path119"
       inkscape:connector-curvature="0"
       style="fill-rule:evenodd;stroke:#000000;stroke-width:1;stroke-linecap:butt;stroke-linejoin:round" />
    <path
       d="m 131.57468,196.94897 74.33072,47.90552"
       id="path121"
       inkscape:connector-curvature="0"
       style="fill:#000000;fill-opacity:0;fill-rule:evenodd" />
    <path
       d="m 131.57468,196.94897 74.33072,47.90552"
       id="path123"
       inkscape:connector-curvature="0"
       style="fill-rule:evenodd;stroke:#000000;stroke-width:1;stroke-linecap:butt;stroke-linejoin:round" />
    <path
       d="M 138.80602,196.9715 130.932,306.57779"
       id="path125"
       inkscape:connector-curvature="0"
       style="fill:#000000;fill-opacity:0;fill-rule:evenodd" />
    <path
       d="M 138.80602,196.9715 130.932,306.57779"
       id="path127"
       inkscape:connector-curvature="0"
       style="fill-rule:evenodd;stroke:#000000;stroke-width:1;stroke-linecap:butt;stroke-linejoin:round" />
    <path
       d="M 138.80602,196.9715 55.34145,249.91638"
       id="path129"
       inkscape:connector-curvature="0"
       style="fill:#000000;fill-opacity:0;fill-rule:evenodd" />
    <path
       d="M 138.80602,196.9715 55.34145,249.91638"
       id="path131"
       inkscape:connector-curvature="0"
       style="fill-rule:evenodd;stroke:#000000;stroke-width:1;stroke-linecap:butt;stroke-linejoin:round" />
  </g>
</svg>
